<svg xmlns="http://www.w3.org/2000/svg" width="1240" height="1240"><path d="M601 149.134c-26.804.972-54.617 4.595-81 10.553a2904.4 2904.4 0 01-14.5 3.246l-3 .649-.258 61.515-.257 61.516-11.243 4.351c-33.762 13.065-68.262 33.409-97.098 57.255l-2.857 2.363 3.577 11.959c10.456 34.958 28.13 74.137 47.385 105.035 8.548 13.716 11.803 18.257 12.493 17.424.228-.275 3.602-6.375 7.497-13.556C512.724 377.456 600.079 301.696 716.5 250.5c6.6-2.902 14.138-6.202 16.75-7.332l4.75-2.056v-77.018l-3.75-1.06c-8.353-2.36-37.639-8.022-51.25-9.908-27.735-3.842-52.655-5.055-82-3.992m127.73 148.045c-27.571 29.742-51.927 64.426-69.746 99.321l-6.127 12 32.821.627c42.599.815 63.722 3.483 101.822 12.862 70.393 17.329 142.363 52.647 207.259 101.709l12.26 9.268 33.24-19.159c18.283-10.538 33.39-19.267 33.573-19.399.479-.345-6.253-21.963-11.027-35.408-8.131-22.902-21.315-51.766-33.571-73.5-12.995-23.046-35.625-54.422-55.536-77-16.049-18.2-16.932-18.976-19.846-17.44-1.294.682-25.206 14.437-53.14 30.568l-50.787 29.327-9.883-7.873c-25.885-20.622-53.25-36.768-84.654-49.948-17.998-7.554-15.562-7.924-26.658 4.045m-456.378 5.091c-38.549 42.288-65.511 84.143-86.863 134.839-6.146 14.594-18.185 49.612-18.68 54.336-.305 2.903.428 3.371 51.191 32.688 28.325 16.358 52.067 30.108 52.76 30.555 1.002.645.849 3.582-.747 14.312-3.398 22.863-4.549 48.484-3.163 70.413.664 10.498 1.873 23.587 2.686 29.087 2.517 17.018.768 14.914 15.277 18.375 25.706 6.132 49.207 9.441 79.187 11.151 17.289.986 44.834.519 53.159-.902l3.66-.624-9.455-15.5c-54.349-89.1-76.226-201.587-63.307-325.5 1.09-10.45 2.247-20.84 2.572-23.089l.591-4.09-32.785-18.91c-18.031-10.401-33.268-19.014-33.86-19.141-.591-.126-6.092 5.274-12.223 12m329.164 227.329c-34.176 7.618-59.941 31.52-70.179 65.104-2.412 7.911-2.689 10.409-2.75 24.797-.059 13.803.245 17.084 2.209 23.895 9.474 32.844 32.965 56.335 65.809 65.809 6.811 1.964 10.092 2.268 23.895 2.209 14.388-.061 16.886-.338 24.797-2.75 31.175-9.503 53.777-32.097 63.389-63.366 2.474-8.049 2.704-10.2 2.704-25.297 0-15.176-.222-17.222-2.761-25.5-9.454-30.818-32.606-53.929-63.178-63.068-11.464-3.427-32.793-4.316-43.935-1.833m221.786 13.245l-4.197.656 5.471 8.5c48.401 75.194 73.844 174.585 71.054 277.57-.757 27.964-3.451 62.274-6.197 78.93-.485 2.941-.197 3.171 14.786 11.773 8.405 4.825 23.381 13.465 33.281 19.199l18 10.426 6.325-6.199c7.808-7.653 24.21-26.713 34.047-39.566 32.417-42.356 57.894-91.928 73.806-143.607 3.387-10.999 4.039-14.212 3.062-15.096-.682-.617-24.19-14.31-52.24-30.43-28.05-16.119-51.358-29.619-51.795-29.999-.438-.38.111-6.949 1.218-14.596 5.095-35.179 4.715-75.041-1.03-108.09l-1.076-6.184-10.658-2.515c-35.921-8.474-55.603-10.75-96.159-11.122-18.425-.168-35.389-.011-37.698.35M205.5 723.099c-14.3 8.27-28.996 16.801-32.658 18.959l-6.659 3.922 3.347 11.26c14.321 48.19 37.384 95.421 66.232 135.634 12.23 17.048 23.591 30.841 42.052 51.054l5.871 6.428 53.23-30.75 53.229-30.751 3.178 2.586c29.531 24.029 63.222 44.133 94.803 56.57 15.283 6.019 11.985 7.215 27.236-9.869 27.382-30.675 49.136-62.221 65.717-95.298l6.097-12.163-14.337.646c-17.512.789-47.854-.7-68.775-3.374-86.015-10.997-174.966-49.122-256.823-110.079-7.293-5.43-13.818-9.86-14.5-9.843-.682.018-12.94 6.798-27.24 15.068m579.73 32.16c-.55.682-2.834 4.908-5.075 9.389-2.241 4.481-6.865 12.806-10.275 18.5-43.052 71.875-106.38 131.332-189.661 178.066-15.617 8.764-50.625 25.84-66.451 32.413l-11.732 4.873-.018 38.711-.018 38.712 3.811 1.026c40.059 10.787 92.534 16.249 135.046 14.057 30.45-1.571 65.23-6.549 89.643-12.832l7-1.801.276-61.437.276-61.436 10.224-3.874c14.873-5.636 38.234-17.093 53.724-26.35 20.244-12.097 47-31.92 47-34.821 0-.725-2.295-8.436-5.099-17.136-11.915-36.963-26.397-68.419-45.724-99.319-9.8-15.667-11.765-18.208-12.947-16.741" fill="undefined" fill-rule="evenodd"/></svg>