<svg xmlns="http://www.w3.org/2000/svg" width="1000" height="1000"><path d="M467.5 8.107c-142.868 9.795-271.817 79.747-358.819 194.652C69.821 254.083 40.36 315.734 24.702 378.5c-11.352 45.504-15.332 81.431-14.4 130 .567 29.568 1.259 38.653 4.756 62.5C38.264 729.253 138.161 866.734 282 938.376c55.155 27.471 108.218 42.706 173.5 49.814 15.812 1.721 72.799 1.722 89.5.001 90.051-9.279 168.016-37.894 238.951-87.702 101.158-71.028 173.946-182.432 198.497-303.803 7.013-34.671 9.671-61.645 9.677-98.186.008-55.802-7.529-101.986-25.744-157.75-2.47-7.562-4.641-13.75-4.824-13.75-.184 0-42.413 20.876-93.843 46.391-76.334 37.87-93.653 46.825-94.289 48.75-.815 2.47-.912 2.948-1.881 9.254-.33 2.142-1.05 5.742-1.601 8-.551 2.258-1.226 5.63-1.499 7.494-.274 1.864-.736 3.774-1.027 4.246-.292.472-.73 1.759-.974 2.861a239.84 239.84 0 01-.994 4.254 160.544 160.544 0 00-1.04 4.61c-1.044 5.05-4.734 14.794-6.771 17.883-1.959 2.972-2.577 3.244-7.388 3.25-5.508.007-6.085-.607-4.049-4.309.661-1.201 1.345-3.049 1.52-4.106.175-1.056.815-2.519 1.421-3.25.607-.73.768-1.328.358-1.328-.41 0-.185-.675.5-1.5s.959-1.5.609-1.5.022-1.575.827-3.5c.804-1.925 1.307-3.5 1.118-3.5-.189 0 .75-4.163 2.087-9.25 1.337-5.087 2.64-10.375 2.896-11.75.847-4.566 1.781-9.485 2.017-10.623.232-1.125-165.055 80.524-173.566 85.737-2.481 1.52-42.081 21.509-88 44.42-45.918 22.91-98.788 49.438-117.488 58.949-18.7 9.512-34.367 17.075-34.815 16.806-.448-.268-.185-1.23.585-2.138.77-.908 1.979-3.113 2.687-4.901.707-1.788 1.582-3.25 1.945-3.25s1.217-1.237 1.899-2.75c1.705-3.784 4.052-8.015 7.072-12.75 1.403-2.2 3.354-5.575 4.336-7.5 1.911-3.746-1.415-1.973 58.791-31.345a55341.13 55341.13 0 0037.5-18.317 17454.43 17454.43 0 0138.5-18.754c38.959-18.905 59.866-29.115 78-38.091 10.175-5.037 18.725-9.127 19-9.09.275.037 8.825-4.063 19-9.111 20.099-9.972 46.149-22.704 77.5-37.879 11-5.325 27.425-13.383 36.5-17.907 9.075-4.524 18.977-9.196 22.004-10.382 3.027-1.186 6.717-3.162 8.199-4.39 2.51-2.082 2.741-2.951 3.383-12.734.379-5.775.632-11.85.562-13.5-.144-3.371 2.426-6.059 12.089-12.646l5.737-3.911-.468 4.779a335.634 335.634 0 01-.919 8.278c-.645 5-1.604 12.891-2.089 17.187l-.417 3.687 9.71-4.6C822.433 376.387 955 311.191 955 310.55c0-1.459-10.181-23.137-17.87-38.05C878.631 159.039 778.212 73.084 656.82 32.563 597.039 12.609 529.361 3.866 467.5 8.107m38.372 76.055c-.479 1.269-1.633 15.475-2.383 29.338-.268 4.95-.752 10.688-1.076 12.75-.534 3.404-.373 3.764 1.749 3.906 1.286.086 3.463.268 4.838.405s7.675.557 14 .935c6.325.377 11.913.758 12.417.845 1.032.179 3.173-6.084 2.359-6.899-.288-.288-3.168-.694-6.4-.903a301.907 301.907 0 01-12.038-1.079l-6.161-.698-.339-4.738c-.394-5.526-.003-8.244 1.089-7.569.427.264 5.23.762 10.673 1.107 5.444.345 10.185.805 10.537 1.023 1.072.662 1.695-6.003.679-7.268-.522-.65-1.707-1.152-2.633-1.114-5.467.223-18.742-1.489-19.365-2.498-.651-1.053-.388-3.782.711-7.396.266-.874 3.57-1.05 12.417-.662 10.303.452 12.054.31 12.054-.978 0-.828.26-2.183.578-3.011.957-2.493-2.501-3.46-14.608-4.085-6.309-.325-13.157-.852-15.22-1.17-2.062-.318-3.807-.427-3.878-.241m-70.191 4.491c-.192.192-2.337.595-4.765.896-2.429.301-8.466 1.329-13.416 2.285-7.849 1.516-8.972 1.99-8.784 3.702.834 7.582 1.479 11.971 1.848 12.567.236.382.668 2.653.961 5.046.292 2.393.778 5.151 1.08 6.129.301.979.729 3.229.951 5 1.018 8.13 3.13 15.034 4.366 14.27.379-.234 2.464-.668 4.633-.964 3.682-.503 5.837-.841 13.442-2.109 1.65-.275 4.463-.71 6.251-.967 8.215-1.181 8.79-1.486 8.168-4.337-1.097-5.028-1.329-5.334-3.511-4.641-2.185.694-4.039 1-12.338 2.041-2.714.34-5.99 1.019-7.28 1.51-2.015.766-2.495.505-3.395-1.844-.576-1.506-1.125-4.29-1.22-6.188-.171-3.441-.154-3.456 5.828-4.731 3.3-.704 7.125-1.488 8.5-1.744s3.4-.642 4.5-.859c1.505-.297 2.079-1.335 2.319-4.196l.319-3.801-4.319.663a364.41 364.41 0 00-7.067 1.153c-1.512.27-4.11.69-5.774.934-1.664.244-3.413.683-3.888.976-1.317.814-2.836-1.542-3.587-5.564-.628-3.361-.474-3.675 2.16-4.394 1.56-.426 3.512-.858 4.337-.959.825-.1 3.3-.552 5.5-1.004 2.2-.451 4.675-.948 5.5-1.104 4.926-.93 5.476-1.238 5.393-3.013-.236-5.056-.377-5.273-3.378-5.187-1.642.046-3.142.242-3.334.434M575.5 93.937c-6.249 1.481-8.961 3.471-10.405 7.637-.795 2.295-1.114 5.216-.733 6.731.789 3.144 6.087 8.31 11.631 11.34 6.564 3.588 9.007 5.951 9.007 8.714 0 4.455-5.862 6.382-11.451 3.764-4.334-2.03-5.724-3.924-5.843-7.961-.047-1.608-3.731-3.159-6.335-2.668a90.364 90.364 0 01-2.408.429c-1.288.184-.706 4.751 1.113 8.745 5.536 12.151 26.376 14.859 32.82 4.263.949-1.561 1.828-4.821 1.954-7.244.192-3.718-.276-4.976-2.995-8.047-1.773-2.002-3.609-3.64-4.081-3.64-.472 0-1.402-.473-2.066-1.051-.664-.578-3.458-2.495-6.208-4.26-5.271-3.382-6.708-6.441-4.059-8.64 3.362-2.79 10.327.591 13.352 6.482.574 1.117 1.867 2.127 2.875 2.243 1.008.117 2.732.328 3.832.469 1.564.201 2.061-.397 2.279-2.743.58-6.241-5.323-12.528-13.038-13.885-1.517-.267-3.542-.689-4.5-.937-.957-.248-3.091-.132-4.741.259m-220.161 16.215c-1.738.472-3.065 1.419-2.948 2.103.316 1.848 5.781 18.085 6.478 19.245.33.55.664 1.338.741 1.75.077.412.253.975.39 1.25s.325.838.418 1.25c.393 1.759 2.895 8.833 3.448 9.75.332.55.629 1.225.661 1.5.032.275.643 2.208 1.358 4.296 1.06 3.093 1.561 3.579 2.708 2.627.774-.642 1.407-.833 1.407-.423s.675.185 1.5-.5 1.5-.91 1.5-.5c0 .41.675.185 1.5-.5s1.5-.985 1.5-.667c0 .477 9.18-2.604 15-5.034.825-.344 1.837-.721 2.25-.838a8.743 8.743 0 001.25-.461c.479-.239 1.797-.609 3.122-.875.343-.069.122-.729-.491-1.467-.612-.738-.89-1.566-.616-1.839.273-.274-.343-1.258-1.369-2.187-1.564-1.416-2.334-1.498-4.756-.507-1.59.65-3.426 1.294-4.08 1.431-2.608.546-8.868 2.748-9.81 3.451-.997.744-4.858-.171-4.414-1.046.331-.651-2.186-8.257-3.131-9.461-.432-.55-.824-1.45-.873-2-.121-1.382-3.213-10.774-3.95-12-.331-.55-.645-1.225-.698-1.5-1.244-6.423-3.29-8.154-8.095-6.848m279.987 3.959c-12.462 2.265-19.633 12.495-18.91 26.979.434 8.719 3.038 12.958 10.084 16.421 9.413 4.626 15.087 4.233 21.654-1.501l3.304-2.885-2.979-3.035c-2.834-2.886-5.479-4-5.479-2.306 0 1.249-5.598 4.216-7.954 4.216-3.528 0-7.684-2.711-8.99-5.864-1.384-3.343-1.186-8.935.392-11.04.579-.772.893-1.589.698-1.815-.779-.907 5.226-9.065 7.705-10.467 5.39-3.049 13.512 1.272 14.745 7.846.345 1.837 1.195 3.34 1.89 3.34.695 0 2.67.281 4.389.625 3.044.609 3.125.531 3.125-3.032 0-8.229-5.106-14.153-14.5-16.82-3.293-.935-6.425-1.161-9.174-.662m-322.672 15.44c-7.943 2.913-14.569 11.085-14.628 18.042-.034 4.073 3.411 13.958 6.483 18.6 7 10.577 21.634 12.016 31.67 3.115 2.753-2.442 5.163-8.491 5.403-13.558l.224-4.75h-3.332c-4.198 0-6.474 2.232-6.474 6.349 0 2.63-.976 4.943-3.574 8.473-.131.178-1.698.553-3.483.834-5.654.891-10.356-2.078-13.94-8.802-3.014-5.654-4.605-13.397-3.176-15.453 3.355-4.831 10.769-6.773 14.875-3.897 2.002 1.402 2.39 1.275 5.728-1.873 3.844-3.626 3.846-3.621-2.084-6.891-3.741-2.063-8.405-2.127-13.692-.189m375.118 9.235c-2.3 2.676-10.772 16.174-10.772 17.162 0 .487-.337 1.035-.75 1.219-1.079.479-6.25 8.598-6.25 9.812 0 .561-.398 1.021-.883 1.021-.486 0-1.148.787-1.471 1.75-.324.963-1.163 2.54-1.865 3.505-1.099 1.51-.871 2.104 1.626 4.25 1.597 1.372 3.397 2.479 3.999 2.459.601-.019 2.894-2.973 5.094-6.565 4.657-7.602 5.695-8.645 7.796-7.839 3.048 1.17 4.794 7.07 4.939 16.691.077 5.087.618 9.716 1.202 10.286.585.571 2.808 2.106 4.941 3.411l3.878 2.373-.561-11.41c-.309-6.276-.893-12.272-1.298-13.325-.575-1.494-.426-1.72.683-1.029 3.973 2.477 10.119.932 14.505-3.646 2.405-2.51 2.915-3.895 2.915-7.918 0-4.116-.467-5.319-3-7.728-3.462-3.293-12.94-10.265-13.954-10.265-.377 0-2.624-1.334-4.994-2.964-4.025-2.769-4.404-2.851-5.78-1.25m3.215 12.246c-.676 1.632-1.625 2.968-2.108 2.968-.484 0-.879.637-.879 1.417 0 .779-.504 1.584-1.12 1.79-1.617.539 5.76 5.903 10.242 7.447 5.327 1.836 8.826.291 8.863-3.913.015-1.764-5.003-7.741-6.499-7.741-.438 0-2.253-1.111-4.033-2.468l-3.237-2.469-1.229 2.969m-429.092 12.34c-4.889 2.551-14.114 9.316-19.457 14.268-2.234 2.07-2.45 6.36-.321 6.36.485 0 .883.498.883 1.106 0 .968 5.401 8.537 7.06 9.894.336.275 1.022 1.226 1.525 2.113.953 1.681 5.81 7.877 8.429 10.752.832.914 2.55 3.118 3.818 4.899 2.114 2.969 5.168 4.391 5.168 2.405 0-.457 1.125-1.433 2.5-2.169 3.504-1.875 3.887-.882-4.494-11.643-2.203-2.829-4.006-5.405-4.006-5.724 0-.32 1.389-1.3 3.086-2.177 3.391-1.754 7.049-1.512 13.664.903 2.337.854 4.25 1.292 4.25.974 0-.318.608-.073 1.351.543 2.585 2.146 6.309 1.615 9.952-1.418 1.954-1.627 3.585-3.281 3.625-3.676.085-.844-15.634-5.775-18.48-5.797-1.071-.009-2.594-.424-3.384-.924-1.173-.742-1.202-1.19-.16-2.445.702-.846 1.306-3.557 1.343-6.026.052-3.425-.585-5.344-2.688-8.101-4.064-5.329-8.678-6.719-13.664-4.117m-.117 8.92c-.705.665-3.426 2.933-6.048 5.04l-4.768 3.833 3.103 3.917c1.707 2.155 3.726 3.918 4.487 3.918 2.154 0 11.448-9.515 11.448-11.72 0-3.563-5.923-7.156-8.222-4.988m474.287 8.997c-2.852 3.416-6.395 7.605-7.875 9.309-8.774 10.105-12.253 14.187-14.067 16.506l-2.038 2.603 2.762 2.647c1.519 1.455 3.094 2.646 3.5 2.646 1.007 0 3.617-2.572 8.624-8.5 2.323-2.75 6.542-7.654 9.376-10.898 2.834-3.244 5.753-6.749 6.487-7.79.734-1.04 2.422-3.064 3.751-4.498 2.712-2.927 2.159-4.361-2.638-6.841-2.645-1.368-2.799-1.274-7.882 4.816m30.56 20.961c-1.364 1.238-4.619 4.05-7.235 6.25-12.734 10.709-23.39 20.629-23.39 21.772 0 .549 1.099 2.017 2.443 3.262l2.442 2.264 3.192-2.355c1.756-1.295 3.98-3.162 4.942-4.149.962-.987 3.915-3.594 6.562-5.794 2.647-2.2 5.869-5.012 7.161-6.25 3.767-3.608 3.713-2.623-.148 2.752-1.977 2.752-3.594 5.452-3.594 6 0 .549-.45.998-1 .998s-1 .637-1 1.417c0 .779-.337 1.566-.75 1.75-1.134.504-5.706 6.927-7.426 10.432-1.403 2.861-1.371 3.302.412 5.75 1.062 1.458 2.829 2.651 3.928 2.651 1.912 0 21.356-9.629 27.086-13.414 4.355-2.876 3.148-.474-1.967 3.914-2.565 2.2-6.49 5.637-8.723 7.638a1005.879 1005.879 0 01-7.56 6.698l-3.5 3.059 3.136 3.17 3.137 3.169 3.054-2.867c1.679-1.577 5.41-4.892 8.291-7.367C789.717 241.316 798 233.623 798 232.679c0-.365-.866-1.68-1.924-2.921a220.665 220.665 0 01-3.75-4.547l-1.826-2.289-9.184 3.989c-5.051 2.193-11.417 5.12-14.147 6.503-4.662 2.363-4.932 2.396-4.45.551.283-1.081.912-1.965 1.398-1.965.485 0 .883-.675.883-1.5s.45-1.5 1-1.5 1-.469 1-1.042c0-.573.9-2.008 2-3.188 1.1-1.181 2-2.737 2-3.459 0-.721.45-1.311 1-1.311s1-.675 1-1.5.45-1.5 1-1.5 1-.675 1-1.5.441-1.5.981-1.5c1.346 0 2.514-5.061 1.351-5.857-.516-.354-2.205-2.33-3.754-4.393-1.548-2.062-3.189-3.75-3.645-3.75-.457 0-1.945 1.012-3.308 2.25m-549.792-.31c-.183.517-3.445 4.176-7.248 8.13-3.804 3.955-8.694 9.245-10.867 11.756l-3.952 4.566 2.367 1.884c1.302 1.036 4.635 3.985 7.407 6.554 2.772 2.568 7.65 6.92 10.841 9.67 3.19 2.75 7.397 6.463 9.349 8.25 1.953 1.787 3.852 3.25 4.222 3.25.698 0 8.729-8.403 15.37-16.081 2.102-2.43 4.787-5.484 5.966-6.785l2.144-2.365-2.863-2.463-2.864-2.464-4.102 4.407a2448.963 2448.963 0 00-8.665 9.366c-2.523 2.743-4.982 4.607-5.5 4.17-4.529-3.819-7.438-6.729-7.438-7.442 0-.469 1.688-2.686 3.75-4.926 6.435-6.989 10.25-11.581 10.25-12.339 0-.401-1.161-1.82-2.581-3.154-2.361-2.218-2.684-2.282-3.8-.756-.67.917-4.099 4.821-7.618 8.676l-6.399 7.009-3.815-3.022-3.814-3.021 4.249-5.155c2.337-2.835 4.755-5.479 5.373-5.876.618-.396 2.352-2.332 3.854-4.301l2.732-3.581-2.642-2.449c-2.95-2.733-3.231-2.847-3.706-1.508M176 256.782c-20.953 10.354-12.357 39.9 12.21 41.971 13.696 1.154 24.922-11.401 21.686-24.253-.624-2.475-1.478-4.5-1.898-4.5-.421 0-1-.9-1.288-2-.712-2.724-2.021-2.517-5.777.914l-3.191 2.915 1.883 2.835c4.174 6.286.094 15.045-7.198 15.454-6.14.345-16.029-5.514-18.998-11.255-1.338-2.588-1.524-9.363-.28-10.243.193-.136 1.649-1.232 3.236-2.434 1.641-1.243 4.336-2.186 6.25-2.186 1.851 0 3.365-.45 3.365-1 0-1.779.181-2.47 1.095-4.178 1.383-2.584.001-4.826-2.952-4.79-1.454.018-5.118 1.255-8.143 2.75m391.199 2.394c-3.998.894-6.199 3.296-6.199 6.766 0 1.138 13.529 6.682 17.5 7.171.55.068 1.888.746 2.973 1.505 1.084.76 2.609 1.382 3.387 1.382 2.419 0 14.415 8.516 19.197 13.629 4.984 5.328 7.683 11.043 8.605 18.222 1.794 13.975-.581 28.501-6.234 38.123-3.159 5.377-12.385 15.282-17.428 18.71-1.375.935-2.725 1.984-3 2.331-.275.347-1.175.939-2 1.315-7.399 3.373-17.717 11.521-22.644 17.881-5.399 6.972-5.919 18.301-1.121 24.467 5.34 6.863 14.776 13.356 21.563 14.841 1.211.264 3.215.76 4.452 1.102 6.904 1.905 9.356 1.619 12.423-1.448 2.96-2.96 3.348-4.661 1.994-8.743-.581-1.749-5.654-5.093-9.167-6.043-1.82-.492-5.98-1.5-7.221-1.75-.672-.135-1.534-.559-1.917-.941-.382-.383-1.408-.698-2.279-.701-.87-.002-3.016-1.347-4.766-2.988-2.857-2.677-3.09-3.313-2.267-6.181.806-2.812 6.105-9.68 8.218-10.651.422-.195 1.403-.988 2.178-1.764.776-.776 1.893-1.411 2.483-1.411.589 0 1.071-.398 1.071-.883 0-.486.788-1.16 1.75-1.499.962-.338 4-1.905 6.75-3.481 2.75-1.577 7.35-4.12 10.221-5.651 2.872-1.531 6.116-3.617 7.209-4.635 1.092-1.018 2.249-1.851 2.57-1.851.654 0 .459.151 9.75-7.539 3.712-3.072 6.751-5.896 6.751-6.274.001-.378 1.168-2.037 2.594-3.687 2.841-3.286 7.424-10.732 7.84-12.735.145-.696.668-2.165 1.164-3.265 1.06-2.353 1.07-18.681.014-22.969-.402-1.633-1.21-3.545-1.795-4.25-.584-.705-.775-1.281-.424-1.281 1.086 0-4.405-10.178-8.951-16.591-3.707-5.231-6.524-8.109-13.219-13.508-4.814-3.881-22.754-11.726-30.724-13.435-12.252-2.626-14.672-2.772-21.301-1.29m234.301 6.758c-7.15 4.326-13.485 8.306-14.077 8.843-.592.538-2.055 1.289-3.25 1.668-1.195.379-2.173 1.061-2.173 1.514 0 .453-1.125 1.107-2.5 1.452s-2.5 1.048-2.5 1.562c0 .914 11.821 21.04 12.938 22.027.311.275 1.199 1.73 1.974 3.233.774 1.504 2.219 2.991 3.21 3.306 1.868.593 5.878-1.029 5.878-2.378 0-.422-2.696-5.329-5.992-10.903-5.719-9.673-6.658-13.258-3.472-13.258.726 0 1.916-.588 2.643-1.306 3.368-3.329 6.613-2.077 8.287 3.199.368 1.159 1.088 2.107 1.601 2.107.513 0 .933.643.933 1.429 0 .785.588 2.023 1.306 2.75.718.726 1.593 2.079 1.943 3.006 1.119 2.956 4.055 3.848 6.525 1.984 2.162-1.632 2.173-1.751.51-5.419-.935-2.062-2.057-3.75-2.492-3.75-.436 0-.792-.643-.792-1.429 0-.785-.562-2.043-1.25-2.795-.687-.752-1.997-2.776-2.911-4.497-1.548-2.917-1.548-3.229 0-4.576.914-.795 2.731-2 4.038-2.678 2.721-1.41 1.952-2.22 8.676 9.14 5.845 9.874 6.478 10.387 10.348 8.386 2.765-1.43 2.941-1.804 1.912-4.063-.624-1.368-1.463-2.488-1.865-2.488-.402 0-1.014-1.125-1.359-2.5s-1.069-2.5-1.608-2.5c-.54 0-.981-.643-.981-1.429 0-.785-.562-2.042-1.25-2.792-1.472-1.606-2.859-3.822-5.808-9.279-1.977-3.659-3.645-5.499-4.942-5.451-.275.01-6.35 3.558-13.5 7.885M518 271.533c-4.749 2.553-10.75 9.985-14.105 17.467a132.167 132.167 0 01-2.397 5c-1.824 3.573-7.179 20.765-7.943 25.5-.354 2.2-.827 4.9-1.05 6-.508 2.509-1.356 7.801-2.082 13-.307 2.2-.802 9.554-1.099 16.342l-.54 12.342 11.858-.34 11.858-.339.053-20.003c.054-20.487.428-25.449 2.918-38.749 1.443-7.713 5.557-18.686 8.897-23.732 3.207-4.846 9.305-11.021 10.885-11.021 2.464 0-.559-1.407-3.454-1.607-1.729-.12-4.979-.44-7.222-.711-2.428-.294-5.088.05-6.577.851m116 269.435c-13.782 1.747-18.999 2.941-23.5 5.378-1.1.596-2.262 1.099-2.583 1.119-.557.033-7.046 3.618-14.788 8.168-1.996 1.174-5.879 3.301-8.629 4.729-2.75 1.427-6.575 3.576-8.5 4.774-1.925 1.199-6.425 3.73-10 5.624-3.575 1.895-7.21 4.074-8.079 4.843-.868.768-1.865 1.397-2.215 1.397-.64 0-10.731 5.586-17.549 9.715-2.011 1.218-5.007 2.869-6.657 3.669-2.87 1.391-8.484 4.588-16.349 9.307-2.008 1.205-5.338 2.942-7.401 3.859-2.062.917-3.75 2.068-3.75 2.559 0 .49-.435.891-.966.891-.531 0-5.492 2.587-11.024 5.75-5.532 3.163-11.735 6.591-13.784 7.618-2.049 1.027-3.951 2.152-4.226 2.5-.275.348-2.075 1.429-4 2.403-1.925.974-5.3 2.856-7.5 4.181-2.2 1.326-5.35 3.107-7 3.959-1.65.852-3.675 1.981-4.5 2.509-2.654 1.7-21.97 12.518-25.796 14.448-2.037 1.027-3.929 2.152-4.204 2.5-.275.348-3.875 2.396-8 4.551-4.125 2.155-7.725 4.19-8 4.52-.275.331-1.625 1.152-3 1.824-1.375.672-3.175 1.651-4 2.175-.825.523-4.582 2.664-8.348 4.757-3.767 2.093-8.492 4.791-10.5 5.996-2.009 1.205-5.339 2.942-7.402 3.859-2.062.917-3.75 2.068-3.75 2.559 0 .49-.489.891-1.088.891-.986 0-8.14 3.907-17.76 9.699-2.009 1.209-4.625 2.645-5.814 3.191-2.046.94-9.06 4.942-17.177 9.801-2.014 1.205-5.348 2.942-7.411 3.859-2.063.917-3.75 2.068-3.75 2.559 0 .49-.489.891-1.088.891-.986 0-8.14 3.907-17.76 9.699-2.009 1.209-4.625 2.645-5.814 3.191-1.975.908-7.567 4.09-17.177 9.776-2.014 1.191-5.461 3.069-7.661 4.173-2.2 1.104-7.375 4.047-11.5 6.54-4.125 2.492-9.187 5.275-11.25 6.185-2.062.909-3.75 2.054-3.75 2.545 0 .49-.562.9-1.25.911-.687.01-4.175 1.795-7.75 3.966-3.575 2.171-8.187 4.686-10.25 5.589-2.062.903-3.75 2.043-3.75 2.534 0 .49-.495.891-1.1.891-.879 0-10.533 5.283-21.9 11.984-.825.487-4.953 2.784-9.174 5.106-7.437 4.091-7.773 4.439-10.924 11.316-1.788 3.901-4.363 8.791-5.723 10.864-1.359 2.074-2.211 4.032-1.892 4.351.476.475 14.527-7.281 38.529-21.268a212.803 212.803 0 017.906-4.326c2.322-1.198 5.697-3.161 7.5-4.362s4.403-2.751 5.778-3.444c1.375-.693 4.3-2.355 6.5-3.693s4.675-2.755 5.5-3.15c3.611-1.726 38.549-21.821 39-22.432.275-.372 1.51-.992 2.744-1.377 1.234-.385 2.825-1.233 3.536-1.885 1.635-1.499 6.204-4.175 10.72-6.279 1.925-.896 3.725-1.926 4-2.288.275-.362 1.625-1.22 3-1.907s4.3-2.335 6.5-3.661 5.35-3.121 7-3.987c1.65-.867 4.8-2.667 7-4 2.2-1.334 5.35-3.121 7-3.973 1.65-.852 3.675-1.988 4.5-2.524.825-.536 5.325-3.108 10-5.715 4.675-2.607 8.725-4.997 9-5.31.275-.314 3.425-2.078 7-3.921s6.725-3.636 7-3.985c.667-.846 5.671-3.713 10-5.729 1.925-.896 3.725-1.926 4-2.288.275-.362 1.625-1.22 3-1.907s4.3-2.335 6.5-3.661 5.35-3.121 7-3.987c1.65-.867 4.8-2.656 7-3.975 5.353-3.211 9.284-5.462 13.5-7.732 1.925-1.036 4.175-2.309 5-2.828.825-.52 6.9-3.974 13.5-7.678 6.6-3.703 12.225-6.993 12.5-7.311.275-.318 1.625-1.141 3-1.828s4.3-2.335 6.5-3.661 5.559-3.135 7.465-4.019c1.906-.884 3.706-1.937 4-2.339.294-.403 1.66-1.294 3.035-1.981 1.375-.687 4.3-2.344 6.5-3.682s4.675-2.756 5.5-3.15c1.582-.757 9.676-5.386 15.839-9.059 2.014-1.2 5.011-2.855 6.661-3.679 1.65-.823 6.375-3.543 10.5-6.043 4.125-2.501 8.737-5.052 10.25-5.67 1.513-.617 2.75-1.529 2.75-2.025s.499-.902 1.11-.902c1.392 0 35.269-19.187 35.723-20.232.184-.423.819-.768 1.412-.768.594 0 3.144-1.218 5.667-2.707 5.163-3.047 16.455-7.186 19.779-7.251 1.205-.023 2.43-.428 2.721-.9.639-1.033 15.204-3.497 16.38-2.771.454.281 5.736.595 11.736.699 6.001.103 11.599.534 12.441.959.842.424 4.676 2.038 8.519 3.585 7.274 2.929 9.196 4.226 16.127 10.886 3.619 3.477 10.17 14.289 11.248 18.561.199.792.75 2.744 1.223 4.339.763 2.571.459 26.601-.563 44.6-.203 3.575-.635 12.125-.96 19-.324 6.875-.818 17.225-1.098 23-.592 12.251-1.286 27.039-1.992 42.5-.277 6.05-.731 15.725-1.009 21.5a16388.7 16388.7 0 00-.998 21c-.471 10.09-.67 14.3-1.981 42-.326 6.875-.769 15.572-.985 19.326-.216 3.754.108 8.029.72 9.5s1.153 2.899 1.202 3.174c.049.275 1.094 2.118 2.321 4.097 1.901 3.066 9.993 9.37 12.087 9.418.369.009 1.201.353 1.85.766 2.256 1.435 12.001 1.923 44.242 2.22 23.412.215 32.763-.022 33.649-.852.675-.632 2.919-2.499 4.986-4.149 2.068-1.65 4.783-3.9 6.033-5s3.961-3.35 6.024-5c2.064-1.65 5.357-4.512 7.319-6.361l3.567-3.36-9 .66c-4.95.363-19.89.669-33.2.679-22.15.018-24.587-.151-28.777-2.005-4.561-2.017-8.781-6.128-11.325-11.033-.736-1.419-1.307-2.692-1.268-2.83a1.07 1.07 0 00-.004-.5c-1.514-5.093-1.608-10.429-.576-32.75.394-8.525.909-20 1.144-25.5.558-13.024 1.428-32.444 2.015-45 .257-5.5.723-16.075 1.036-23.5.313-7.425.738-17.325.944-22 .207-4.675.691-16.6 1.075-26.5.385-9.9.794-19.8.909-22 1.893-36.113 1.837-39.808-.713-47.139-1.351-3.886-4.134-9.592-6.184-12.68C699.534 568.591 684.665 554 682.5 554c-.733 0-1.483-.348-1.667-.774-.551-1.279-13.897-7.831-20.561-10.094-7.35-2.495-17.238-3.31-26.272-2.164M306.827 770.644c-1.393 1.61-4.474 7.413-14.206 26.751-3.233 6.424-5.708 11.776-5.5 11.893 6.91 3.868 6.257 3.839 8.579.389 1.176-1.747 3.458-5.877 5.071-9.177 1.614-3.3 4.149-8.025 5.634-10.5l2.701-4.5-.485 3.5c-.267 1.925-.734 4.4-1.038 5.5-.304 1.1-1.211 4.7-2.016 8-1.293 5.301-1.882 7.976-2.959 13.462-.158.804 1.103 2.213 2.802 3.132 2.652 1.434 3.459 1.482 5.692.34 1.43-.733 3.28-2.367 4.111-3.633.83-1.265 3.49-4.326 5.91-6.801 2.421-2.475 5.309-5.625 6.42-7 1.11-1.375 3.102-3.4 4.427-4.5l2.408-2-2.066 3c-1.137 1.65-4.787 8.436-8.112 15.08l-6.045 12.08 2.827 1.67c1.555.919 3.481 1.67 4.28 1.67.838 0 3.242-3.703 5.68-8.75 2.324-4.812 6.842-13.688 10.039-19.723 6.56-12.384 6.587-12.163-1.98-16.026l-4.091-1.845-4.323 4.422c-2.378 2.432-6.252 6.672-8.608 9.422-2.357 2.75-5.161 5.619-6.231 6.376-1.836 1.298-1.914 1.186-1.395-2 .303-1.857.988-5.176 1.523-7.376.535-2.2 1.214-5.35 1.508-7 .295-1.65.976-4.775 1.515-6.945 1.141-4.599.945-5.067-2.956-7.084-6.016-3.112-7.711-3.451-9.116-1.827m58.065 28.794c-4.66 1.452-5.994 2.428-9.664 7.067-3.238 4.093-7.159 14.097-7.203 18.379-.107 10.32 8.909 19.691 20.002 20.79 10.099 1 18.261-3.735 23.123-13.418 4.903-9.763 3.498-20.666-3.466-26.91-1.751-1.569-4.534-3.463-6.184-4.207-4.576-2.065-12.754-2.902-16.608-1.701m235.608 5.065c-2.2.778-5.687 3.216-7.75 5.417-3.26 3.48-3.75 4.632-3.75 8.819 0 2.649.661 5.759 1.468 6.912 1.551 2.214 7.959 4.241 15.532 4.913 9.651.857 12.117 1.578 12.932 3.78 1.712 4.63-4.63 9.264-11.425 8.348-3.245-.437-6.388-2.845-6.475-4.962-.041-.977-4.207-.242-6.95 1.226-1.949 1.043-1.992 1.317-.624 3.963 2.053 3.97 7.189 8.051 10.369 8.239 12.455.739 25.173-6.945 25.173-15.207 0-1.199-1.184-4.355-2.63-7.013-3.158-5.803-5.513-6.83-17.327-7.564-11.558-.717-14.643-2.711-10.291-6.649 3.474-3.145 7.088-3.858 10.554-2.082 1.757.9 3.496 2.105 3.865 2.678.964 1.497 8.705-.962 8.452-2.684-.401-2.735-3.58-6.389-6.949-7.988-4.203-1.994-8.816-2.042-14.174-.146m-234.114 4.082c-5.81 3.793-7.823 7.639-7.858 15.008-.035 7.602 1.658 10.864 6.683 12.875 9.749 3.901 20.7-6.073 19.259-17.541-.616-4.9-1.47-6.671-4.628-9.596-3.902-3.614-8.661-3.878-13.456-.746m44.282 3.066c-.292 1.017-1.001 4.324-1.576 7.349-1.164 6.122-1.947 10.096-3.597 18.247-.25 1.239-1.179 5.551-2.062 9.583-.884 4.031-1.38 7.556-1.103 7.834.278.277 2.281.742 4.452 1.034l3.947.529 1.626-6.864c.894-3.774 1.847-7.988 2.118-9.363.271-1.375 1.42-6.775 2.553-12 2.694-12.42 3.104-16.628 1.64-16.817-.641-.082-2.584-.427-4.317-.765-2.524-.493-3.257-.248-3.681 1.233m155.647.356c-2.46.991-2.46 1.084.084 25.171.3 2.836.069 3.555-1.005 3.143-.767-.294-1.394-.896-1.394-1.336 0-.693-7.514-10.434-10.472-13.577-.566-.6-2.153-2.587-3.528-4.415-5.557-7.389-5.189-7.146-9.726-6.421l-4.223.676.44 4.126c.241 2.269.664 6.151.939 8.626.474 4.261.875 7.893 2.155 19.5.303 2.75.707 6.524.896 8.387.394 3.86 1.52 4.855 5.335 4.713 2.635-.098 2.683-.219 2.605-6.6-.043-3.575-.405-10.1-.804-14.5-.421-4.655-.354-7.582.16-7 .487.55 3.757 4.6 7.268 9 3.51 4.4 6.627 8.225 6.925 8.5.298.275 1.791 2.177 3.319 4.227 2.539 3.407 3.125 3.694 6.824 3.337 2.225-.214 4.244-.588 4.487-.831.243-.242-.008-4.669-.556-9.837-.549-5.168-1.241-12.546-1.538-16.396-1.528-19.83-2.035-20.973-8.191-18.493m-133.49 7.381c-.195 5.142-.369 7.41-1.239 16.112-.329 3.3-.862 9.825-1.183 14.5-.321 4.675-.656 8.939-.744 9.474-.087.536 1.951 1.102 4.529 1.257 3.914.236 4.688-.008 4.684-1.474-.01-3.127 1.173-14.719 1.635-16.032.5-1.419 5.026-.715 7.379 1.148 1.78 1.409 6.082 8.079 8.255 12.799 2.16 4.69 5.263 6.638 10.633 6.674l4.273.029-1.909-2.687c-1.05-1.479-2.656-4.488-3.569-6.688-.913-2.2-2.989-5.661-4.614-7.691-3.5-4.373-3.585-4.809-.94-4.809 1.108 0 3.683-1.529 5.722-3.398 3.402-3.118 3.707-3.843 3.707-8.816 0-4.634-.43-5.876-2.972-8.578-1.987-2.112-4.298-3.366-6.972-3.783-2.2-.342-4.248-.775-4.552-.961-.304-.185-5.366-.641-11.25-1.013L433 814.776l-.175 4.612m63.778.059c-.352 1.399-.518 2.702-.371 2.895.147.193-.235.982-.85 1.754-.913 1.148-4.65 11.077-4.856 12.904-.031.275-.414 1.063-.85 1.75-.437.688-.487 1.25-.113 1.25.375 0 .237.563-.307 1.25-.799 1.009-5.184 13.021-5.841 16-.091.413-.278.975-.415 1.25-.137.275-.313.837-.39 1.25-.077.413-.5 1.316-.939 2.007-1.062 1.673 1.172 2.456 5.875 2.06 3.535-.298 3.837-.595 5.121-5.018.751-2.585 1.791-4.964 2.311-5.285.52-.322 4.72-.779 9.333-1.016 9.214-.473 8.471-.908 11.543 6.752.998 2.488 1.581 2.75 6.125 2.75 2.761 0 5.021-.145 5.021-.323 0-.177-1.35-3.109-3-6.516-1.65-3.406-3-6.687-3-7.291 0-.604-.839-2.734-1.865-4.734s-4.082-8.586-6.792-14.636l-4.927-11-5.087-.298c-4.725-.277-5.134-.117-5.726 2.245m-54.673 4.784c-.565 10.204-.56 10.226 2.444 10.76 1.577.28 5.485.358 8.686.173 5.48-.316 5.855-.502 6.446-3.191 1.067-4.861-.77-6.749-7.252-7.453-3.165-.344-6.766-.835-8.004-1.092-1.378-.285-2.277.026-2.32.803m59.945 5.269c-.069.275-.188.837-.265 1.25-.077.413-.498 1.313-.934 2-.437.688-.487 1.25-.113 1.25.375 0 .122.675-.563 1.5-.685.825-.91 1.5-.5 1.5.41 0 .319.563-.201 1.25-.52.688-.913 2.375-.872 3.75.068 2.34.409 2.5 5.323 2.5 2.887 0 5.249-.36 5.25-.8 0-.439-.684-2.122-1.52-3.739s-1.502-3.174-1.48-3.461c.022-.287-.626-1.809-1.44-3.384-.814-1.574-1.198-3.144-.853-3.489.344-.345.101-.627-.54-.627-.642 0-1.223.225-1.292.5" fill="undefined" fill-rule="evenodd"/></svg>