<svg id="svg" version="1.1" xmlns="http://www.w3.org/2000/svg" xmlns:xlink="http://www.w3.org/1999/xlink" width="400" height="400" viewBox="0, 0, 400,400"><g id="svgg"><path id="path0" d="M201.545 42.845 C 201.190 47.812,200.949 51.926,201.011 51.988 C 201.184 52.160,214.601 53.090,214.751 52.940 C 214.824 52.867,214.915 52.179,214.954 51.409 L 215.025 50.011 213.708 49.894 C 212.984 49.829,210.772 49.670,208.791 49.540 C 206.811 49.411,205.103 49.250,204.996 49.184 C 204.830 49.082,205.059 44.406,205.236 44.281 C 205.283 44.249,210.587 44.629,213.090 44.845 L 214.364 44.955 214.501 43.501 C 214.673 41.661,215.106 41.854,209.982 41.490 C 207.555 41.318,205.536 41.141,205.494 41.098 C 205.379 40.976,205.606 37.527,205.744 37.303 C 205.826 37.171,207.434 37.222,210.666 37.458 C 213.306 37.651,215.494 37.783,215.527 37.751 C 215.913 37.387,215.761 34.785,215.349 34.698 C 214.787 34.578,204.052 33.811,202.969 33.812 L 202.191 33.814 201.545 42.845 M169.554 36.338 C 166.175 36.970,163.371 37.526,163.322 37.575 C 163.195 37.702,166.396 55.200,166.584 55.406 C 166.709 55.543,179.939 53.309,180.180 53.110 C 180.387 52.939,179.745 50.144,179.498 50.144 C 179.347 50.144,177.096 50.533,174.496 51.008 C 171.897 51.483,169.727 51.827,169.673 51.774 C 169.501 51.601,168.735 47.171,168.856 47.044 C 168.920 46.977,170.906 46.571,173.269 46.142 C 175.632 45.713,177.611 45.316,177.667 45.259 C 177.749 45.177,177.342 42.267,177.249 42.267 C 177.234 42.267,175.325 42.613,173.007 43.036 C 170.688 43.458,168.645 43.804,168.467 43.804 C 168.095 43.804,167.339 40.256,167.650 39.973 C 167.743 39.888,169.894 39.450,172.430 38.999 C 177.877 38.031,177.220 38.378,176.935 36.615 C 176.648 34.833,177.451 34.863,169.554 36.338 M228.520 37.920 C 226.101 39.046,225.070 41.870,226.197 44.284 C 226.899 45.789,227.931 46.589,232.121 48.873 C 236.255 51.127,233.477 54.784,229.100 52.850 C 227.745 52.251,227.212 51.376,227.044 49.472 C 226.996 48.921,226.937 48.885,225.744 48.676 C 223.204 48.229,223.075 48.341,223.445 50.672 C 224.446 56.970,234.983 58.972,237.473 53.338 C 239.016 49.845,237.739 47.689,232.391 44.755 C 229.961 43.421,229.395 42.903,229.395 42.012 C 229.395 39.291,234.698 40.308,235.428 43.168 L 235.661 44.080 237.283 44.414 C 238.175 44.597,238.981 44.751,239.074 44.756 C 239.476 44.777,239.075 41.755,238.558 40.872 C 236.949 38.126,231.511 36.527,228.520 37.920 M142.507 44.040 C 141.583 44.351,140.826 44.665,140.826 44.739 C 140.826 44.902,146.762 61.715,146.851 61.804 C 146.885 61.839,149.640 60.902,152.973 59.724 L 159.032 57.580 158.557 56.168 C 157.984 54.463,158.536 54.458,153.565 56.216 C 151.293 57.019,149.371 57.603,149.293 57.513 C 149.215 57.422,148.090 54.323,146.794 50.624 C 145.497 46.926,144.381 43.805,144.313 43.688 C 144.227 43.543,143.659 43.654,142.507 44.040 M253.529 45.555 C 249.485 46.504,246.114 51.670,246.339 56.572 C 246.647 63.279,254.908 66.766,259.620 62.177 C 260.727 61.099,260.750 61.206,259.104 59.785 L 257.784 58.646 257.122 59.379 C 255.040 61.683,251.720 61.282,250.319 58.557 C 249.053 56.097,251.363 50.200,254.075 48.968 C 256.697 47.777,259.923 49.754,259.938 52.562 L 259.942 53.346 261.707 53.663 C 263.800 54.040,263.675 54.119,263.648 52.425 C 263.580 48.004,258.317 44.431,253.529 45.555 M126.277 51.298 C 119.026 52.815,117.008 61.225,122.461 67.198 C 127.504 72.721,136.686 69.775,136.693 62.632 C 136.696 60.261,136.638 60.126,135.700 60.327 C 135.296 60.414,134.487 60.582,133.901 60.700 L 132.835 60.914 133.013 62.013 C 133.598 65.634,129.950 68.075,126.833 66.148 C 124.489 64.698,122.330 60.125,122.930 57.880 C 123.703 54.991,127.167 53.663,129.285 55.445 C 129.964 56.017,129.985 56.009,131.575 54.530 L 132.746 53.440 132.040 52.820 C 130.570 51.530,128.182 50.899,126.277 51.298 M270.701 62.299 C 268.007 66.442,265.802 69.942,265.802 70.075 C 265.802 70.209,266.451 70.736,267.243 71.247 L 268.684 72.176 270.744 69.037 C 273.044 65.533,272.868 65.669,273.991 66.525 C 275.502 67.678,275.568 67.914,275.687 72.641 L 275.793 76.815 277.575 77.985 C 278.555 78.628,279.407 79.155,279.467 79.155 C 279.809 79.155,279.407 70.958,279.017 69.981 C 278.796 69.426,278.640 68.972,278.669 68.972 C 278.699 68.972,279.034 69.102,279.413 69.260 C 284.489 71.381,288.611 64.639,284.557 60.847 C 283.822 60.159,275.873 54.732,275.642 54.760 C 275.619 54.763,273.396 58.155,270.701 62.299 M282.013 62.934 C 283.073 64.281,281.954 66.448,280.188 66.468 C 279.664 66.474,276.965 64.996,274.925 63.586 L 274.498 63.291 275.781 61.333 L 277.065 59.374 279.335 60.895 C 280.584 61.732,281.789 62.650,282.013 62.934 M104.204 65.611 C 103.119 66.164,97.083 70.776,95.813 72.023 C 95.521 72.310,104.381 83.991,106.791 86.498 C 106.968 86.682,109.612 84.555,109.584 84.251 C 109.572 84.120,108.539 82.737,107.289 81.177 L 105.015 78.342 105.678 77.792 C 107.383 76.375,107.713 76.388,113.178 78.094 L 116.365 79.089 118.040 77.750 C 118.961 77.013,119.645 76.344,119.560 76.262 C 118.991 75.718,112.779 73.914,111.403 73.893 C 110.480 73.880,109.976 73.800,110.047 73.679 C 110.110 73.573,110.396 73.161,110.682 72.763 C 113.654 68.629,108.801 63.271,104.204 65.611 M106.932 68.950 C 107.867 69.521,108.287 70.592,107.953 71.556 C 107.693 72.304,103.823 75.869,103.254 75.883 C 102.650 75.899,100.230 72.380,100.628 72.067 C 105.399 68.306,105.663 68.176,106.932 68.950 M290.869 76.737 C 287.655 80.480,284.999 83.621,284.966 83.717 C 284.934 83.814,285.509 84.427,286.243 85.079 L 287.578 86.266 293.549 79.321 C 296.833 75.501,299.514 72.324,299.507 72.259 C 299.493 72.135,296.922 69.933,296.790 69.933 C 296.747 69.933,294.083 72.995,290.869 76.737 M300.913 85.893 C 297.188 89.165,294.143 91.906,294.147 91.983 C 294.150 92.060,294.647 92.665,295.251 93.328 L 296.350 94.532 301.606 89.917 C 304.497 87.379,306.892 85.303,306.928 85.303 C 306.964 85.303,305.135 87.985,302.863 91.264 C 298.172 98.033,298.504 97.060,300.216 99.004 C 301.192 100.112,300.150 100.447,307.583 96.638 C 311.089 94.841,314.000 93.372,314.052 93.372 C 314.104 93.372,311.763 95.457,308.850 98.006 C 305.938 100.555,303.557 102.695,303.561 102.761 C 303.564 102.828,304.061 103.426,304.665 104.091 L 305.764 105.301 312.584 99.333 C 316.335 96.050,319.426 93.300,319.453 93.221 C 319.519 93.029,316.015 89.037,315.829 89.093 C 315.749 89.117,313.166 90.392,310.088 91.927 C 307.011 93.461,304.457 94.717,304.412 94.717 C 304.367 94.717,305.935 92.337,307.895 89.429 C 309.856 86.521,311.431 84.053,311.395 83.945 C 311.276 83.588,308.073 79.947,307.877 79.945 C 307.771 79.944,304.637 82.620,300.913 85.893 M82.517 85.349 C 80.086 88.093,78.098 90.409,78.098 90.496 C 78.098 90.684,91.456 102.594,91.667 102.594 C 91.890 102.594,100.906 92.433,100.833 92.264 C 100.748 92.068,98.836 90.298,98.709 90.298 C 98.654 90.298,97.111 91.984,95.278 94.044 C 93.446 96.105,91.898 97.791,91.839 97.791 C 91.623 97.791,88.173 94.655,88.226 94.507 C 88.256 94.424,89.605 92.877,91.224 91.071 C 92.843 89.264,94.140 87.723,94.106 87.645 C 94.018 87.446,92.105 85.687,91.976 85.687 C 91.917 85.687,90.517 87.200,88.865 89.049 C 87.213 90.898,85.800 92.407,85.726 92.403 C 85.652 92.398,84.949 91.804,84.165 91.083 L 82.739 89.771 86.042 86.081 L 89.345 82.391 88.354 81.493 C 87.809 81.000,87.267 80.543,87.149 80.478 C 87.028 80.412,85.014 82.530,82.517 85.349 M70.649 102.279 C 62.786 105.594,64.379 116.250,73.188 119.253 C 80.632 121.791,87.262 113.407,82.713 107.210 L 82.002 106.242 81.491 106.614 C 81.210 106.818,80.550 107.367,80.025 107.834 L 79.071 108.683 79.622 109.337 C 81.968 112.118,80.169 116.226,76.603 116.233 C 74.373 116.238,70.179 113.563,69.235 111.535 C 67.843 108.546,70.040 105.299,73.309 105.513 L 74.212 105.572 74.762 103.948 C 75.120 102.891,75.246 102.259,75.124 102.137 C 74.684 101.696,71.814 101.787,70.649 102.279 M318.516 107.724 L 310.711 112.443 314.241 118.325 C 318.263 125.028,317.803 124.546,319.306 123.632 C 320.731 122.767,320.907 123.417,317.878 118.364 L 315.297 114.058 316.870 113.103 C 317.736 112.578,318.699 111.993,319.011 111.804 L 319.578 111.459 321.826 115.211 C 324.596 119.836,324.198 119.488,325.671 118.575 C 327.152 117.658,327.264 118.158,324.596 113.776 C 323.378 111.777,322.382 110.054,322.382 109.946 C 322.382 109.761,325.642 107.707,325.751 107.823 C 325.779 107.853,326.860 109.649,328.154 111.816 C 331.118 116.781,330.673 116.385,332.235 115.449 L 333.532 114.672 333.097 113.947 C 332.857 113.549,331.279 110.917,329.589 108.100 C 327.899 105.283,326.473 102.984,326.419 102.992 C 326.365 103.000,322.809 105.129,318.516 107.724 M226.556 103.631 C 224.224 104.398,223.684 106.425,225.571 107.330 C 225.825 107.452,227.416 107.994,229.107 108.536 C 238.318 111.485,243.891 116.150,244.854 121.715 C 246.918 133.649,242.997 141.911,232.373 148.018 C 222.350 153.778,219.947 160.490,225.834 166.277 C 229.429 169.809,237.305 172.230,239.418 170.452 C 242.081 168.211,240.378 164.815,236.183 164.003 C 225.552 161.946,226.805 157.122,239.726 150.353 C 254.471 142.629,260.548 133.064,257.130 122.959 C 254.194 114.279,247.710 107.912,238.959 105.117 C 234.524 103.700,228.527 102.981,226.556 103.631 M207.012 108.727 C 200.740 112.372,195.591 128.845,195.582 145.296 L 195.581 146.789 200.332 146.737 L 205.082 146.686 204.991 145.053 C 203.956 126.598,207.084 113.591,213.545 109.479 C 214.179 109.075,214.568 108.743,214.409 108.740 C 214.251 108.736,212.954 108.608,211.527 108.453 C 208.104 108.083,208.122 108.082,207.012 108.727 M346.590 141.898 C 326.988 151.448,310.901 159.264,310.839 159.266 C 310.778 159.268,310.882 158.124,311.071 156.724 C 311.889 150.655,312.450 145.816,312.348 145.713 C 312.287 145.653,310.720 146.704,308.866 148.051 L 305.495 150.499 305.399 151.474 C 305.346 152.011,305.208 154.179,305.091 156.292 C 304.975 158.405,304.830 160.626,304.768 161.226 L 304.655 162.318 225.634 200.804 L 146.613 239.289 142.192 246.871 C 139.760 251.041,137.800 254.483,137.837 254.519 C 137.873 254.556,175.185 235.816,220.753 212.876 C 266.320 189.935,303.631 171.194,303.665 171.228 C 304.381 171.945,300.142 188.777,298.343 192.358 C 298.039 192.962,297.791 193.505,297.791 193.564 C 297.791 193.624,298.802 193.648,300.039 193.618 L 302.288 193.564 302.814 192.795 C 304.560 190.245,306.728 182.555,308.634 172.151 C 309.011 170.096,309.384 168.353,309.463 168.279 C 309.542 168.204,326.463 159.657,347.067 149.285 C 367.670 138.913,384.546 130.408,384.569 130.385 C 384.614 130.340,382.389 124.686,382.290 124.592 C 382.256 124.560,366.191 132.348,346.590 141.898 M251.859 216.432 C 248.728 216.920,244.806 218.128,242.378 219.352 C 241.529 219.780,215.579 234.457,104.493 297.339 L 70.753 316.438 68.232 321.174 C 66.846 323.779,65.732 325.928,65.757 325.949 C 65.795 325.982,114.136 298.295,210.674 242.949 C 230.479 231.595,230.742 231.454,234.294 230.288 C 242.389 227.631,250.832 227.334,256.594 229.503 C 265.551 232.875,270.488 241.024,269.565 250.913 C 269.442 252.233,268.477 272.161,267.421 295.197 C 266.365 318.232,265.454 337.301,265.396 337.571 C 264.835 340.202,266.864 344.389,269.535 346.111 C 273.043 348.374,274.148 348.509,290.106 348.627 L 303.266 348.724 309.088 343.889 C 312.290 341.229,314.881 339.025,314.846 338.989 C 314.810 338.954,310.504 339.048,305.277 339.199 C 292.637 339.564,289.795 339.560,288.308 339.177 C 284.800 338.272,282.422 335.804,281.444 332.049 C 280.796 329.565,280.705 332.338,283.400 273.007 C 285.139 234.730,285.109 237.694,283.788 234.281 C 281.027 227.148,272.321 219.535,264.250 217.196 C 260.617 216.143,255.670 215.838,251.859 216.432 M118.798 315.513 L 114.560 323.628 116.022 324.431 C 117.244 325.103,117.518 325.190,117.696 324.962 C 117.813 324.812,119.282 322.056,120.962 318.837 C 122.641 315.617,124.038 313.048,124.066 313.127 C 124.093 313.206,123.380 316.329,122.481 320.067 C 121.581 323.805,120.845 326.892,120.845 326.926 C 120.845 327.166,123.985 328.522,124.176 328.364 C 124.299 328.262,126.475 325.844,129.011 322.991 C 131.547 320.138,133.644 317.826,133.671 317.853 C 133.698 317.880,132.293 320.630,130.549 323.964 C 128.805 327.298,127.378 330.100,127.380 330.190 C 127.382 330.380,130.215 331.907,130.333 331.782 C 130.590 331.511,138.710 315.745,138.664 315.608 C 138.633 315.515,137.547 314.891,136.251 314.220 L 133.894 313.001 129.627 317.679 C 127.280 320.252,125.337 322.294,125.309 322.217 C 125.281 322.140,125.869 319.366,126.616 316.053 C 127.362 312.740,127.904 309.964,127.819 309.885 C 127.642 309.720,123.261 307.397,123.126 307.397 C 123.076 307.397,121.129 311.049,118.798 315.513 M145.798 319.752 C 138.240 322.328,137.131 334.104,144.139 337.371 C 150.680 340.420,156.358 337.006,157.553 329.305 C 158.524 323.044,151.910 317.669,145.798 319.752 M240.869 321.723 C 235.640 322.989,233.627 327.382,236.808 330.583 C 238.136 331.919,239.011 332.159,243.205 332.339 C 247.387 332.519,248.248 333.044,247.587 335.015 C 246.646 337.821,241.477 337.985,240.342 335.245 C 240.208 334.922,240.003 334.692,239.886 334.733 C 236.761 335.840,236.685 335.878,236.808 336.291 C 238.806 342.982,251.379 341.175,251.369 334.198 C 251.363 330.244,249.346 328.825,243.356 328.558 C 239.598 328.391,238.972 328.189,238.843 327.106 C 238.564 324.759,243.703 323.704,244.927 325.856 C 245.309 326.527,245.423 326.532,247.262 325.966 C 248.943 325.448,249.002 325.325,248.214 323.957 C 246.941 321.747,244.205 320.914,240.869 321.723 M150.252 322.884 C 153.889 323.964,154.867 327.298,152.847 331.723 C 149.886 338.208,141.728 335.040,143.504 328.096 C 144.578 323.898,147.102 321.948,150.252 322.884 M164.457 324.017 C 164.457 324.093,163.636 328.035,162.632 332.777 C 161.628 337.519,160.807 341.516,160.807 341.659 C 160.807 341.902,163.161 342.555,164.034 342.555 C 164.466 342.555,168.273 324.909,167.892 324.673 C 167.769 324.597,167.140 324.433,166.495 324.309 C 165.850 324.185,165.127 324.037,164.890 323.981 C 164.652 323.924,164.457 323.940,164.457 324.017 M226.922 324.703 C 226.249 324.790,225.658 324.903,225.607 324.953 C 225.557 325.003,225.815 327.709,226.180 330.966 C 226.545 334.223,226.827 336.909,226.808 336.934 C 226.788 336.960,224.791 334.432,222.371 331.316 C 219.375 327.459,217.877 325.677,217.679 325.734 C 217.518 325.779,216.709 325.876,215.880 325.949 L 214.373 326.081 214.482 326.873 C 214.542 327.309,214.988 331.297,215.475 335.735 C 216.532 345.392,216.222 344.427,218.204 344.220 C 220.107 344.020,219.986 344.790,219.200 337.898 C 218.876 335.058,218.641 332.644,218.678 332.534 C 218.715 332.423,220.644 334.761,222.965 337.729 C 226.823 342.662,227.235 343.125,227.762 343.125 C 228.474 343.124,230.749 342.802,230.866 342.686 C 231.196 342.355,228.909 324.497,228.539 324.520 C 228.323 324.533,227.595 324.616,226.922 324.703 M173.410 326.251 C 173.251 327.006,171.767 343.974,171.853 344.059 C 171.979 344.185,175.269 344.488,175.374 344.383 C 175.444 344.313,176.112 338.047,176.169 336.924 C 176.180 336.712,177.833 336.968,178.722 337.318 C 179.567 337.651,179.986 338.250,182.216 342.316 C 183.973 345.518,183.574 345.239,186.780 345.516 L 188.258 345.643 186.796 342.802 C 185.087 339.480,184.551 338.649,183.516 337.714 L 182.753 337.025 183.852 336.809 C 187.804 336.031,189.350 331.192,186.564 328.320 C 185.418 327.138,184.530 326.880,180.019 326.420 C 173.177 325.723,173.519 325.732,173.410 326.251 M200.866 326.755 C 199.916 326.789,199.077 326.879,199.002 326.954 C 198.927 327.029,197.467 331.110,195.757 336.023 C 194.048 340.937,192.607 345.068,192.555 345.204 C 192.481 345.398,192.890 345.439,194.446 345.396 L 196.430 345.341 197.052 343.343 C 197.830 340.845,197.375 341.086,201.564 340.955 L 205.146 340.844 205.991 342.878 L 206.837 344.912 208.842 344.874 C 209.944 344.854,210.860 344.821,210.876 344.801 C 210.957 344.702,202.871 326.707,202.743 326.700 C 202.661 326.696,201.816 326.720,200.866 326.755 M179.746 329.503 C 180.900 329.616,182.164 329.791,182.555 329.892 C 184.690 330.446,184.545 333.812,182.368 334.220 C 181.803 334.326,176.533 333.999,176.460 333.853 C 176.450 333.831,176.525 332.798,176.627 331.556 C 176.842 328.942,176.475 329.184,179.746 329.503 M202.456 334.493 L 203.777 337.656 202.897 337.783 C 200.658 338.107,198.810 337.980,198.958 337.512 C 200.234 333.476,201.000 331.196,201.061 331.256 C 201.102 331.297,201.730 332.754,202.456 334.493 " stroke="none" fill="#fcfafa" fill-rule="evenodd"></path><path id="path1" d="M193.180 2.803 C 192.546 2.841,190.384 2.964,188.377 3.077 C 85.129 8.897,3.760 95.436,3.760 199.424 C 3.760 318.973,109.424 410.840,227.811 394.220 C 343.308 378.007,419.473 264.967,391.232 151.681 C 389.532 144.861,385.296 131.309,384.639 130.589 C 384.524 130.463,309.882 167.884,309.463 168.279 C 309.384 168.353,309.011 170.096,308.634 172.151 C 306.728 182.555,304.560 190.245,302.814 192.795 L 302.288 193.564 300.039 193.618 C 298.802 193.648,297.791 193.624,297.791 193.564 C 297.791 193.505,298.039 192.962,298.343 192.358 C 300.142 188.777,304.381 171.945,303.665 171.228 C 303.631 171.194,266.320 189.935,220.753 212.876 C 175.185 235.816,137.873 254.556,137.837 254.519 C 137.800 254.483,139.760 251.041,142.192 246.871 L 146.613 239.289 225.634 200.804 L 304.655 162.318 304.768 161.226 C 304.830 160.626,304.975 158.405,305.091 156.292 C 305.208 154.179,305.346 152.011,305.399 151.474 L 305.495 150.499 308.866 148.051 C 310.720 146.704,312.287 145.653,312.348 145.713 C 312.450 145.816,311.889 150.655,311.071 156.724 C 310.882 158.124,310.769 159.270,310.820 159.270 C 310.964 159.270,382.020 124.662,382.162 124.523 C 382.437 124.253,377.447 113.404,374.459 107.775 C 342.077 46.782,281.990 7.847,212.872 3.068 C 209.939 2.865,195.426 2.670,193.180 2.803 M209.318 34.206 C 216.572 34.719,215.832 34.483,215.698 36.244 C 215.638 37.041,215.561 37.719,215.527 37.751 C 215.494 37.783,213.306 37.651,210.666 37.458 C 207.434 37.222,205.826 37.171,205.744 37.303 C 205.606 37.527,205.379 40.976,205.494 41.098 C 205.536 41.141,207.555 41.318,209.982 41.490 C 215.106 41.854,214.673 41.661,214.501 43.501 L 214.364 44.955 213.090 44.845 C 210.587 44.629,205.283 44.249,205.236 44.281 C 205.059 44.406,204.830 49.082,204.996 49.184 C 205.103 49.250,206.811 49.411,208.791 49.540 C 210.772 49.670,212.984 49.829,213.708 49.894 L 215.025 50.011 214.954 51.409 C 214.915 52.179,214.824 52.867,214.751 52.940 C 214.601 53.090,201.184 52.160,201.011 51.988 C 200.949 51.926,201.190 47.812,201.545 42.845 L 202.191 33.814 202.969 33.812 C 203.396 33.812,206.254 33.989,209.318 34.206 M176.935 36.615 C 177.220 38.378,177.877 38.031,172.430 38.999 C 169.894 39.450,167.743 39.888,167.650 39.973 C 167.339 40.256,168.095 43.804,168.467 43.804 C 168.645 43.804,170.688 43.458,173.007 43.036 C 175.325 42.613,177.234 42.267,177.249 42.267 C 177.342 42.267,177.749 45.177,177.667 45.259 C 177.611 45.316,175.632 45.713,173.269 46.142 C 170.906 46.571,168.920 46.977,168.856 47.044 C 168.735 47.171,169.501 51.601,169.673 51.774 C 169.727 51.827,171.897 51.483,174.496 51.008 C 177.096 50.533,179.347 50.144,179.498 50.144 C 179.745 50.144,180.387 52.939,180.180 53.110 C 179.939 53.309,166.709 55.543,166.584 55.406 C 166.396 55.200,163.195 37.702,163.322 37.575 C 163.442 37.455,175.564 35.195,176.198 35.175 C 176.677 35.159,176.711 35.226,176.935 36.615 M233.725 37.761 C 237.362 38.705,238.987 40.349,239.155 43.253 C 239.203 44.085,239.167 44.761,239.074 44.756 C 238.981 44.751,238.175 44.597,237.283 44.414 L 235.661 44.080 235.428 43.168 C 234.698 40.308,229.395 39.291,229.395 42.012 C 229.395 42.903,229.961 43.421,232.391 44.755 C 237.739 47.689,239.016 49.845,237.473 53.338 C 234.983 58.972,224.446 56.970,223.445 50.672 C 223.075 48.341,223.204 48.229,225.744 48.676 C 226.937 48.885,226.996 48.921,227.044 49.472 C 227.212 51.376,227.745 52.251,229.100 52.850 C 233.477 54.784,236.255 51.127,232.121 48.873 C 226.964 46.062,225.751 44.827,225.746 42.385 C 225.739 38.591,229.198 36.586,233.725 37.761 M146.794 50.624 C 148.090 54.323,149.215 57.422,149.293 57.513 C 149.371 57.603,151.293 57.019,153.565 56.216 C 158.536 54.458,157.984 54.463,158.557 56.168 L 159.032 57.580 152.973 59.724 C 149.640 60.902,146.885 61.839,146.851 61.804 C 146.762 61.715,140.826 44.902,140.826 44.739 C 140.826 44.476,144.182 43.465,144.313 43.688 C 144.381 43.805,145.497 46.926,146.794 50.624 M257.099 45.556 C 260.901 46.361,263.599 49.190,263.648 52.425 C 263.675 54.119,263.800 54.040,261.707 53.663 L 259.942 53.346 259.938 52.562 C 259.923 49.754,256.697 47.777,254.075 48.968 C 251.363 50.200,249.053 56.097,250.319 58.557 C 251.720 61.282,255.040 61.683,257.122 59.379 L 257.784 58.646 259.104 59.785 C 260.750 61.206,260.727 61.099,259.620 62.177 C 257.217 64.518,254.109 64.907,250.769 63.285 C 241.958 59.010,247.488 43.523,257.099 45.556 M130.364 51.760 C 130.897 52.002,131.651 52.479,132.040 52.820 L 132.746 53.440 131.575 54.530 C 129.985 56.009,129.964 56.017,129.285 55.445 C 127.167 53.663,123.703 54.991,122.930 57.880 C 122.330 60.125,124.489 64.698,126.833 66.148 C 129.950 68.075,133.598 65.634,133.013 62.013 L 132.835 60.914 133.901 60.700 C 134.487 60.582,135.296 60.414,135.700 60.327 C 136.638 60.126,136.696 60.261,136.693 62.632 C 136.687 68.539,129.543 72.178,124.409 68.890 C 120.272 66.241,118.118 59.943,120.027 56.080 C 121.954 52.183,126.817 50.150,130.364 51.760 M279.633 57.345 C 285.385 61.117,286.267 62.057,286.259 64.402 C 286.246 67.999,282.596 70.590,279.413 69.260 C 279.034 69.102,278.699 68.972,278.669 68.972 C 278.640 68.972,278.796 69.426,279.017 69.981 C 279.407 70.958,279.809 79.155,279.467 79.155 C 279.407 79.155,278.555 78.628,277.575 77.985 L 275.793 76.815 275.687 72.641 C 275.568 67.914,275.502 67.678,273.991 66.525 C 272.868 65.669,273.044 65.533,270.744 69.037 L 268.684 72.176 267.243 71.247 C 266.451 70.736,265.802 70.209,265.802 70.075 C 265.802 69.877,275.504 54.777,275.642 54.760 C 275.665 54.757,277.461 55.921,279.633 57.345 M275.781 61.333 L 274.498 63.291 274.925 63.586 C 279.393 66.674,280.948 67.071,282.047 65.405 C 283.031 63.912,282.486 63.006,279.335 60.895 L 277.065 59.374 275.781 61.333 M108.503 65.431 C 111.393 66.871,112.424 70.340,110.682 72.763 C 110.396 73.161,110.110 73.573,110.047 73.679 C 109.976 73.800,110.480 73.880,111.403 73.893 C 112.779 73.914,118.991 75.718,119.560 76.262 C 119.645 76.344,118.961 77.013,118.040 77.750 L 116.365 79.089 113.178 78.094 C 107.713 76.388,107.383 76.375,105.678 77.792 L 105.015 78.342 107.289 81.177 C 108.539 82.737,109.572 84.120,109.584 84.251 C 109.612 84.555,106.968 86.682,106.791 86.498 C 104.381 83.991,95.521 72.310,95.813 72.023 C 97.083 70.776,103.119 66.164,104.204 65.611 C 105.881 64.757,107.053 64.708,108.503 65.431 M105.091 68.729 C 104.857 68.818,102.755 70.390,100.628 72.067 C 100.230 72.380,102.650 75.899,103.254 75.883 C 103.823 75.869,107.693 72.304,107.953 71.556 C 108.533 69.883,106.729 68.102,105.091 68.729 M298.181 71.037 C 298.903 71.645,299.500 72.195,299.507 72.259 C 299.514 72.324,296.833 75.501,293.549 79.321 L 287.578 86.266 286.243 85.079 C 285.509 84.427,284.934 83.814,284.966 83.717 C 285.037 83.506,296.679 69.933,296.790 69.933 C 296.833 69.933,297.459 70.430,298.181 71.037 M309.699 81.847 C 310.596 82.893,311.359 83.836,311.395 83.945 C 311.431 84.053,309.856 86.521,307.895 89.429 C 305.935 92.337,304.367 94.717,304.412 94.717 C 304.457 94.717,307.011 93.461,310.088 91.927 C 313.166 90.392,315.749 89.117,315.829 89.093 C 316.015 89.037,319.519 93.029,319.453 93.221 C 319.426 93.300,316.335 96.050,312.584 99.333 L 305.764 105.301 304.665 104.091 C 304.061 103.426,303.564 102.828,303.561 102.761 C 303.557 102.695,305.938 100.555,308.850 98.006 C 311.763 95.457,314.104 93.372,314.052 93.372 C 314.000 93.372,311.089 94.841,307.583 96.638 C 300.150 100.447,301.192 100.112,300.216 99.004 C 298.504 97.060,298.172 98.033,302.863 91.264 C 305.135 87.985,306.964 85.303,306.928 85.303 C 306.892 85.303,304.497 87.379,301.606 89.917 L 296.350 94.532 295.251 93.328 C 294.647 92.665,294.150 92.060,294.147 91.983 C 294.138 91.784,307.644 79.942,307.877 79.945 C 307.983 79.946,308.803 80.802,309.699 81.847 M88.354 81.493 L 89.345 82.391 86.042 86.081 L 82.739 89.771 84.165 91.083 C 84.949 91.804,85.652 92.398,85.726 92.403 C 85.800 92.407,87.213 90.898,88.865 89.049 C 90.517 87.200,91.917 85.687,91.976 85.687 C 92.105 85.687,94.018 87.446,94.106 87.645 C 94.140 87.723,92.843 89.264,91.224 91.071 C 89.605 92.877,88.256 94.424,88.226 94.507 C 88.173 94.655,91.623 97.791,91.839 97.791 C 91.898 97.791,93.446 96.105,95.278 94.044 C 97.111 91.984,98.654 90.298,98.709 90.298 C 98.836 90.298,100.748 92.068,100.833 92.264 C 100.906 92.433,91.890 102.594,91.667 102.594 C 91.456 102.594,78.098 90.684,78.098 90.496 C 78.098 90.159,86.946 80.366,87.149 80.478 C 87.267 80.543,87.809 81.000,88.354 81.493 M75.124 102.137 C 75.246 102.259,75.120 102.891,74.762 103.948 L 74.212 105.572 73.309 105.513 C 70.040 105.299,67.843 108.546,69.235 111.535 C 70.179 113.563,74.373 116.238,76.603 116.233 C 80.169 116.226,81.968 112.118,79.622 109.337 L 79.071 108.683 80.025 107.834 C 80.550 107.367,81.210 106.818,81.491 106.614 L 82.002 106.242 82.713 107.210 C 87.262 113.407,80.632 121.791,73.188 119.253 C 65.394 116.596,62.985 108.118,68.694 103.440 C 70.412 102.032,74.243 101.255,75.124 102.137 M329.589 108.100 C 331.279 110.917,332.857 113.549,333.097 113.947 L 333.532 114.672 332.235 115.449 C 330.673 116.385,331.118 116.781,328.154 111.816 C 326.860 109.649,325.779 107.853,325.751 107.823 C 325.642 107.707,322.382 109.761,322.382 109.946 C 322.382 110.054,323.378 111.777,324.596 113.776 C 327.264 118.158,327.152 117.658,325.671 118.575 C 324.198 119.488,324.596 119.836,321.826 115.211 L 319.578 111.459 319.011 111.804 C 318.699 111.993,317.736 112.578,316.870 113.103 L 315.297 114.058 317.878 118.364 C 320.907 123.417,320.731 122.767,319.306 123.632 C 317.803 124.546,318.263 125.028,314.241 118.325 L 310.711 112.443 318.516 107.724 C 322.809 105.129,326.365 103.000,326.419 102.992 C 326.473 102.984,327.899 105.283,329.589 108.100 M234.732 104.030 C 246.053 106.382,253.713 112.855,257.130 122.959 C 260.548 133.064,254.471 142.629,239.726 150.353 C 226.805 157.122,225.552 161.946,236.183 164.003 C 240.378 164.815,242.081 168.211,239.418 170.452 C 237.305 172.230,229.429 169.809,225.834 166.277 C 219.947 160.490,222.350 153.778,232.373 148.018 C 242.997 141.911,246.918 133.649,244.854 121.715 C 243.891 116.150,238.318 111.485,229.107 108.536 C 224.569 107.083,224.125 106.765,224.567 105.289 C 225.159 103.315,228.998 102.839,234.732 104.030 M211.527 108.453 C 212.954 108.608,214.251 108.736,214.409 108.740 C 214.568 108.743,214.179 109.075,213.545 109.479 C 207.084 113.591,203.956 126.598,204.991 145.053 L 205.082 146.686 200.332 146.737 L 195.581 146.789 195.582 145.296 C 195.591 128.845,200.740 112.372,207.012 108.727 C 208.122 108.082,208.104 108.083,211.527 108.453 M260.813 216.421 C 271.702 218.187,282.821 227.904,284.673 237.272 C 284.941 238.625,284.863 240.810,283.400 273.007 C 280.705 332.338,280.796 329.565,281.444 332.049 C 282.422 335.804,284.800 338.272,288.308 339.177 C 289.795 339.560,292.637 339.564,305.277 339.199 C 310.504 339.048,314.810 338.954,314.846 338.989 C 314.881 339.025,312.290 341.229,309.088 343.889 L 303.266 348.724 290.106 348.627 C 274.148 348.509,273.043 348.374,269.535 346.111 C 266.864 344.389,264.835 340.202,265.396 337.571 C 265.454 337.301,266.365 318.232,267.421 295.197 C 268.477 272.161,269.442 252.233,269.565 250.913 C 270.608 239.748,264.283 231.034,253.364 228.588 C 250.986 228.055,244.416 227.950,241.883 228.404 C 238.170 229.071,233.881 230.277,231.039 231.455 C 230.412 231.715,221.247 236.888,210.674 242.949 C 114.136 298.295,65.795 325.982,65.757 325.949 C 65.732 325.928,66.846 323.779,68.232 321.174 L 70.753 316.438 104.493 297.339 C 215.579 234.457,241.529 219.780,242.378 219.352 C 247.589 216.725,255.214 215.513,260.813 216.421 M125.440 308.569 C 126.664 309.214,127.735 309.806,127.819 309.885 C 127.904 309.964,127.362 312.740,126.616 316.053 C 125.869 319.366,125.281 322.140,125.309 322.217 C 125.337 322.294,127.280 320.252,129.627 317.679 L 133.894 313.001 136.251 314.220 C 137.547 314.891,138.633 315.515,138.664 315.608 C 138.710 315.745,130.590 331.511,130.333 331.782 C 130.215 331.907,127.382 330.380,127.380 330.190 C 127.378 330.100,128.805 327.298,130.549 323.964 C 132.293 320.630,133.698 317.880,133.671 317.853 C 133.644 317.826,131.547 320.138,129.011 322.991 C 126.475 325.844,124.299 328.262,124.176 328.364 C 123.985 328.522,120.845 327.166,120.845 326.926 C 120.845 326.892,121.581 323.805,122.481 320.067 C 123.380 316.329,124.093 313.206,124.066 313.127 C 124.038 313.048,122.641 315.617,120.962 318.837 C 119.282 322.056,117.813 324.812,117.696 324.962 C 117.518 325.190,117.244 325.103,116.022 324.431 L 114.560 323.628 118.798 315.513 C 121.129 311.049,123.076 307.397,123.126 307.397 C 123.175 307.397,124.216 307.924,125.440 308.569 M150.415 319.604 C 157.261 321.218,159.664 327.765,155.812 334.305 C 151.071 342.354,137.921 337.734,139.472 328.564 C 140.599 321.894,144.965 318.320,150.415 319.604 M245.156 321.613 C 246.393 321.956,247.590 322.874,248.214 323.957 C 249.002 325.325,248.943 325.448,247.262 325.966 C 245.423 326.532,245.309 326.527,244.927 325.856 C 243.703 323.704,238.564 324.759,238.843 327.106 C 238.972 328.189,239.598 328.391,243.356 328.558 C 248.324 328.779,249.873 329.451,250.921 331.837 C 252.549 335.546,250.345 338.961,245.541 340.172 C 241.924 341.084,239.138 340.196,237.508 337.613 C 236.387 335.838,236.231 336.028,239.886 334.733 C 240.003 334.692,240.208 334.922,240.342 335.245 C 241.477 337.985,246.646 337.821,247.587 335.015 C 248.248 333.044,247.387 332.519,243.205 332.339 C 237.413 332.091,235.351 330.704,235.351 327.057 C 235.351 323.499,240.884 320.426,245.156 321.613 M147.839 322.754 C 143.682 323.766,141.655 330.826,144.678 333.758 C 148.382 337.349,153.890 333.652,153.890 327.576 C 153.890 324.416,150.876 322.015,147.839 322.754 M166.495 324.309 C 167.140 324.433,167.769 324.597,167.892 324.673 C 168.273 324.909,164.466 342.555,164.034 342.555 C 163.161 342.555,160.807 341.902,160.807 341.659 C 160.807 341.516,161.628 337.519,162.632 332.777 C 163.636 328.035,164.457 324.093,164.457 324.017 C 164.457 323.940,164.652 323.924,164.890 323.981 C 165.127 324.037,165.850 324.185,166.495 324.309 M229.941 333.548 C 230.496 338.527,230.912 342.639,230.866 342.686 C 230.749 342.802,228.474 343.124,227.762 343.125 C 227.235 343.125,226.823 342.662,222.965 337.729 C 220.644 334.761,218.715 332.423,218.678 332.534 C 218.641 332.644,218.876 335.058,219.200 337.898 C 219.986 344.790,220.107 344.020,218.204 344.220 C 216.222 344.427,216.532 345.392,215.475 335.735 C 214.988 331.297,214.542 327.309,214.482 326.873 L 214.373 326.081 215.880 325.949 C 216.709 325.876,217.518 325.779,217.679 325.734 C 217.877 325.677,219.375 327.459,222.371 331.316 C 224.791 334.432,226.788 336.960,226.808 336.934 C 226.827 336.909,226.545 334.223,226.180 330.966 C 225.815 327.709,225.557 325.003,225.607 324.953 C 225.693 324.867,227.683 324.573,228.539 324.520 C 228.916 324.497,228.972 324.857,229.941 333.548 M180.019 326.420 C 184.530 326.880,185.418 327.138,186.564 328.320 C 189.350 331.192,187.804 336.031,183.852 336.809 L 182.753 337.025 183.516 337.714 C 184.551 338.649,185.087 339.480,186.796 342.802 L 188.258 345.643 186.780 345.516 C 183.574 345.239,183.973 345.518,182.216 342.316 C 179.986 338.250,179.567 337.651,178.722 337.318 C 177.833 336.968,176.180 336.712,176.169 336.924 C 176.112 338.047,175.444 344.313,175.374 344.383 C 175.269 344.488,171.979 344.185,171.853 344.059 C 171.767 343.974,173.251 327.006,173.410 326.251 C 173.519 325.732,173.177 325.723,180.019 326.420 M206.899 335.737 C 209.102 340.702,210.892 344.781,210.876 344.801 C 210.860 344.821,209.944 344.854,208.842 344.874 L 206.837 344.912 205.991 342.878 L 205.146 340.844 201.564 340.955 C 197.375 341.086,197.830 340.845,197.052 343.343 L 196.430 345.341 194.446 345.396 C 192.890 345.439,192.481 345.398,192.555 345.204 C 192.607 345.068,194.048 340.937,195.757 336.023 C 197.467 331.110,198.927 327.029,199.002 326.954 C 199.107 326.848,201.940 326.657,202.743 326.700 C 202.825 326.705,204.695 330.771,206.899 335.737 M176.627 331.556 C 176.525 332.798,176.450 333.831,176.460 333.853 C 176.533 333.999,181.803 334.326,182.368 334.220 C 184.545 333.812,184.690 330.446,182.555 329.892 C 181.882 329.718,178.123 329.299,177.230 329.299 C 176.836 329.299,176.803 329.425,176.627 331.556 M200.040 334.130 C 199.520 335.753,199.033 337.274,198.958 337.512 C 198.810 337.980,200.658 338.107,202.897 337.783 L 203.777 337.656 202.456 334.493 C 201.730 332.754,201.102 331.297,201.061 331.256 C 201.019 331.215,200.560 332.508,200.040 334.130 " stroke="none" fill="#fc0404" fill-rule="evenodd"></path></g></svg>