<svg id="svg" version="1.1" xmlns="http://www.w3.org/2000/svg" xmlns:xlink="http://www.w3.org/1999/xlink" width="400" height="400" viewBox="0, 0, 400,400"><g id="svgg"><path id="path0" d="M240.500 88.634 C 239.785 88.946,239.200 89.363,239.200 89.559 C 239.200 89.755,238.632 90.519,237.938 91.258 C 237.243 91.996,235.962 93.498,235.091 94.595 C 234.219 95.692,233.192 96.810,232.808 97.079 C 232.424 97.348,231.886 98.109,231.612 98.771 C 231.338 99.432,230.760 100.086,230.327 100.223 C 229.894 100.360,229.207 101.250,228.800 102.200 C 228.393 103.150,227.722 104.034,227.310 104.165 C 226.897 104.296,226.347 104.988,226.088 105.702 C 225.829 106.416,224.893 107.875,224.009 108.944 C 223.124 110.013,222.400 111.155,222.400 111.483 C 222.400 111.811,221.897 112.556,221.283 113.140 C 220.668 113.723,219.835 115.100,219.430 116.200 C 219.026 117.300,218.283 118.650,217.778 119.200 C 216.515 120.579,215.518 123.257,215.672 124.862 L 215.800 126.200 220.200 126.212 C 230.279 126.239,247.233 127.726,250.400 128.861 C 251.610 129.294,254.745 129.998,257.367 130.425 C 260.246 130.893,262.685 131.525,263.526 132.021 C 264.291 132.473,266.617 133.192,268.695 133.619 C 270.808 134.054,272.995 134.769,273.658 135.242 C 274.311 135.706,276.222 136.431,277.905 136.851 C 279.588 137.272,281.333 137.958,281.783 138.376 C 282.232 138.794,283.770 139.434,285.200 139.799 C 286.630 140.164,288.250 140.883,288.800 141.398 C 289.350 141.912,290.837 142.632,292.105 142.996 C 293.372 143.361,294.902 144.068,295.505 144.567 C 296.107 145.066,297.492 145.775,298.582 146.141 C 299.672 146.507,301.022 147.234,301.582 147.755 C 302.142 148.277,303.320 148.927,304.200 149.199 C 305.080 149.472,306.340 150.184,307.000 150.782 C 307.660 151.381,309.055 152.184,310.101 152.568 C 311.146 152.952,312.237 153.604,312.526 154.015 C 312.814 154.427,313.898 155.128,314.934 155.572 C 315.969 156.016,316.924 156.658,317.055 156.998 C 317.185 157.339,318.178 157.999,319.261 158.464 C 320.344 158.930,321.551 159.721,321.945 160.221 C 322.339 160.722,323.308 161.402,324.099 161.732 C 324.891 162.063,325.831 162.781,326.190 163.329 C 326.549 163.876,327.253 164.427,327.754 164.553 C 328.256 164.679,329.512 165.526,330.544 166.435 C 332.815 168.434,335.007 168.443,336.876 166.463 C 337.455 165.850,338.709 165.119,339.664 164.838 C 340.619 164.557,341.940 163.827,342.600 163.215 C 343.260 162.602,344.258 161.995,344.818 161.864 C 345.377 161.733,346.637 161.005,347.618 160.245 C 348.598 159.486,350.020 158.706,350.778 158.512 C 352.720 158.017,354.243 155.238,353.439 153.658 C 353.143 153.076,352.627 151.241,352.293 149.580 C 351.958 147.919,351.255 145.927,350.730 145.154 C 350.205 144.381,349.539 142.557,349.250 141.102 C 348.937 139.529,348.411 138.172,347.952 137.757 C 347.527 137.372,346.796 135.785,346.326 134.229 C 345.856 132.673,345.049 130.840,344.531 130.156 C 344.013 129.471,343.325 128.021,343.002 126.932 C 342.679 125.844,341.959 124.525,341.403 124.003 C 340.846 123.480,340.197 122.320,339.961 121.426 C 339.724 120.532,339.106 119.350,338.587 118.800 C 338.068 118.250,337.246 116.900,336.761 115.800 C 336.276 114.700,335.539 113.559,335.123 113.265 C 334.706 112.971,334.082 112.021,333.735 111.154 C 333.388 110.286,332.779 109.403,332.382 109.191 C 331.986 108.978,331.179 107.820,330.591 106.617 C 330.002 105.413,329.195 104.325,328.797 104.199 C 328.400 104.073,327.795 103.271,327.453 102.417 C 327.102 101.539,326.467 100.748,325.992 100.597 C 325.529 100.451,324.947 99.851,324.697 99.265 C 324.447 98.679,323.657 97.570,322.941 96.800 C 322.226 96.030,321.040 94.758,320.307 93.974 C 319.574 93.189,318.620 92.104,318.187 91.563 C 317.754 91.022,316.689 90.164,315.820 89.656 L 314.240 88.732 313.507 89.738 C 313.102 90.294,311.910 91.031,310.844 91.385 C 309.783 91.738,308.496 92.472,307.984 93.018 C 307.471 93.563,306.392 94.187,305.586 94.404 C 304.780 94.621,303.567 95.328,302.890 95.974 C 302.213 96.621,300.881 97.373,299.930 97.646 C 298.978 97.919,297.840 98.553,297.400 99.055 C 296.960 99.557,295.619 100.346,294.420 100.810 C 293.220 101.273,292.009 101.981,291.727 102.383 C 291.445 102.785,290.311 103.439,289.207 103.836 C 288.103 104.233,287.200 104.695,287.200 104.862 C 287.200 105.295,283.855 107.200,283.096 107.200 C 282.747 107.200,281.927 107.650,281.273 108.200 C 279.889 109.364,279.111 109.457,278.355 108.545 C 278.056 108.185,277.043 107.561,276.103 107.158 C 275.164 106.756,274.201 106.001,273.964 105.482 C 273.728 104.962,272.964 104.330,272.267 104.077 C 271.570 103.824,270.125 102.893,269.056 102.009 C 267.987 101.124,266.852 100.400,266.534 100.400 C 266.215 100.400,265.470 99.891,264.877 99.268 C 264.285 98.645,262.945 97.820,261.899 97.434 C 260.854 97.049,259.765 96.399,259.478 95.991 C 259.192 95.582,257.912 94.857,256.633 94.378 C 255.354 93.900,253.980 93.180,253.578 92.778 C 253.177 92.377,251.606 91.678,250.088 91.226 C 248.570 90.774,247.018 90.062,246.639 89.643 C 245.375 88.246,242.477 87.769,240.500 88.634 M85.200 89.195 C 85.200 89.412,84.473 90.049,83.584 90.610 C 82.696 91.171,81.800 92.075,81.592 92.620 C 81.385 93.164,80.775 93.811,80.235 94.057 C 79.696 94.303,79.037 95.028,78.772 95.668 C 78.507 96.308,77.860 97.057,77.335 97.332 C 76.811 97.607,76.071 98.455,75.691 99.216 C 75.311 99.977,74.620 100.767,74.155 100.971 C 73.690 101.176,73.106 101.905,72.857 102.593 C 72.608 103.280,71.889 104.373,71.258 105.022 C 70.627 105.670,69.726 106.959,69.254 107.887 C 68.783 108.814,68.052 109.758,67.631 109.984 C 67.209 110.209,66.664 110.999,66.420 111.738 C 66.176 112.477,65.547 113.487,65.021 113.981 C 64.495 114.475,63.671 115.806,63.189 116.939 C 62.708 118.073,61.910 119.360,61.416 119.800 C 60.922 120.240,60.300 121.378,60.034 122.330 C 59.768 123.281,59.021 124.613,58.375 125.289 C 57.729 125.965,57.200 126.837,57.200 127.226 C 57.200 128.263,55.750 131.472,55.105 131.863 C 54.799 132.049,54.221 133.432,53.820 134.939 C 53.419 136.445,52.679 138.121,52.176 138.664 C 51.673 139.206,51.137 140.404,50.985 141.325 C 50.597 143.674,49.625 146.477,48.923 147.270 C 46.565 149.934,46.691 157.670,49.102 158.250 C 50.783 158.654,53.076 159.899,53.322 160.541 C 53.444 160.858,54.430 161.411,55.514 161.771 C 56.598 162.132,57.897 162.864,58.400 163.400 C 58.903 163.936,60.191 164.665,61.261 165.020 C 62.332 165.376,63.379 165.987,63.589 166.379 C 63.798 166.771,65.048 167.495,66.366 167.987 C 67.763 168.510,69.025 169.283,69.391 169.842 C 69.736 170.369,70.332 170.800,70.715 170.800 C 71.615 170.800,74.173 172.173,75.214 173.214 C 75.660 173.660,76.562 174.132,77.219 174.264 C 77.875 174.395,79.175 175.181,80.106 176.010 L 81.800 177.517 81.737 181.573 C 81.702 183.804,81.447 187.557,81.169 189.915 C 80.197 198.170,81.132 219.329,82.528 220.646 C 82.787 220.891,84.350 221.303,86.000 221.562 C 87.650 221.822,89.720 222.369,90.600 222.778 C 94.946 224.800,126.484 226.158,127.731 224.377 C 128.298 223.568,127.273 220.497,126.293 220.064 C 125.497 219.713,124.811 218.640,124.195 216.784 C 123.825 215.670,123.096 214.332,122.575 213.811 C 122.054 213.290,121.416 212.023,121.157 210.995 C 120.898 209.967,120.251 208.609,119.719 207.976 C 119.187 207.344,118.419 205.667,118.014 204.249 C 117.609 202.832,116.903 201.161,116.445 200.536 C 115.988 199.911,115.269 198.012,114.848 196.316 C 114.428 194.620,113.720 192.771,113.277 192.207 C 112.770 191.562,112.214 189.738,111.779 187.291 C 111.398 185.151,110.779 182.950,110.402 182.400 C 109.547 181.152,109.295 180.143,108.403 174.400 C 108.011 171.870,107.389 169.002,107.021 168.026 C 104.191 160.512,103.464 121.240,105.821 103.143 C 106.041 101.454,105.967 101.218,105.004 100.543 C 104.421 100.134,103.482 99.397,102.918 98.904 C 102.353 98.411,101.279 97.839,100.530 97.632 C 99.782 97.425,98.549 96.711,97.790 96.045 C 97.031 95.379,95.688 94.639,94.804 94.401 C 93.921 94.163,92.933 93.565,92.610 93.071 C 92.275 92.560,91.051 91.843,89.768 91.407 C 88.456 90.961,87.262 90.256,86.911 89.720 C 86.305 88.796,85.200 88.457,85.200 89.195 M195.264 169.230 C 193.869 169.411,191.239 170.199,189.421 170.980 C 187.602 171.761,185.981 172.400,185.819 172.400 C 185.208 172.400,178.868 177.228,177.520 178.720 C 173.026 183.694,169.150 191.898,169.260 196.200 C 169.293 197.485,169.365 197.316,169.622 195.340 C 169.798 193.987,170.291 192.187,170.717 191.340 C 171.142 190.493,171.807 188.810,172.194 187.600 C 172.581 186.390,173.326 184.940,173.849 184.378 C 174.372 183.816,174.800 183.137,174.800 182.869 C 174.800 182.168,180.948 175.862,182.280 175.197 C 182.896 174.890,183.850 174.247,184.400 173.768 C 184.950 173.290,186.390 172.581,187.600 172.194 C 188.810 171.807,190.488 171.145,191.328 170.723 C 194.538 169.110,206.781 168.890,208.615 170.412 C 208.880 170.633,210.415 171.261,212.025 171.809 C 213.636 172.356,215.324 173.134,215.777 173.538 C 216.229 173.941,217.320 174.698,218.200 175.221 C 221.373 177.107,226.799 183.445,227.880 186.529 C 228.175 187.371,228.846 188.907,229.371 189.943 C 230.570 192.308,231.344 198.372,231.056 203.145 L 230.848 206.600 231.264 203.600 C 234.035 183.643,216.107 166.527,195.264 169.230 M168.924 200.200 C 168.926 201.520,169.001 202.012,169.090 201.293 C 169.179 200.574,169.177 199.494,169.086 198.893 C 168.995 198.292,168.922 198.880,168.924 200.200 M169.401 205.283 C 169.495 206.814,169.894 208.618,170.329 209.483 C 170.748 210.318,171.401 211.951,171.781 213.112 C 172.162 214.274,172.873 215.714,173.362 216.312 C 173.852 216.911,174.635 218.030,175.104 218.800 C 176.632 221.314,184.312 228.000,185.670 228.000 C 185.857 228.000,187.313 228.621,188.905 229.381 C 192.581 231.134,198.422 231.888,203.400 231.251 L 206.600 230.842 203.187 231.035 C 198.302 231.311,192.682 230.591,190.004 229.346 C 188.792 228.783,187.163 228.091,186.384 227.808 C 183.150 226.635,177.416 221.605,174.990 217.812 C 174.231 216.625,173.441 215.549,173.236 215.422 C 173.030 215.295,172.464 213.978,171.977 212.496 C 171.490 211.013,170.833 209.290,170.518 208.666 C 170.202 208.042,169.784 206.422,169.589 205.066 L 169.235 202.600 169.401 205.283 M230.400 207.715 C 230.400 208.219,230.028 209.344,229.574 210.215 C 229.119 211.087,228.387 212.742,227.947 213.894 C 227.507 215.045,226.540 216.714,225.798 217.603 C 225.055 218.491,224.344 219.545,224.217 219.945 C 224.091 220.345,223.528 220.917,222.968 221.217 C 222.408 221.517,221.652 222.266,221.288 222.882 C 220.924 223.497,220.310 224.102,219.922 224.225 C 219.535 224.348,218.491 225.055,217.603 225.798 C 216.714 226.540,214.958 227.533,213.699 228.004 C 212.440 228.475,211.172 229.057,210.883 229.297 C 210.593 229.538,209.510 229.978,208.478 230.275 C 206.872 230.737,206.808 230.790,208.035 230.643 C 211.132 230.272,219.145 225.689,222.417 222.417 C 226.267 218.567,232.472 206.800,230.652 206.800 C 230.514 206.800,230.400 207.212,230.400 207.715 M256.604 251.356 C 256.032 252.333,255.311 253.342,255.002 253.598 C 254.694 253.854,254.226 254.725,253.964 255.532 C 253.702 256.339,252.901 257.655,252.185 258.455 C 251.469 259.255,250.759 260.476,250.607 261.169 C 250.455 261.861,249.888 262.717,249.346 263.072 C 248.805 263.427,248.101 264.341,247.782 265.104 C 247.463 265.867,246.649 267.122,245.973 267.892 C 245.296 268.663,244.453 269.900,244.099 270.643 C 243.745 271.385,243.123 272.097,242.717 272.226 C 242.310 272.355,241.668 273.122,241.289 273.931 C 240.910 274.739,240.195 275.578,239.700 275.795 C 239.204 276.012,238.618 276.739,238.396 277.411 C 238.175 278.082,237.455 278.949,236.797 279.338 C 236.139 279.727,235.600 280.255,235.600 280.510 C 235.600 281.001,234.758 281.895,228.542 288.000 C 226.414 290.090,224.027 292.456,223.237 293.258 C 222.446 294.059,221.438 294.823,220.996 294.954 C 220.554 295.085,220.014 295.599,219.796 296.096 C 219.578 296.593,218.775 297.312,218.011 297.693 C 217.248 298.074,216.486 298.757,216.318 299.211 C 216.150 299.664,215.386 300.297,214.621 300.617 C 213.855 300.937,213.037 301.557,212.803 301.995 C 212.568 302.433,211.797 303.090,211.088 303.455 C 210.380 303.819,209.035 304.788,208.101 305.609 C 207.166 306.429,205.884 307.203,205.253 307.329 C 204.546 307.471,204.021 307.877,203.888 308.385 C 203.765 308.856,203.020 309.483,202.153 309.846 C 201.317 310.195,199.937 311.076,199.086 311.804 C 198.236 312.533,197.058 313.247,196.470 313.392 C 195.881 313.537,194.860 314.160,194.200 314.776 C 193.540 315.392,192.137 316.218,191.081 316.610 C 190.026 317.002,188.994 317.637,188.789 318.021 C 188.583 318.406,187.606 318.995,186.617 319.332 C 185.628 319.669,184.193 320.423,183.427 321.006 C 182.662 321.590,181.204 322.318,180.188 322.624 C 179.171 322.930,177.809 323.626,177.160 324.172 C 176.512 324.717,174.906 325.466,173.591 325.835 C 172.276 326.204,171.200 326.629,171.200 326.779 C 171.200 327.285,168.219 328.697,166.124 329.185 C 164.694 329.518,163.846 329.975,163.402 330.652 C 163.048 331.194,162.362 331.817,161.879 332.037 C 161.002 332.436,161.000 332.467,161.049 343.686 L 161.098 354.935 162.849 355.645 C 163.812 356.036,164.967 356.365,165.415 356.378 C 165.864 356.390,166.928 356.755,167.779 357.189 C 168.917 357.770,171.087 358.144,175.964 358.601 C 179.614 358.943,185.390 359.577,188.800 360.010 C 195.481 360.860,204.355 361.041,208.723 360.418 C 211.593 360.009,219.733 359.106,227.200 358.368 C 229.730 358.118,232.340 357.633,233.000 357.291 C 233.660 356.948,235.370 356.371,236.800 356.009 L 239.400 355.349 239.600 335.157 C 239.838 311.153,239.443 312.845,245.094 311.579 C 246.077 311.359,247.448 310.754,248.141 310.235 C 248.833 309.716,250.475 308.984,251.788 308.609 C 253.102 308.234,254.567 307.505,255.044 306.991 C 255.521 306.476,256.638 305.859,257.527 305.620 C 258.416 305.380,259.893 304.558,260.809 303.792 C 261.726 303.027,262.836 302.400,263.277 302.400 C 263.718 302.400,264.556 301.895,265.140 301.277 C 265.723 300.659,267.057 299.743,268.103 299.240 C 269.150 298.737,270.245 297.986,270.536 297.571 C 270.826 297.156,271.731 296.537,272.546 296.197 C 273.361 295.856,274.232 295.129,274.482 294.579 C 274.732 294.030,275.343 293.479,275.840 293.354 C 277.306 292.986,277.538 289.511,276.172 288.377 C 275.549 287.860,274.675 285.191,273.985 281.700 C 273.713 280.325,273.342 279.200,273.159 279.200 C 272.641 279.200,271.991 277.752,271.154 274.730 C 270.730 273.200,270.020 271.558,269.576 271.082 C 269.132 270.605,268.493 269.266,268.155 268.104 C 267.817 266.943,266.924 265.077,266.171 263.956 C 265.417 262.836,264.800 261.607,264.800 261.225 C 264.800 260.844,264.192 259.737,263.448 258.766 C 262.704 257.795,261.876 256.312,261.608 255.472 C 261.339 254.632,260.858 253.844,260.538 253.721 C 260.218 253.598,259.585 252.708,259.132 251.744 C 258.006 249.349,257.799 249.317,256.604 251.356 " stroke="none" fill="#1976d2" fill-rule="evenodd"></path><path id="path1" d="M190.600 38.389 C 188.400 38.570,184.800 39.003,182.600 39.350 C 180.400 39.696,176.260 40.271,173.400 40.627 C 167.282 41.387,161.128 43.196,160.212 44.504 C 159.683 45.259,159.600 47.980,159.600 64.502 C 159.600 86.132,159.639 85.817,156.838 86.938 C 155.928 87.302,154.976 87.600,154.722 87.600 C 154.262 87.600,148.656 90.182,146.000 91.617 C 145.230 92.033,143.652 92.828,142.494 93.384 C 141.335 93.941,139.470 95.027,138.349 95.798 C 137.228 96.569,136.088 97.200,135.817 97.200 C 135.546 97.200,134.981 97.579,134.562 98.043 C 134.143 98.507,132.990 99.322,132.000 99.854 C 129.660 101.112,125.804 104.049,122.750 106.900 C 121.778 107.808,121.809 109.615,122.844 112.400 C 123.294 113.610,124.160 116.228,124.768 118.217 C 125.376 120.207,126.157 122.277,126.504 122.817 C 126.851 123.358,127.506 124.942,127.958 126.338 C 128.411 127.734,129.132 129.444,129.560 130.138 C 129.988 130.832,130.720 132.420,131.186 133.667 C 131.652 134.914,132.375 136.369,132.793 136.900 C 133.211 137.432,133.867 138.662,134.251 139.633 C 134.634 140.605,135.500 142.247,136.174 143.283 C 137.446 145.236,139.906 149.235,141.237 151.513 C 142.398 153.500,144.918 151.925,146.591 148.169 C 147.088 147.052,148.059 145.360,148.747 144.409 C 149.436 143.458,150.000 142.478,150.000 142.231 C 150.000 141.984,150.515 141.156,151.143 140.391 C 151.772 139.626,152.677 138.280,153.155 137.400 C 153.632 136.520,154.646 134.990,155.407 134.000 C 156.169 133.010,157.378 131.417,158.096 130.460 C 163.624 123.084,172.113 113.878,178.805 108.000 C 179.933 107.010,181.259 105.837,181.753 105.392 C 182.247 104.948,183.450 103.960,184.426 103.195 C 185.402 102.431,186.256 101.681,186.325 101.529 C 186.393 101.376,187.338 100.681,188.425 99.984 C 189.511 99.287,190.400 98.560,190.400 98.369 C 190.400 98.177,190.985 97.721,191.700 97.356 C 192.415 96.990,193.655 96.131,194.455 95.445 C 195.255 94.760,196.769 93.660,197.821 93.000 C 201.179 90.891,203.485 89.418,204.455 88.759 C 207.023 87.017,214.658 82.592,217.182 81.383 C 218.382 80.808,219.856 79.988,220.456 79.560 C 221.056 79.133,222.324 78.510,223.274 78.176 C 224.223 77.842,225.630 77.154,226.400 76.647 C 227.170 76.140,228.520 75.497,229.400 75.219 C 230.280 74.940,231.630 74.343,232.400 73.891 C 233.170 73.440,235.060 72.601,236.600 72.027 C 240.863 70.438,240.799 70.671,240.799 56.789 C 240.800 47.303,240.699 45.234,240.201 44.523 C 239.239 43.150,232.754 41.364,225.200 40.394 C 221.570 39.927,216.890 39.285,214.800 38.968 C 210.205 38.269,196.124 37.932,190.600 38.389 M240.510 86.579 C 238.466 87.572,230.081 96.785,227.367 101.020 C 226.951 101.669,226.374 102.384,226.085 102.610 C 225.795 102.835,225.163 103.666,224.679 104.457 C 224.196 105.247,223.295 106.593,222.679 107.447 C 220.262 110.795,219.573 111.861,218.813 113.431 C 218.379 114.328,217.652 115.535,217.198 116.112 C 216.743 116.690,215.997 118.026,215.538 119.081 C 215.079 120.136,214.339 121.400,213.893 121.888 C 212.342 123.588,211.898 126.451,213.027 127.477 C 213.961 128.326,214.293 128.355,223.343 128.376 C 234.156 128.401,239.255 128.817,245.400 130.175 C 247.820 130.710,251.645 131.424,253.899 131.763 C 256.154 132.102,258.550 132.664,259.224 133.013 C 259.898 133.361,262.103 134.007,264.124 134.448 C 266.145 134.889,268.608 135.613,269.599 136.057 C 270.590 136.501,272.894 137.302,274.720 137.837 C 276.547 138.371,278.448 139.075,278.946 139.401 C 279.444 139.728,281.010 140.372,282.426 140.834 C 283.842 141.295,285.540 142.003,286.200 142.406 C 286.860 142.809,288.480 143.539,289.800 144.029 C 291.120 144.518,292.600 145.229,293.089 145.609 C 293.579 145.988,295.019 146.710,296.289 147.212 C 297.560 147.715,298.960 148.436,299.400 148.815 C 299.840 149.194,301.052 149.874,302.093 150.327 C 303.135 150.779,304.575 151.582,305.293 152.111 C 306.012 152.639,307.179 153.300,307.887 153.579 C 308.594 153.858,309.393 154.351,309.662 154.674 C 309.930 154.998,311.061 155.718,312.175 156.275 C 313.289 156.832,314.560 157.598,315.000 157.978 C 315.440 158.357,316.610 159.159,317.600 159.760 C 321.103 161.888,325.215 164.795,328.126 167.200 C 331.915 170.331,335.450 170.549,338.673 167.850 C 339.293 167.331,340.934 166.297,342.319 165.553 C 343.705 164.809,345.759 163.707,346.884 163.104 C 348.009 162.500,349.215 161.750,349.565 161.435 C 349.914 161.120,351.340 160.280,352.734 159.568 C 356.343 157.724,357.054 155.284,355.115 151.394 C 354.568 150.297,353.816 148.165,353.445 146.656 C 353.073 145.147,352.344 143.074,351.825 142.049 C 351.306 141.025,350.667 139.380,350.405 138.393 C 350.143 137.407,349.426 135.700,348.812 134.600 C 348.199 133.500,347.391 131.657,347.018 130.505 C 346.644 129.352,346.160 128.299,345.940 128.163 C 345.721 128.028,344.909 126.631,344.136 125.058 C 341.668 120.038,340.228 117.419,339.150 115.991 C 338.572 115.226,337.787 113.925,337.404 113.100 C 337.022 112.275,336.553 111.600,336.363 111.600 C 336.172 111.600,335.629 110.835,335.155 109.900 C 334.682 108.965,333.688 107.524,332.947 106.699 C 332.206 105.873,331.600 105.029,331.600 104.823 C 331.600 104.617,330.925 103.634,330.100 102.637 C 329.275 101.641,327.880 99.900,327.000 98.769 C 323.743 94.581,317.491 87.792,316.659 87.540 C 314.697 86.946,313.233 87.195,311.914 88.349 C 311.191 88.981,309.661 89.901,308.513 90.393 C 307.365 90.885,306.202 91.557,305.929 91.886 C 305.655 92.215,304.437 92.925,303.220 93.463 C 302.003 94.001,300.646 94.774,300.204 95.182 C 299.762 95.590,298.682 96.219,297.805 96.581 C 296.928 96.942,295.847 97.580,295.401 97.999 C 294.956 98.417,293.575 99.209,292.333 99.758 C 291.090 100.308,289.944 100.967,289.786 101.223 C 289.627 101.480,288.486 102.134,287.249 102.677 C 286.012 103.220,284.550 104.078,284.000 104.584 C 281.629 106.764,277.157 106.727,275.708 104.516 C 275.362 103.987,274.430 103.223,273.639 102.820 C 272.848 102.416,271.840 101.687,271.400 101.199 C 270.960 100.712,269.779 99.897,268.775 99.388 C 267.771 98.879,266.705 98.168,266.407 97.808 C 266.108 97.448,265.222 96.886,264.437 96.558 C 263.653 96.230,262.648 95.622,262.205 95.208 C 261.762 94.793,260.230 93.894,258.800 93.211 C 257.370 92.527,255.570 91.627,254.800 91.210 C 251.812 89.593,246.571 87.200,246.000 87.191 C 245.670 87.186,244.680 86.862,243.800 86.471 C 242.243 85.778,242.155 85.781,240.510 86.579 M83.800 87.763 C 82.345 88.408,75.957 95.641,70.087 103.289 C 69.365 104.230,68.151 105.810,67.389 106.800 C 66.626 107.790,65.667 109.323,65.256 110.206 C 64.845 111.089,64.201 112.067,63.823 112.381 C 63.446 112.694,62.705 113.803,62.176 114.847 C 61.648 115.890,61.015 116.867,60.770 117.019 C 60.525 117.170,59.829 118.398,59.224 119.747 C 58.618 121.096,57.832 122.441,57.477 122.736 C 57.121 123.031,56.455 124.275,55.997 125.500 C 55.538 126.726,54.804 128.232,54.365 128.849 C 53.927 129.465,53.218 130.984,52.791 132.225 C 52.365 133.466,51.655 135.064,51.214 135.777 C 50.774 136.490,50.042 138.276,49.588 139.746 C 49.134 141.216,48.421 142.999,48.005 143.709 C 47.589 144.419,46.947 146.350,46.579 148.000 C 46.211 149.650,45.449 151.830,44.885 152.844 L 43.861 154.687 44.830 156.644 C 45.620 158.236,46.185 158.786,47.869 159.600 C 49.007 160.150,50.273 160.908,50.683 161.284 C 51.092 161.660,52.440 162.415,53.677 162.962 C 54.914 163.510,56.057 164.169,56.218 164.428 C 56.378 164.687,57.621 165.404,58.981 166.021 C 60.341 166.637,61.672 167.405,61.940 167.728 C 62.208 168.050,63.006 168.542,63.713 168.821 C 64.421 169.100,65.588 169.761,66.307 170.289 C 67.025 170.818,68.412 171.604,69.389 172.036 C 70.365 172.468,71.667 173.236,72.282 173.741 C 72.897 174.247,74.174 174.965,75.119 175.335 C 76.065 175.706,77.639 176.833,78.618 177.840 C 80.553 179.830,80.511 179.486,79.353 184.000 C 77.676 190.541,77.815 210.580,79.589 217.800 C 80.391 221.062,81.910 223.200,83.426 223.200 C 83.764 223.200,84.575 223.477,85.229 223.815 C 85.884 224.154,90.240 224.965,94.910 225.619 C 99.579 226.273,104.480 227.018,105.800 227.275 C 109.444 227.984,129.278 227.964,130.138 227.251 C 131.246 226.332,131.030 223.155,129.779 221.981 C 129.218 221.453,128.393 220.297,127.947 219.411 C 127.501 218.525,126.347 216.360,125.383 214.600 C 124.418 212.840,123.166 210.410,122.599 209.200 C 122.033 207.990,120.946 205.767,120.185 204.259 C 119.423 202.751,118.800 201.202,118.800 200.815 C 118.800 200.429,118.286 199.142,117.657 197.956 C 117.029 196.770,116.287 194.810,116.010 193.600 C 115.732 192.390,115.000 190.230,114.383 188.800 C 113.766 187.370,112.966 184.622,112.605 182.693 C 112.244 180.765,111.611 178.422,111.198 177.488 C 110.785 176.554,110.159 173.632,109.807 170.995 C 109.455 168.358,108.817 164.670,108.389 162.800 C 105.997 152.352,105.625 116.771,107.780 104.400 L 108.302 101.400 106.876 99.641 C 105.915 98.456,104.649 97.519,102.998 96.770 C 101.650 96.159,100.312 95.376,100.025 95.030 C 99.738 94.684,98.448 93.928,97.157 93.349 C 95.867 92.770,94.611 92.054,94.366 91.759 C 94.121 91.464,92.933 90.770,91.725 90.217 C 90.518 89.664,88.992 88.759,88.334 88.206 C 87.012 87.094,85.618 86.957,83.800 87.763 M244.198 88.441 C 245.162 88.684,246.261 89.225,246.639 89.643 C 247.018 90.062,248.570 90.774,250.088 91.226 C 251.606 91.678,253.177 92.377,253.578 92.778 C 253.980 93.180,255.354 93.900,256.633 94.378 C 257.912 94.857,259.192 95.582,259.478 95.991 C 259.765 96.399,260.854 97.049,261.899 97.434 C 262.945 97.820,264.285 98.645,264.877 99.268 C 265.470 99.891,266.215 100.400,266.534 100.400 C 266.852 100.400,267.987 101.124,269.056 102.009 C 270.125 102.893,271.570 103.824,272.267 104.077 C 272.964 104.330,273.728 104.962,273.964 105.482 C 274.201 106.001,275.164 106.756,276.103 107.158 C 277.043 107.561,278.056 108.185,278.355 108.545 C 279.111 109.457,279.889 109.364,281.273 108.200 C 281.927 107.650,282.747 107.200,283.096 107.200 C 283.855 107.200,287.200 105.295,287.200 104.862 C 287.200 104.695,288.103 104.233,289.207 103.836 C 290.311 103.439,291.445 102.785,291.727 102.383 C 292.009 101.981,293.220 101.273,294.420 100.810 C 295.619 100.346,296.960 99.557,297.400 99.055 C 297.840 98.553,298.978 97.919,299.930 97.646 C 300.881 97.373,302.213 96.621,302.890 95.974 C 303.567 95.328,304.780 94.621,305.586 94.404 C 306.392 94.187,307.471 93.563,307.984 93.018 C 308.496 92.472,309.783 91.738,310.844 91.385 C 311.910 91.031,313.102 90.294,313.507 89.738 L 314.240 88.732 315.820 89.656 C 316.689 90.164,317.754 91.022,318.187 91.563 C 318.620 92.104,319.574 93.189,320.307 93.974 C 321.040 94.758,322.226 96.030,322.941 96.800 C 323.657 97.570,324.447 98.679,324.697 99.265 C 324.947 99.851,325.529 100.451,325.992 100.597 C 326.467 100.748,327.102 101.539,327.453 102.417 C 327.795 103.271,328.400 104.073,328.797 104.199 C 329.195 104.325,330.002 105.413,330.591 106.617 C 331.179 107.820,331.986 108.978,332.382 109.191 C 332.779 109.403,333.388 110.286,333.735 111.154 C 334.082 112.021,334.706 112.971,335.123 113.265 C 335.539 113.559,336.276 114.700,336.761 115.800 C 337.246 116.900,338.068 118.250,338.587 118.800 C 339.106 119.350,339.724 120.532,339.961 121.426 C 340.197 122.320,340.846 123.480,341.403 124.003 C 341.959 124.525,342.679 125.844,343.002 126.932 C 343.325 128.021,344.013 129.471,344.531 130.156 C 345.049 130.840,345.856 132.673,346.326 134.229 C 346.796 135.785,347.527 137.372,347.952 137.757 C 348.411 138.172,348.937 139.529,349.250 141.102 C 349.539 142.557,350.205 144.381,350.730 145.154 C 351.255 145.927,351.958 147.919,352.293 149.580 C 352.627 151.241,353.143 153.076,353.439 153.658 C 354.243 155.238,352.720 158.017,350.778 158.512 C 350.020 158.706,348.598 159.486,347.618 160.245 C 346.637 161.005,345.377 161.733,344.818 161.864 C 344.258 161.995,343.260 162.602,342.600 163.215 C 341.940 163.827,340.619 164.557,339.664 164.838 C 338.709 165.119,337.455 165.850,336.876 166.463 C 335.007 168.443,332.815 168.434,330.544 166.435 C 329.512 165.526,328.256 164.679,327.754 164.553 C 327.253 164.427,326.549 163.876,326.190 163.329 C 325.831 162.781,324.891 162.063,324.099 161.732 C 323.308 161.402,322.339 160.722,321.945 160.221 C 321.551 159.721,320.344 158.930,319.261 158.464 C 318.178 157.999,317.185 157.339,317.055 156.998 C 316.924 156.658,315.969 156.016,314.934 155.572 C 313.898 155.128,312.814 154.427,312.526 154.015 C 312.237 153.604,311.146 152.952,310.101 152.568 C 309.055 152.184,307.660 151.381,307.000 150.782 C 306.340 150.184,305.080 149.472,304.200 149.199 C 303.320 148.927,302.142 148.277,301.582 147.755 C 301.022 147.234,299.672 146.507,298.582 146.141 C 297.492 145.775,296.107 145.066,295.505 144.567 C 294.902 144.068,293.372 143.361,292.105 142.996 C 290.837 142.632,289.350 141.912,288.800 141.398 C 288.250 140.883,286.630 140.164,285.200 139.799 C 283.770 139.434,282.232 138.794,281.783 138.376 C 281.333 137.958,279.588 137.272,277.905 136.851 C 276.222 136.431,274.311 135.706,273.658 135.242 C 272.995 134.769,270.808 134.054,268.695 133.619 C 266.617 133.192,264.291 132.473,263.526 132.021 C 262.685 131.525,260.246 130.893,257.367 130.425 C 254.745 129.998,251.610 129.294,250.400 128.861 C 247.233 127.726,230.279 126.239,220.200 126.212 L 215.800 126.200 215.672 124.862 C 215.518 123.257,216.515 120.579,217.778 119.200 C 218.283 118.650,219.026 117.300,219.430 116.200 C 219.835 115.100,220.668 113.723,221.283 113.140 C 221.897 112.556,222.400 111.811,222.400 111.483 C 222.400 111.155,223.124 110.013,224.009 108.944 C 224.893 107.875,225.829 106.416,226.088 105.702 C 226.347 104.988,226.897 104.296,227.310 104.165 C 227.722 104.034,228.393 103.150,228.800 102.200 C 229.207 101.250,229.894 100.360,230.327 100.223 C 230.760 100.086,231.338 99.432,231.612 98.771 C 231.886 98.109,232.424 97.348,232.808 97.079 C 233.192 96.810,234.219 95.692,235.091 94.595 C 235.962 93.498,237.243 91.996,237.938 91.258 C 238.632 90.519,239.200 89.755,239.200 89.559 C 239.200 89.234,241.352 88.111,242.123 88.033 C 242.300 88.015,243.234 88.199,244.198 88.441 M86.911 89.720 C 87.262 90.256,88.456 90.961,89.768 91.407 C 91.051 91.843,92.275 92.560,92.610 93.071 C 92.933 93.565,93.921 94.163,94.804 94.401 C 95.688 94.639,97.031 95.379,97.790 96.045 C 98.549 96.711,99.782 97.425,100.530 97.632 C 101.279 97.839,102.353 98.411,102.918 98.904 C 103.482 99.397,104.421 100.134,105.004 100.543 C 105.967 101.218,106.041 101.454,105.821 103.143 C 103.464 121.240,104.191 160.512,107.021 168.026 C 107.389 169.002,108.011 171.870,108.403 174.400 C 109.295 180.143,109.547 181.152,110.402 182.400 C 110.779 182.950,111.398 185.151,111.779 187.291 C 112.214 189.738,112.770 191.562,113.277 192.207 C 113.720 192.771,114.428 194.620,114.848 196.316 C 115.269 198.012,115.988 199.911,116.445 200.536 C 116.903 201.161,117.609 202.832,118.014 204.249 C 118.419 205.667,119.187 207.344,119.719 207.976 C 120.251 208.609,120.898 209.967,121.157 210.995 C 121.416 212.023,122.054 213.290,122.575 213.811 C 123.096 214.332,123.825 215.670,124.195 216.784 C 124.811 218.640,125.497 219.713,126.293 220.064 C 127.273 220.497,128.298 223.568,127.731 224.377 C 126.484 226.158,94.946 224.800,90.600 222.778 C 89.720 222.369,87.650 221.822,86.000 221.562 C 84.350 221.303,82.787 220.891,82.528 220.646 C 81.132 219.329,80.197 198.170,81.169 189.915 C 81.447 187.557,81.702 183.804,81.737 181.573 L 81.800 177.517 80.106 176.010 C 79.175 175.181,77.875 174.395,77.219 174.264 C 76.562 174.132,75.660 173.660,75.214 173.214 C 74.173 172.173,71.615 170.800,70.715 170.800 C 70.332 170.800,69.736 170.369,69.391 169.842 C 69.025 169.283,67.763 168.510,66.366 167.987 C 65.048 167.495,63.798 166.771,63.589 166.379 C 63.379 165.987,62.332 165.376,61.261 165.020 C 60.191 164.665,58.903 163.936,58.400 163.400 C 57.897 162.864,56.598 162.132,55.514 161.771 C 54.430 161.411,53.444 160.858,53.322 160.541 C 53.076 159.899,50.783 158.654,49.102 158.250 C 46.691 157.670,46.565 149.934,48.923 147.270 C 49.625 146.477,50.597 143.674,50.985 141.325 C 51.137 140.404,51.673 139.206,52.176 138.664 C 52.679 138.121,53.419 136.445,53.820 134.939 C 54.221 133.432,54.799 132.049,55.105 131.863 C 55.750 131.472,57.200 128.263,57.200 127.226 C 57.200 126.837,57.729 125.965,58.375 125.289 C 59.021 124.613,59.768 123.281,60.034 122.330 C 60.300 121.378,60.922 120.240,61.416 119.800 C 61.910 119.360,62.708 118.073,63.189 116.939 C 63.671 115.806,64.495 114.475,65.021 113.981 C 65.547 113.487,66.176 112.477,66.420 111.738 C 66.664 110.999,67.209 110.209,67.631 109.984 C 68.052 109.758,68.783 108.814,69.254 107.887 C 69.726 106.959,70.627 105.670,71.258 105.022 C 71.889 104.373,72.608 103.280,72.857 102.593 C 73.106 101.905,73.690 101.176,74.155 100.971 C 74.620 100.767,75.311 99.977,75.691 99.216 C 76.071 98.455,76.811 97.607,77.335 97.332 C 77.860 97.057,78.507 96.308,78.772 95.668 C 79.037 95.028,79.696 94.303,80.235 94.057 C 80.775 93.811,81.385 93.164,81.592 92.620 C 81.800 92.075,82.696 91.171,83.584 90.610 C 84.473 90.049,85.200 89.412,85.200 89.195 C 85.200 88.457,86.305 88.796,86.911 89.720 M195.077 168.436 C 192.863 168.670,191.116 169.161,189.077 170.121 C 187.495 170.866,185.611 171.707,184.891 171.990 C 184.170 172.273,183.450 172.715,183.291 172.972 C 183.131 173.230,182.175 173.916,181.167 174.498 C 178.983 175.758,174.766 180.150,174.028 181.933 C 173.739 182.630,173.335 183.200,173.129 183.200 C 172.923 183.200,172.387 184.055,171.938 185.100 C 171.489 186.145,170.600 188.091,169.964 189.425 C 167.648 194.278,167.549 206.036,169.786 210.608 C 170.330 211.719,171.029 213.350,171.340 214.231 C 172.892 218.627,181.133 227.165,185.216 228.606 C 186.116 228.923,187.338 229.528,187.930 229.950 C 192.032 232.871,208.658 232.955,212.448 230.073 C 212.972 229.675,214.260 229.029,215.311 228.637 C 216.362 228.246,217.872 227.312,218.667 226.563 C 219.462 225.813,220.248 225.200,220.415 225.200 C 220.950 225.200,224.596 221.424,225.547 219.886 C 226.052 219.069,226.621 218.400,226.812 218.400 C 227.941 218.400,231.261 210.103,231.853 205.800 C 232.765 199.166,231.850 190.418,229.978 187.885 C 229.525 187.272,228.901 186.052,228.591 185.175 C 227.627 182.442,222.336 176.405,218.843 174.053 C 210.899 168.703,205.231 167.364,195.077 168.436 M204.616 169.162 C 217.644 170.674,229.673 182.722,231.207 195.795 C 232.909 210.293,226.446 222.115,213.270 228.602 C 206.168 232.098,195.542 232.530,189.322 229.574 C 187.959 228.927,186.370 228.217,185.791 227.997 C 184.180 227.384,180.023 224.282,177.882 222.095 C 167.453 211.442,165.992 195.123,174.367 182.838 C 177.143 178.766,184.128 172.400,185.819 172.400 C 185.981 172.400,187.602 171.761,189.421 170.980 C 193.961 169.030,198.647 168.469,204.616 169.162 M273.335 173.546 C 270.135 174.120,269.440 175.540,271.125 178.066 C 273.758 182.012,274.394 183.074,275.006 184.545 C 275.359 185.395,276.081 186.745,276.609 187.545 C 277.137 188.345,277.842 189.777,278.176 190.726 C 278.510 191.676,279.156 192.977,279.612 193.617 C 280.068 194.258,280.864 196.025,281.381 197.544 C 281.898 199.064,282.593 200.733,282.925 201.254 C 283.258 201.774,283.926 203.550,284.410 205.200 C 284.894 206.850,285.609 208.830,285.998 209.600 C 286.388 210.370,287.025 212.440,287.413 214.200 C 287.801 215.960,288.520 218.480,289.012 219.800 C 289.504 221.120,290.216 224.090,290.595 226.400 C 290.974 228.710,291.707 232.400,292.224 234.600 C 294.835 245.724,295.392 270.629,293.545 293.677 C 292.999 300.484,293.367 301.391,297.412 303.206 C 298.784 303.821,300.040 304.541,300.204 304.807 C 300.368 305.072,301.504 305.732,302.728 306.273 C 303.952 306.815,305.472 307.695,306.107 308.229 C 306.742 308.763,307.481 309.200,307.749 309.200 C 308.018 309.200,309.484 310.019,311.009 311.020 C 315.746 314.132,315.807 314.096,326.100 302.200 C 326.862 301.320,327.963 299.835,328.547 298.900 C 329.132 297.965,329.749 297.200,329.919 297.200 C 330.089 297.200,330.566 296.615,330.980 295.900 C 331.394 295.185,332.198 294.044,332.766 293.364 C 333.776 292.156,335.185 290.008,337.200 286.602 C 337.750 285.672,338.470 284.593,338.800 284.203 C 339.874 282.934,342.715 277.506,348.641 265.400 C 349.395 263.860,350.011 262.330,350.010 262.000 C 350.009 261.670,350.478 260.410,351.053 259.200 C 351.628 257.990,352.598 255.380,353.209 253.400 C 353.819 251.420,354.725 248.757,355.222 247.482 L 356.126 245.164 354.961 243.506 C 354.181 242.396,352.993 241.443,351.367 240.624 C 350.031 239.951,348.384 238.995,347.707 238.500 C 347.030 238.005,346.299 237.600,346.083 237.600 C 345.867 237.600,344.815 236.998,343.745 236.263 C 342.675 235.527,340.968 234.557,339.952 234.108 C 338.935 233.658,337.973 233.081,337.815 232.824 C 337.656 232.567,336.538 231.920,335.329 231.386 C 334.121 230.851,332.594 229.961,331.935 229.407 C 331.277 228.853,330.501 228.400,330.210 228.400 C 329.918 228.400,328.717 227.748,327.540 226.950 C 326.363 226.153,324.674 225.186,323.787 224.802 C 320.634 223.436,319.615 221.002,320.655 217.320 C 321.527 214.232,321.918 192.809,321.213 186.743 C 320.321 179.076,319.887 178.557,312.761 176.628 C 305.199 174.582,278.983 172.532,273.335 173.546 M64.549 231.763 C 63.421 232.288,62.379 232.911,62.232 233.148 C 62.086 233.384,61.156 233.936,60.164 234.375 C 59.173 234.813,57.876 235.555,57.281 236.022 C 56.686 236.490,55.570 237.135,54.800 237.455 C 54.030 237.775,52.753 238.483,51.963 239.029 C 51.173 239.575,49.735 240.422,48.769 240.911 C 47.802 241.400,46.426 242.576,45.710 243.525 L 44.409 245.250 45.224 246.846 C 45.671 247.724,46.404 249.918,46.851 251.721 C 47.299 253.525,47.993 255.540,48.393 256.200 C 48.794 256.860,49.497 258.660,49.955 260.200 C 50.414 261.740,51.124 263.544,51.534 264.210 C 51.943 264.875,52.513 266.131,52.801 267.002 C 53.259 268.391,55.386 272.660,59.278 280.000 C 60.510 282.325,62.607 285.798,63.987 287.800 C 64.442 288.460,65.438 289.900,66.199 291.000 C 66.960 292.100,67.902 293.519,68.291 294.153 C 68.681 294.787,69.630 296.086,70.400 297.040 C 71.170 297.994,72.520 299.699,73.400 300.830 C 82.373 312.362,84.988 314.120,89.029 311.340 C 89.893 310.745,91.590 309.739,92.800 309.104 C 95.944 307.453,99.254 305.534,100.622 304.570 C 101.270 304.113,102.373 303.511,103.073 303.233 C 103.773 302.954,104.943 302.283,105.673 301.741 C 106.403 301.200,107.808 300.398,108.795 299.959 C 109.782 299.520,110.955 298.818,111.400 298.400 C 111.846 297.981,112.903 297.349,113.750 296.995 C 114.596 296.641,116.214 295.714,117.344 294.935 C 119.959 293.132,122.548 293.215,124.570 295.166 C 125.247 295.819,126.430 296.810,127.200 297.369 C 130.374 299.672,134.210 302.257,135.754 303.133 C 136.659 303.647,137.715 304.349,138.099 304.694 C 138.484 305.040,139.924 305.887,141.299 306.578 C 142.675 307.269,144.340 308.127,145.000 308.486 C 147.570 309.882,153.101 312.349,155.095 312.989 C 156.248 313.359,157.291 313.823,157.413 314.020 C 158.368 315.567,162.825 311.670,169.862 303.134 C 173.007 299.320,173.895 298.147,175.264 296.000 C 176.036 294.790,176.967 293.553,177.334 293.251 C 177.700 292.949,178.000 292.495,178.000 292.242 C 178.000 291.989,178.515 291.156,179.143 290.391 C 179.772 289.626,180.697 288.190,181.198 287.200 C 181.700 286.210,182.451 284.964,182.867 284.431 C 183.283 283.898,183.987 282.638,184.430 281.631 C 184.874 280.624,185.666 279.170,186.189 278.400 C 188.915 274.392,187.802 272.176,183.284 272.616 C 177.365 273.193,157.653 271.764,152.200 270.363 C 150.440 269.911,147.067 269.192,144.704 268.766 C 142.342 268.340,139.480 267.626,138.346 267.179 C 137.211 266.731,134.813 266.023,133.016 265.604 C 131.219 265.185,128.861 264.406,127.775 263.874 C 126.689 263.341,124.925 262.694,123.854 262.435 C 122.784 262.177,120.855 261.433,119.566 260.783 C 118.277 260.132,116.962 259.600,116.644 259.600 C 116.325 259.600,114.655 258.888,112.932 258.019 C 111.210 257.149,108.990 256.080,108.000 255.643 C 107.010 255.205,105.750 254.575,105.200 254.242 C 104.650 253.909,103.300 253.202,102.200 252.670 C 98.827 251.040,94.632 248.759,94.000 248.211 C 93.670 247.925,92.500 247.214,91.400 246.630 C 90.300 246.047,88.835 245.171,88.144 244.685 C 87.453 244.198,86.373 243.489,85.744 243.110 C 85.115 242.730,83.570 241.740,82.311 240.910 C 75.802 236.617,74.020 235.348,71.626 233.302 C 68.658 230.765,67.318 230.474,64.549 231.763 M255.784 248.900 C 254.970 249.835,253.798 251.656,253.178 252.947 C 252.559 254.237,251.700 255.677,251.270 256.147 C 250.840 256.616,250.022 257.932,249.452 259.072 C 248.882 260.211,248.228 261.259,248.000 261.400 C 247.772 261.541,247.140 262.534,246.597 263.606 C 246.054 264.678,245.380 265.700,245.101 265.878 C 244.821 266.055,244.072 267.010,243.437 268.000 C 242.801 268.990,241.759 270.430,241.121 271.200 C 240.483 271.970,239.243 273.500,238.367 274.600 C 233.975 280.112,224.274 289.956,218.066 295.200 C 214.346 298.343,213.727 298.847,212.059 300.096 C 211.102 300.813,209.302 302.164,208.059 303.097 C 206.817 304.031,205.278 305.111,204.641 305.497 C 204.003 305.884,202.923 306.671,202.241 307.246 C 201.558 307.822,200.280 308.657,199.400 309.104 C 198.520 309.550,197.472 310.278,197.071 310.721 C 196.670 311.164,195.770 311.754,195.071 312.032 C 194.372 312.309,192.990 313.113,192.000 313.817 C 191.010 314.522,189.794 315.224,189.298 315.377 C 188.802 315.530,187.902 316.059,187.298 316.553 C 186.694 317.047,185.210 317.864,184.000 318.368 C 182.790 318.873,181.429 319.625,180.976 320.041 C 180.523 320.457,179.263 321.092,178.176 321.452 C 177.089 321.813,175.660 322.506,175.000 322.993 C 174.340 323.480,173.080 324.110,172.200 324.393 C 171.320 324.676,169.446 325.514,168.037 326.255 C 166.627 326.997,164.767 327.793,163.904 328.026 C 163.042 328.258,161.675 329.053,160.868 329.793 L 159.400 331.137 159.282 342.843 C 159.124 358.560,158.786 358.047,170.463 359.780 C 174.059 360.314,178.170 361.036,179.600 361.386 C 186.490 363.071,215.154 363.077,221.400 361.394 C 222.720 361.039,226.722 360.315,230.294 359.785 C 242.123 358.032,241.200 360.049,241.200 335.966 L 241.200 316.509 242.292 315.417 C 243.627 314.083,244.849 313.431,247.200 312.802 C 248.190 312.537,250.080 311.727,251.400 311.002 C 252.720 310.277,254.250 309.551,254.800 309.389 C 255.350 309.227,256.340 308.714,257.000 308.248 C 257.660 307.781,259.075 306.994,260.145 306.497 C 261.215 306.001,262.624 305.146,263.276 304.597 C 263.928 304.049,264.693 303.600,264.976 303.600 C 265.433 303.600,266.764 302.705,272.540 298.517 C 279.180 293.703,280.130 290.673,276.974 284.371 C 276.471 283.366,275.763 281.386,275.400 279.971 C 275.038 278.557,274.371 276.770,273.919 276.000 C 273.466 275.230,272.669 273.355,272.149 271.832 C 271.628 270.310,270.945 268.780,270.631 268.432 C 270.318 268.085,269.665 266.720,269.180 265.400 C 268.696 264.080,267.987 262.640,267.605 262.200 C 267.223 261.760,266.427 260.326,265.837 259.013 C 265.247 257.699,264.590 256.518,264.378 256.386 C 264.165 256.255,263.498 255.232,262.895 254.113 C 261.206 250.976,258.432 247.200,257.816 247.200 C 257.512 247.200,256.597 247.965,255.784 248.900 M259.132 251.744 C 259.585 252.708,260.218 253.598,260.538 253.721 C 260.858 253.844,261.339 254.632,261.608 255.472 C 261.876 256.312,262.704 257.795,263.448 258.766 C 264.192 259.737,264.800 260.844,264.800 261.225 C 264.800 261.607,265.417 262.836,266.171 263.956 C 266.924 265.077,267.817 266.943,268.155 268.104 C 268.493 269.266,269.132 270.605,269.576 271.082 C 270.020 271.558,270.730 273.200,271.154 274.730 C 271.991 277.752,272.641 279.200,273.159 279.200 C 273.342 279.200,273.713 280.325,273.985 281.700 C 274.675 285.191,275.549 287.860,276.172 288.377 C 277.538 289.511,277.306 292.986,275.840 293.354 C 275.343 293.479,274.732 294.030,274.482 294.579 C 274.232 295.129,273.361 295.856,272.546 296.197 C 271.731 296.537,270.826 297.156,270.536 297.571 C 270.245 297.986,269.150 298.737,268.103 299.240 C 267.057 299.743,265.723 300.659,265.140 301.277 C 264.556 301.895,263.718 302.400,263.277 302.400 C 262.836 302.400,261.726 303.027,260.809 303.792 C 259.893 304.558,258.416 305.380,257.527 305.620 C 256.638 305.859,255.521 306.476,255.044 306.991 C 254.567 307.505,253.102 308.234,251.788 308.609 C 250.475 308.984,248.833 309.716,248.141 310.235 C 247.448 310.754,246.077 311.359,245.094 311.579 C 239.443 312.845,239.838 311.153,239.600 335.157 L 239.400 355.349 236.800 356.009 C 235.370 356.371,233.660 356.948,233.000 357.291 C 232.340 357.633,229.730 358.118,227.200 358.368 C 219.733 359.106,211.593 360.009,208.723 360.418 C 204.355 361.041,195.481 360.860,188.800 360.010 C 185.390 359.577,179.614 358.943,175.964 358.601 C 171.087 358.144,168.917 357.770,167.779 357.189 C 166.928 356.755,165.864 356.390,165.415 356.378 C 164.967 356.365,163.812 356.036,162.849 355.645 L 161.098 354.935 161.049 343.686 C 161.000 332.467,161.002 332.436,161.879 332.037 C 162.362 331.817,163.048 331.194,163.402 330.652 C 163.846 329.975,164.694 329.518,166.124 329.185 C 168.219 328.697,171.200 327.285,171.200 326.779 C 171.200 326.629,172.276 326.204,173.591 325.835 C 174.906 325.466,176.512 324.717,177.160 324.172 C 177.809 323.626,179.171 322.930,180.188 322.624 C 181.204 322.318,182.662 321.590,183.427 321.006 C 184.193 320.423,185.628 319.669,186.617 319.332 C 187.606 318.995,188.583 318.406,188.789 318.021 C 188.994 317.637,190.026 317.002,191.081 316.610 C 192.137 316.218,193.540 315.392,194.200 314.776 C 194.860 314.160,195.881 313.537,196.470 313.392 C 197.058 313.247,198.236 312.533,199.086 311.804 C 199.937 311.076,201.317 310.195,202.153 309.846 C 203.020 309.483,203.765 308.856,203.888 308.385 C 204.021 307.877,204.546 307.471,205.253 307.329 C 205.884 307.203,207.166 306.429,208.101 305.609 C 209.035 304.788,210.380 303.819,211.088 303.455 C 211.797 303.090,212.568 302.433,212.803 301.995 C 213.037 301.557,213.855 300.937,214.621 300.617 C 215.386 300.297,216.150 299.664,216.318 299.211 C 216.486 298.757,217.248 298.074,218.011 297.693 C 218.775 297.312,219.578 296.593,219.796 296.096 C 220.014 295.599,220.554 295.085,220.996 294.954 C 221.438 294.823,222.446 294.059,223.237 293.258 C 224.027 292.456,226.414 290.090,228.542 288.000 C 234.758 281.895,235.600 281.001,235.600 280.510 C 235.600 280.255,236.139 279.727,236.797 279.338 C 237.455 278.949,238.175 278.082,238.396 277.411 C 238.618 276.739,239.204 276.012,239.700 275.795 C 240.195 275.578,240.910 274.739,241.289 273.931 C 241.668 273.122,242.310 272.355,242.717 272.226 C 243.123 272.097,243.745 271.385,244.099 270.643 C 244.453 269.900,245.296 268.663,245.973 267.892 C 246.649 267.122,247.463 265.867,247.782 265.104 C 248.101 264.341,248.805 263.427,249.346 263.072 C 249.888 262.717,250.455 261.861,250.607 261.169 C 250.759 260.476,251.469 259.255,252.185 258.455 C 252.901 257.655,253.702 256.339,253.964 255.532 C 254.226 254.725,254.694 253.854,255.002 253.598 C 255.311 253.342,256.032 252.333,256.604 251.356 C 257.799 249.317,258.006 249.349,259.132 251.744 " stroke="none" fill="#42a5f5" fill-rule="evenodd"></path><path id="path2" d="M168.800 0.938 C 168.800 2.329,169.934 3.079,172.400 3.320 C 173.610 3.438,175.772 3.737,177.204 3.984 C 179.134 4.316,182.085 4.315,188.604 3.977 C 199.494 3.412,200.695 3.412,210.600 3.975 C 224.980 4.793,231.200 3.876,231.200 0.938 L 231.200 0.000 200.000 0.000 L 168.800 0.000 168.800 0.938 M159.000 2.200 C 158.780 2.275,157.757 2.450,156.728 2.589 C 155.367 2.772,154.525 3.178,153.649 4.075 C 152.474 5.276,152.341 5.310,148.586 5.354 C 144.895 5.398,144.690 5.447,143.777 6.508 C 141.774 8.838,144.251 10.614,149.121 10.340 C 150.485 10.263,151.601 10.335,151.601 10.500 C 151.600 10.665,149.902 10.800,147.826 10.800 C 145.750 10.800,143.591 10.975,143.027 11.190 C 142.093 11.545,141.951 11.457,141.427 10.204 C 140.760 8.608,139.664 8.199,136.892 8.511 C 132.453 9.011,132.545 12.422,137.024 13.399 L 139.400 13.918 136.733 13.959 C 133.188 14.013,132.800 14.199,132.800 15.843 L 132.800 17.200 129.357 17.200 C 126.382 17.200,125.947 17.114,126.157 16.567 C 126.291 16.219,126.400 15.880,126.400 15.814 C 126.400 15.748,127.115 15.940,127.989 16.241 C 129.944 16.914,131.448 16.451,131.997 15.007 C 133.273 11.652,128.742 10.348,125.781 13.218 C 124.811 14.158,124.066 14.469,122.370 14.642 C 119.565 14.928,118.529 15.454,118.047 16.837 C 117.687 17.870,117.473 17.968,115.330 18.079 C 113.132 18.193,112.949 18.283,112.034 19.700 C 111.121 21.115,110.949 21.200,108.995 21.200 C 106.906 21.200,106.035 21.708,105.495 23.243 C 105.364 23.617,104.610 23.992,103.699 24.138 C 102.793 24.283,101.636 24.856,100.964 25.494 C 100.324 26.101,99.081 26.779,98.203 26.999 C 95.340 27.718,94.784 31.125,97.354 32.210 L 98.600 32.736 97.000 32.868 C 95.467 32.994,95.395 33.063,95.276 34.500 C 95.155 35.958,95.108 36.000,93.576 36.000 C 91.906 36.000,91.460 35.425,92.800 35.000 C 94.569 34.438,94.819 31.667,93.180 30.789 C 92.056 30.188,90.898 30.651,90.213 31.975 C 89.840 32.696,89.201 33.180,88.413 33.337 C 87.185 33.583,86.691 34.290,86.229 36.463 C 86.015 37.470,85.931 37.504,84.644 37.109 C 82.879 36.567,81.250 36.995,80.838 38.108 C 80.658 38.595,79.811 39.355,78.956 39.798 C 77.954 40.317,77.354 40.929,77.270 41.518 C 77.177 42.174,76.794 42.501,75.914 42.677 C 74.959 42.868,74.554 43.263,74.083 44.461 C 73.707 45.418,73.218 46.000,72.788 46.000 C 71.871 46.000,71.157 46.915,70.835 48.502 C 70.590 49.706,70.442 49.809,68.786 49.928 C 66.740 50.074,65.600 50.909,65.600 52.262 C 65.600 52.988,65.381 53.200,64.629 53.200 C 64.062 53.200,63.321 53.629,62.848 54.229 C 62.403 54.796,61.535 55.392,60.919 55.554 C 60.304 55.717,59.446 56.384,59.013 57.038 C 58.580 57.692,57.692 58.580,57.038 59.013 C 56.384 59.446,55.717 60.304,55.554 60.919 C 55.392 61.535,54.796 62.403,54.229 62.848 C 53.629 63.321,53.200 64.062,53.200 64.629 C 53.200 65.381,52.988 65.600,52.262 65.600 C 50.909 65.600,50.074 66.740,49.928 68.786 C 49.809 70.442,49.706 70.590,48.502 70.835 C 46.915 71.157,46.000 71.871,46.000 72.788 C 46.000 73.218,45.418 73.707,44.461 74.083 C 43.263 74.554,42.868 74.959,42.677 75.914 C 42.501 76.794,42.174 77.177,41.518 77.270 C 40.929 77.354,40.317 77.954,39.798 78.956 C 39.355 79.811,38.595 80.658,38.108 80.838 C 36.995 81.250,36.567 82.879,37.109 84.644 C 37.504 85.931,37.470 86.015,36.463 86.229 C 34.290 86.691,33.583 87.185,33.337 88.413 C 33.180 89.201,32.696 89.840,31.975 90.213 C 30.651 90.898,30.188 92.056,30.789 93.180 C 31.667 94.819,34.438 94.569,35.000 92.800 C 35.425 91.460,36.000 91.906,36.000 93.576 C 36.000 95.108,35.958 95.155,34.500 95.276 C 33.063 95.395,32.994 95.467,32.868 97.000 L 32.736 98.600 32.210 97.354 C 31.125 94.784,27.718 95.340,26.999 98.203 C 26.779 99.081,26.101 100.324,25.494 100.964 C 24.856 101.636,24.283 102.793,24.138 103.699 C 23.992 104.610,23.617 105.364,23.243 105.495 C 21.708 106.035,21.200 106.906,21.200 108.995 C 21.200 110.949,21.115 111.121,19.700 112.034 C 18.283 112.949,18.193 113.132,18.079 115.330 C 17.968 117.473,17.870 117.687,16.837 118.047 C 15.454 118.529,14.928 119.565,14.642 122.370 C 14.469 124.066,14.158 124.811,13.218 125.781 C 10.348 128.742,11.652 133.273,15.007 131.997 C 16.445 131.451,16.914 129.944,16.249 128.011 C 15.727 126.498,15.922 126.000,17.033 126.000 C 17.125 126.000,17.200 127.530,17.200 129.400 L 17.200 132.800 15.843 132.800 C 14.184 132.800,14.012 133.177,13.961 136.933 L 13.922 139.800 13.417 137.236 C 12.741 133.796,11.459 132.814,9.605 134.316 C 7.648 135.900,8.038 140.522,10.204 141.427 C 11.457 141.951,11.545 142.093,11.190 143.027 C 10.975 143.591,10.800 145.750,10.800 147.826 C 10.800 149.902,10.665 151.600,10.500 151.601 C 10.335 151.601,10.263 150.485,10.340 149.121 C 10.614 144.251,8.838 141.774,6.508 143.777 C 5.447 144.690,5.398 144.895,5.354 148.586 C 5.310 152.323,5.271 152.479,4.100 153.623 C 2.708 154.985,2.515 155.680,2.154 160.623 C 1.861 164.636,2.194 165.789,3.826 166.410 C 7.003 167.618,7.720 164.826,6.704 155.212 C 6.633 154.539,6.823 154.180,7.300 154.083 C 7.944 153.953,8.000 154.468,8.000 160.526 L 8.000 167.111 6.639 167.366 C 5.890 167.507,5.170 167.902,5.039 168.244 C 4.421 169.852,4.788 231.723,5.419 232.421 C 5.989 233.051,5.926 233.125,4.616 233.371 C 2.307 233.804,1.832 234.950,2.150 239.320 C 2.579 245.200,3.277 246.800,5.416 246.800 C 6.575 246.800,6.642 247.323,5.754 249.448 C 4.253 253.040,6.132 257.852,8.596 256.729 C 10.264 255.969,10.926 251.792,9.806 249.100 C 9.603 248.613,9.699 248.400,10.123 248.400 C 11.010 248.400,11.317 257.601,10.449 258.200 C 8.668 259.430,8.400 259.994,8.406 262.500 C 8.413 265.236,8.573 265.656,9.874 266.340 C 11.854 267.383,13.275 266.046,13.637 262.800 L 13.882 260.600 13.941 263.467 C 13.974 265.044,14.106 266.612,14.236 266.951 C 14.401 267.379,14.155 267.646,13.426 267.829 C 10.770 268.496,10.865 274.467,13.549 275.579 C 14.711 276.060,14.771 276.201,14.883 278.738 C 15.101 283.685,19.284 283.828,19.519 278.896 C 19.687 275.377,20.343 275.788,20.483 279.500 L 20.600 282.600 22.100 282.724 L 23.600 282.848 23.600 285.781 C 23.600 288.850,23.808 289.200,25.633 289.200 C 26.271 289.200,26.397 289.485,26.384 290.900 L 26.369 292.600 25.810 291.314 C 25.454 290.497,24.865 289.931,24.196 289.763 C 20.831 288.919,19.545 293.507,22.837 294.611 C 24.153 295.052,24.204 295.147,24.321 297.360 C 24.432 299.478,24.542 299.711,25.771 300.436 C 26.803 301.045,27.157 301.570,27.350 302.779 C 27.503 303.734,28.055 304.793,28.774 305.512 C 29.419 306.158,30.101 307.297,30.288 308.043 C 30.527 308.996,31.003 309.579,31.887 310.000 C 32.832 310.451,33.246 311.000,33.555 312.209 C 33.781 313.093,34.513 314.342,35.183 314.983 C 35.852 315.625,36.400 316.526,36.400 316.986 C 36.400 318.139,37.496 319.600,38.362 319.600 C 38.822 319.600,39.295 320.151,39.683 321.139 C 40.142 322.307,40.566 322.733,41.445 322.909 C 42.257 323.071,42.737 323.499,43.056 324.343 C 43.406 325.270,43.886 325.646,45.155 325.988 C 46.758 326.419,46.800 326.475,46.800 328.149 C 46.800 329.554,47.019 330.063,48.000 330.937 C 48.660 331.525,49.200 332.356,49.200 332.783 C 49.200 333.210,49.832 334.042,50.605 334.631 C 51.378 335.221,52.123 336.149,52.259 336.695 C 52.414 337.310,53.001 337.892,53.807 338.229 C 54.639 338.576,55.200 339.146,55.367 339.812 C 55.537 340.488,56.098 341.049,56.967 341.412 C 57.836 341.775,58.398 342.337,58.567 343.012 C 58.737 343.688,59.298 344.249,60.167 344.612 C 61.036 344.975,61.598 345.537,61.767 346.211 C 61.934 346.877,62.447 347.397,63.190 347.656 C 63.829 347.879,64.822 348.678,65.396 349.431 C 65.971 350.184,66.790 350.800,67.217 350.800 C 67.644 350.800,68.469 351.334,69.050 351.986 C 69.901 352.940,70.252 353.093,70.853 352.771 C 71.889 352.217,71.787 350.941,70.647 350.194 C 70.123 349.851,69.586 349.030,69.454 348.370 C 69.301 347.603,68.780 346.924,68.010 346.485 C 66.342 345.537,66.497 345.200,68.600 345.200 L 70.400 345.200 70.400 346.800 L 70.400 348.400 72.000 348.400 C 73.596 348.400,73.600 348.404,73.600 349.976 C 73.600 351.506,73.643 351.556,75.100 351.685 L 76.600 351.819 75.490 352.378 C 73.460 353.401,73.670 356.501,75.806 357.037 C 76.546 357.223,76.908 357.639,77.081 358.505 C 77.268 359.439,77.670 359.849,78.861 360.317 C 79.849 360.705,80.400 361.178,80.400 361.638 C 80.400 362.504,81.861 363.600,83.014 363.600 C 83.474 363.600,84.375 364.148,85.017 364.817 C 85.658 365.487,86.907 366.219,87.791 366.445 C 89.000 366.754,89.549 367.168,90.000 368.113 C 90.421 368.997,91.004 369.473,91.957 369.712 C 92.703 369.899,93.823 370.561,94.445 371.184 C 95.067 371.806,96.255 372.475,97.083 372.671 C 97.972 372.881,98.763 373.374,99.011 373.871 C 99.743 375.340,100.471 376.000,101.360 376.000 C 104.250 376.000,105.013 372.406,102.400 371.101 L 101.000 370.401 102.900 370.401 L 104.800 370.400 104.800 371.795 C 104.800 373.120,104.883 373.204,106.443 373.453 L 108.086 373.716 106.857 374.233 C 105.458 374.821,104.962 376.122,105.549 377.665 C 106.294 379.624,109.724 379.441,110.232 377.414 C 110.462 376.499,110.681 376.400,112.467 376.400 C 113.685 376.400,114.352 376.554,114.200 376.800 C 114.064 377.020,113.721 377.200,113.438 377.200 C 112.122 377.200,111.224 379.354,111.855 380.998 C 112.521 382.735,115.692 382.462,116.397 380.607 C 116.765 379.640,116.916 379.600,120.166 379.600 L 123.552 379.600 123.676 381.100 L 123.800 382.600 126.800 382.800 C 129.600 382.987,129.950 383.600,127.256 383.600 C 122.789 383.600,123.565 387.825,128.136 388.392 C 130.282 388.658,131.040 388.943,131.805 389.768 C 133.131 391.199,134.396 391.600,137.580 391.600 C 140.002 391.600,140.377 391.705,140.924 392.540 C 142.794 395.395,149.773 395.702,150.809 392.976 L 151.180 392.000 157.590 392.000 C 163.770 392.000,164.000 392.029,164.000 392.814 C 164.000 393.495,163.873 393.560,163.226 393.214 C 161.580 392.333,154.560 392.701,153.362 393.731 C 150.009 396.615,156.926 399.359,162.747 397.455 C 165.501 396.554,165.600 396.587,165.600 398.400 L 165.600 400.000 176.600 400.000 C 188.211 400.000,188.046 400.027,187.360 398.241 C 186.395 395.726,177.248 395.006,167.100 396.645 C 165.764 396.861,165.600 396.795,165.600 396.044 C 165.600 395.204,165.653 395.200,177.958 395.200 L 190.315 395.200 191.543 396.347 C 194.364 398.982,209.175 398.710,209.881 396.011 C 210.084 395.235,210.473 395.208,222.745 395.106 L 235.400 395.000 235.771 393.500 L 236.141 392.000 242.606 392.000 L 249.072 392.000 249.518 392.980 C 250.423 394.966,255.533 395.357,257.963 393.626 C 259.244 392.714,259.717 390.800,258.661 390.800 C 258.365 390.800,257.548 390.513,256.845 390.163 C 256.031 389.756,254.847 389.575,253.583 389.663 C 252.492 389.738,251.600 389.665,251.600 389.500 C 251.600 388.743,259.101 389.178,259.302 389.947 C 259.493 390.679,260.328 390.969,263.659 391.461 C 265.416 391.720,267.671 390.761,268.586 389.366 C 269.154 388.499,269.502 388.400,271.987 388.400 C 274.394 388.400,274.836 388.284,275.377 387.511 C 276.931 385.293,275.474 383.350,272.358 383.484 C 271.281 383.531,270.400 383.409,270.400 383.215 C 270.400 382.155,276.909 382.586,277.286 383.671 C 278.045 385.855,281.518 385.751,283.945 383.473 C 284.536 382.919,285.742 382.362,286.685 382.209 C 287.777 382.031,288.882 381.466,289.823 380.605 C 290.621 379.873,291.896 379.159,292.655 379.016 C 295.196 378.539,295.491 375.236,293.086 374.190 C 291.878 373.665,291.861 373.630,292.800 373.610 C 293.350 373.599,294.187 373.485,294.661 373.358 C 295.327 373.179,295.644 373.382,296.062 374.254 C 297.186 376.601,299.676 376.503,300.772 374.070 C 301.268 372.970,301.546 372.800,302.846 372.800 C 304.956 372.800,306.352 372.177,306.783 371.044 C 307.016 370.431,307.592 369.977,308.348 369.811 C 309.825 369.487,310.223 369.006,310.559 367.135 C 310.823 365.672,310.825 365.671,312.258 366.067 C 314.206 366.605,315.470 366.211,316.175 364.848 C 316.562 364.100,317.191 363.622,318.001 363.460 C 318.914 363.277,319.348 362.894,319.662 361.993 C 319.939 361.201,320.547 360.582,321.402 360.225 C 322.493 359.769,322.764 359.397,322.994 358.038 C 323.268 356.412,323.283 356.400,325.023 356.400 C 326.507 356.400,326.912 356.216,327.663 355.200 C 328.151 354.540,328.852 354.000,329.221 354.000 C 330.097 354.000,332.000 352.495,332.000 351.803 C 332.000 351.506,332.528 351.148,333.172 351.006 C 334.466 350.722,335.041 350.183,335.257 349.052 C 335.341 348.613,335.975 348.116,336.787 347.852 C 337.828 347.512,338.263 347.087,338.533 346.141 C 338.800 345.203,339.183 344.823,340.031 344.654 C 340.899 344.480,341.250 344.117,341.505 343.133 C 341.766 342.129,342.129 341.766,343.133 341.505 C 344.117 341.250,344.480 340.899,344.654 340.031 C 344.823 339.183,345.203 338.800,346.141 338.533 C 347.087 338.263,347.512 337.828,347.852 336.787 C 348.116 335.975,348.613 335.341,349.052 335.257 C 350.183 335.041,350.722 334.466,351.006 333.172 C 351.148 332.528,351.506 332.000,351.803 332.000 C 352.495 332.000,354.000 330.097,354.000 329.221 C 354.000 328.852,354.540 328.151,355.200 327.663 C 356.216 326.912,356.400 326.507,356.400 325.023 C 356.400 323.283,356.412 323.268,358.038 322.994 C 359.397 322.764,359.769 322.493,360.225 321.402 C 360.582 320.547,361.201 319.939,361.993 319.662 C 362.894 319.348,363.277 318.914,363.460 318.001 C 363.622 317.191,364.100 316.562,364.848 316.175 C 366.211 315.470,366.605 314.206,366.067 312.258 C 365.671 310.825,365.672 310.823,367.135 310.559 C 369.006 310.223,369.487 309.825,369.811 308.348 C 369.977 307.592,370.431 307.016,371.044 306.783 C 372.177 306.352,372.800 304.956,372.800 302.846 C 372.800 301.546,372.970 301.268,374.070 300.772 C 376.503 299.676,376.601 297.186,374.254 296.062 C 373.382 295.644,373.179 295.327,373.358 294.661 C 373.485 294.187,373.599 293.350,373.610 292.800 C 373.630 291.861,373.665 291.878,374.190 293.086 C 375.236 295.491,378.539 295.196,379.016 292.655 C 379.159 291.896,379.873 290.621,380.605 289.823 C 381.466 288.882,382.031 287.777,382.209 286.685 C 382.362 285.742,382.919 284.536,383.473 283.945 C 385.751 281.518,385.855 278.045,383.671 277.286 C 382.586 276.909,382.155 270.400,383.215 270.400 C 383.409 270.400,383.531 271.281,383.484 272.358 C 383.350 275.474,385.293 276.931,387.511 275.377 C 388.284 274.836,388.400 274.394,388.400 271.987 C 388.400 269.502,388.499 269.154,389.366 268.586 C 390.761 267.671,391.720 265.416,391.461 263.659 C 390.969 260.328,390.679 259.493,389.947 259.302 C 389.178 259.101,388.743 251.600,389.500 251.600 C 389.665 251.600,389.738 252.492,389.663 253.583 C 389.575 254.847,389.756 256.031,390.163 256.845 C 390.513 257.548,390.800 258.365,390.800 258.661 C 390.800 259.717,392.714 259.244,393.626 257.963 C 395.357 255.533,394.966 250.423,392.980 249.518 L 392.000 249.072 392.000 242.606 L 392.000 236.141 393.500 235.771 L 395.000 235.400 395.106 222.745 C 395.208 210.473,395.235 210.084,396.011 209.881 C 398.710 209.175,398.982 194.364,396.347 191.543 L 395.200 190.315 395.200 177.958 C 395.200 165.653,395.204 165.600,396.044 165.600 C 396.795 165.600,396.861 165.764,396.645 167.100 C 395.006 177.248,395.726 186.395,398.241 187.360 C 400.027 188.046,400.000 188.211,400.000 176.600 L 400.000 165.600 398.400 165.600 C 396.587 165.600,396.554 165.501,397.455 162.747 C 399.359 156.926,396.615 150.009,393.731 153.362 C 392.701 154.560,392.333 161.580,393.214 163.226 C 393.560 163.873,393.495 164.000,392.814 164.000 C 392.029 164.000,392.000 163.770,392.000 157.590 L 392.000 151.180 392.976 150.809 C 395.702 149.773,395.395 142.794,392.540 140.924 C 391.705 140.377,391.600 140.002,391.600 137.580 C 391.600 134.396,391.199 133.131,389.768 131.805 C 388.943 131.040,388.658 130.282,388.392 128.136 C 387.825 123.565,383.600 122.789,383.600 127.256 C 383.600 129.950,382.987 129.600,382.800 126.800 L 382.600 123.800 381.100 123.676 L 379.600 123.552 379.600 120.166 C 379.600 116.916,379.640 116.765,380.607 116.397 C 382.462 115.692,382.735 112.521,380.998 111.855 C 379.312 111.208,377.200 112.127,377.200 113.508 C 377.200 113.753,377.020 114.064,376.800 114.200 C 376.554 114.352,376.400 113.685,376.400 112.467 C 376.400 110.681,376.499 110.462,377.414 110.232 C 379.441 109.724,379.624 106.294,377.665 105.549 C 376.122 104.962,374.821 105.458,374.233 106.857 L 373.716 108.086 373.453 106.443 C 373.204 104.883,373.120 104.800,371.795 104.800 L 370.400 104.800 370.401 102.900 L 370.401 101.000 371.101 102.400 C 372.406 105.013,376.000 104.250,376.000 101.360 C 376.000 100.471,375.340 99.743,373.871 99.011 C 373.374 98.763,372.881 97.972,372.671 97.083 C 372.475 96.255,371.806 95.067,371.184 94.445 C 370.561 93.823,369.899 92.703,369.712 91.957 C 369.473 91.004,368.997 90.421,368.113 90.000 C 367.168 89.549,366.754 89.000,366.445 87.791 C 366.219 86.907,365.487 85.658,364.817 85.017 C 364.148 84.375,363.600 83.474,363.600 83.014 C 363.600 81.861,362.504 80.400,361.638 80.400 C 361.178 80.400,360.705 79.849,360.317 78.861 C 359.849 77.670,359.439 77.268,358.505 77.081 C 357.639 76.908,357.223 76.546,357.037 75.806 C 356.501 73.670,353.401 73.460,352.378 75.490 L 351.819 76.600 351.685 75.100 C 351.556 73.643,351.506 73.600,349.976 73.600 C 348.404 73.600,348.400 73.596,348.400 72.000 L 348.400 70.400 346.800 70.400 L 345.200 70.400 345.200 68.600 C 345.200 66.497,345.537 66.342,346.485 68.010 C 346.924 68.780,347.603 69.301,348.370 69.454 C 349.030 69.586,349.851 70.123,350.194 70.647 C 350.941 71.787,352.217 71.889,352.771 70.853 C 353.093 70.252,352.940 69.901,351.986 69.050 C 351.334 68.469,350.800 67.644,350.800 67.217 C 350.800 66.790,350.184 65.971,349.431 65.396 C 348.678 64.822,347.879 63.829,347.656 63.190 C 347.397 62.447,346.877 61.934,346.211 61.767 C 345.537 61.598,344.975 61.036,344.612 60.167 C 344.249 59.298,343.688 58.737,343.012 58.567 C 342.337 58.398,341.775 57.836,341.412 56.967 C 341.049 56.098,340.488 55.537,339.812 55.367 C 339.146 55.200,338.576 54.639,338.229 53.807 C 337.892 53.001,337.310 52.414,336.695 52.259 C 336.149 52.123,335.221 51.378,334.631 50.605 C 334.042 49.832,333.210 49.200,332.783 49.200 C 332.356 49.200,331.525 48.660,330.937 48.000 C 330.063 47.019,329.554 46.800,328.149 46.800 C 326.475 46.800,326.419 46.758,325.988 45.155 C 325.646 43.886,325.270 43.406,324.343 43.056 C 323.499 42.737,323.071 42.257,322.909 41.445 C 322.733 40.566,322.307 40.142,321.139 39.683 C 320.151 39.295,319.600 38.822,319.600 38.362 C 319.600 37.496,318.139 36.400,316.986 36.400 C 316.526 36.400,315.625 35.852,314.983 35.183 C 314.342 34.513,313.093 33.781,312.209 33.555 C 311.000 33.246,310.451 32.832,310.000 31.887 C 309.579 31.003,308.996 30.527,308.043 30.288 C 307.297 30.101,306.158 29.419,305.512 28.774 C 304.793 28.055,303.734 27.503,302.779 27.350 C 301.570 27.157,301.045 26.803,300.436 25.771 C 299.711 24.542,299.478 24.432,297.360 24.321 C 295.147 24.204,295.052 24.153,294.611 22.837 C 293.507 19.545,288.919 20.831,289.763 24.196 C 289.931 24.865,290.497 25.454,291.314 25.810 L 292.600 26.369 290.900 26.384 C 289.485 26.397,289.200 26.271,289.200 25.633 C 289.200 23.808,288.850 23.600,285.781 23.600 L 282.848 23.600 282.724 22.100 L 282.600 20.600 279.500 20.483 C 275.788 20.343,275.377 19.687,278.896 19.519 C 283.828 19.284,283.685 15.101,278.738 14.883 C 276.201 14.771,276.060 14.711,275.579 13.549 C 274.467 10.865,268.496 10.770,267.829 13.426 C 267.646 14.155,267.379 14.401,266.951 14.236 C 266.612 14.106,265.044 13.974,263.467 13.941 L 260.600 13.882 262.800 13.637 C 266.046 13.275,267.383 11.854,266.340 9.874 C 265.656 8.573,265.236 8.413,262.500 8.406 C 259.994 8.400,259.430 8.668,258.200 10.449 C 257.601 11.317,248.400 11.010,248.400 10.123 C 248.400 9.699,248.613 9.603,249.100 9.806 C 251.792 10.926,255.969 10.264,256.729 8.596 C 257.852 6.132,253.040 4.253,249.448 5.754 C 247.323 6.642,246.800 6.575,246.800 5.416 C 246.800 3.277,245.200 2.579,239.320 2.150 C 234.950 1.832,233.804 2.307,233.371 4.616 C 233.125 5.926,233.051 5.989,232.421 5.419 C 231.723 4.788,169.852 4.421,168.244 5.039 C 167.902 5.170,167.507 5.890,167.366 6.639 L 167.111 8.000 160.526 8.000 C 154.468 8.000,153.953 7.944,154.083 7.300 C 154.180 6.823,154.539 6.633,155.212 6.704 C 164.826 7.720,167.618 7.003,166.410 3.826 C 165.817 2.266,161.545 1.329,159.000 2.200 M246.800 7.200 C 246.800 7.966,246.535 8.000,240.500 7.994 C 236.285 7.990,234.399 7.859,234.800 7.600 C 235.130 7.387,236.930 7.188,238.800 7.159 C 240.670 7.129,242.740 6.968,243.400 6.800 C 245.734 6.206,246.800 6.331,246.800 7.200 M273.800 16.800 C 273.954 17.049,273.244 17.189,271.924 17.172 C 270.368 17.151,270.014 17.052,270.600 16.800 C 271.715 16.321,273.504 16.321,273.800 16.800 M284.894 18.018 C 283.159 18.708,282.956 21.423,284.560 22.494 C 285.370 23.035,287.069 22.808,287.738 22.069 C 289.583 20.029,287.456 17.000,284.894 18.018 M123.600 20.000 C 123.600 20.220,122.689 20.400,121.576 20.400 C 120.329 20.400,119.648 20.247,119.800 20.000 C 119.936 19.780,120.847 19.600,121.824 19.600 C 122.801 19.600,123.600 19.780,123.600 20.000 M117.200 23.200 C 117.200 23.420,116.289 23.600,115.176 23.600 C 113.929 23.600,113.248 23.447,113.400 23.200 C 113.536 22.980,114.447 22.800,115.424 22.800 C 116.401 22.800,117.200 22.980,117.200 23.200 M110.800 26.000 C 110.800 26.220,110.080 26.400,109.200 26.400 C 108.320 26.400,107.600 26.220,107.600 26.000 C 107.600 25.780,108.320 25.600,109.200 25.600 C 110.080 25.600,110.800 25.780,110.800 26.000 M103.600 29.000 L 105.000 29.539 103.100 29.570 C 101.664 29.593,101.200 29.453,101.200 29.000 C 101.200 28.282,101.735 28.282,103.600 29.000 M298.600 29.200 C 298.751 29.444,298.137 29.600,297.024 29.600 C 296.021 29.600,295.200 29.420,295.200 29.200 C 295.200 28.980,295.909 28.800,296.776 28.800 C 297.643 28.800,298.464 28.980,298.600 29.200 M305.200 32.224 C 305.200 32.648,304.700 32.793,303.300 32.773 C 301.602 32.749,301.506 32.702,302.400 32.332 C 302.950 32.105,303.670 31.778,304.000 31.606 C 304.738 31.223,305.200 31.460,305.200 32.224 M314.354 39.100 C 314.328 39.925,314.225 40.285,314.124 39.900 C 313.989 39.383,313.530 39.200,312.371 39.200 C 311.507 39.200,310.800 39.020,310.800 38.800 C 310.800 38.580,311.205 38.397,311.700 38.394 C 312.195 38.391,312.870 38.213,313.200 38.000 C 314.205 37.350,314.402 37.538,314.354 39.100 M214.800 38.968 C 216.890 39.285,221.570 39.927,225.200 40.394 C 232.754 41.364,239.239 43.150,240.201 44.523 C 240.699 45.234,240.800 47.303,240.799 56.789 C 240.799 70.671,240.863 70.438,236.600 72.027 C 235.060 72.601,233.170 73.440,232.400 73.891 C 231.630 74.343,230.280 74.940,229.400 75.219 C 228.520 75.497,227.170 76.140,226.400 76.647 C 225.630 77.154,224.223 77.842,223.274 78.176 C 222.324 78.510,221.056 79.133,220.456 79.560 C 219.856 79.988,218.382 80.808,217.182 81.383 C 214.658 82.592,207.023 87.017,204.455 88.759 C 203.485 89.418,201.179 90.891,197.821 93.000 C 196.769 93.660,195.255 94.760,194.455 95.445 C 193.655 96.131,192.415 96.990,191.700 97.356 C 190.985 97.721,190.400 98.177,190.400 98.369 C 190.400 98.560,189.511 99.287,188.425 99.984 C 187.338 100.681,186.393 101.376,186.325 101.529 C 186.256 101.681,185.402 102.431,184.426 103.195 C 183.450 103.960,182.247 104.948,181.753 105.392 C 181.259 105.837,179.933 107.010,178.805 108.000 C 172.113 113.878,163.624 123.084,158.096 130.460 C 157.378 131.417,156.169 133.010,155.407 134.000 C 154.646 134.990,153.632 136.520,153.155 137.400 C 152.677 138.280,151.772 139.626,151.143 140.391 C 150.515 141.156,150.000 141.984,150.000 142.231 C 150.000 142.478,149.436 143.458,148.747 144.409 C 148.059 145.360,147.088 147.052,146.591 148.169 C 144.918 151.925,142.398 153.500,141.237 151.513 C 139.906 149.235,137.446 145.236,136.174 143.283 C 135.500 142.247,134.634 140.605,134.251 139.633 C 133.867 138.662,133.211 137.432,132.793 136.900 C 132.375 136.369,131.652 134.914,131.186 133.667 C 130.720 132.420,129.988 130.832,129.560 130.138 C 129.132 129.444,128.411 127.734,127.958 126.338 C 127.506 124.942,126.851 123.358,126.504 122.817 C 126.157 122.277,125.376 120.207,124.768 118.217 C 124.160 116.228,123.294 113.610,122.844 112.400 C 121.809 109.615,121.778 107.808,122.750 106.900 C 125.804 104.049,129.660 101.112,132.000 99.854 C 132.990 99.322,134.143 98.507,134.562 98.043 C 134.981 97.579,135.546 97.200,135.817 97.200 C 136.088 97.200,137.228 96.569,138.349 95.798 C 139.470 95.027,141.335 93.941,142.494 93.384 C 143.652 92.828,145.230 92.033,146.000 91.617 C 148.656 90.182,154.262 87.600,154.722 87.600 C 154.976 87.600,155.928 87.302,156.838 86.938 C 159.639 85.817,159.600 86.132,159.600 64.502 C 159.600 47.980,159.683 45.259,160.212 44.504 C 161.128 43.196,167.282 41.387,173.400 40.627 C 176.260 40.271,180.400 39.696,182.600 39.350 C 191.567 37.936,206.820 37.755,214.800 38.968 M86.000 41.353 C 86.000 41.938,84.825 42.385,83.267 42.395 C 81.958 42.402,82.385 41.461,83.833 41.147 C 85.710 40.741,86.000 40.768,86.000 41.353 M330.496 51.530 C 330.712 52.369,331.273 53.106,332.017 53.530 C 333.658 54.463,333.494 54.800,331.400 54.800 L 329.600 54.800 329.600 53.200 L 329.600 51.600 328.000 51.600 C 326.652 51.600,326.400 51.470,326.400 50.778 C 326.400 49.176,330.063 49.848,330.496 51.530 M70.400 54.000 C 70.400 54.667,70.133 54.800,68.800 54.800 L 67.200 54.800 67.200 56.400 L 67.200 58.000 65.600 58.000 C 64.043 58.000,64.000 58.037,64.000 59.376 C 64.000 60.677,63.919 60.758,62.500 60.876 C 61.081 60.993,60.993 61.081,60.876 62.500 C 60.758 63.919,60.677 64.000,59.376 64.000 C 58.037 64.000,58.000 64.043,58.000 65.600 L 58.000 67.200 56.400 67.200 L 54.800 67.200 54.800 68.800 C 54.800 70.133,54.667 70.400,54.000 70.400 C 53.289 70.400,53.200 70.133,53.200 68.000 C 53.200 65.713,53.246 65.600,54.191 65.600 C 54.807 65.600,55.430 65.221,55.840 64.595 C 56.202 64.043,56.971 63.478,57.549 63.340 C 58.910 63.016,59.600 62.452,60.034 61.309 C 60.228 60.801,60.801 60.228,61.309 60.034 C 62.452 59.600,63.016 58.910,63.340 57.549 C 63.478 56.971,64.043 56.202,64.595 55.840 C 65.221 55.430,65.600 54.807,65.600 54.191 C 65.600 53.246,65.713 53.200,68.000 53.200 C 70.133 53.200,70.400 53.289,70.400 54.000 M42.395 83.300 C 42.385 84.842,41.931 86.000,41.335 86.000 C 40.803 86.000,40.901 83.708,41.476 82.700 C 41.835 82.070,42.400 82.439,42.395 83.300 M246.000 87.191 C 246.571 87.200,251.812 89.593,254.800 91.210 C 255.570 91.627,257.370 92.527,258.800 93.211 C 260.230 93.894,261.762 94.793,262.205 95.208 C 262.648 95.622,263.653 96.230,264.437 96.558 C 265.222 96.886,266.108 97.448,266.407 97.808 C 266.705 98.168,267.771 98.879,268.775 99.388 C 269.779 99.897,270.960 100.712,271.400 101.199 C 271.840 101.687,272.848 102.416,273.639 102.820 C 274.430 103.223,275.362 103.987,275.708 104.516 C 277.157 106.727,281.629 106.764,284.000 104.584 C 284.550 104.078,286.012 103.220,287.249 102.677 C 288.486 102.134,289.627 101.480,289.786 101.223 C 289.944 100.967,291.090 100.308,292.333 99.758 C 293.575 99.209,294.956 98.417,295.401 97.999 C 295.847 97.580,296.928 96.942,297.805 96.581 C 298.682 96.219,299.762 95.590,300.204 95.182 C 300.646 94.774,302.003 94.001,303.220 93.463 C 304.437 92.925,305.655 92.215,305.929 91.886 C 306.202 91.557,307.365 90.885,308.513 90.393 C 309.661 89.901,311.191 88.981,311.914 88.349 C 313.233 87.195,314.697 86.946,316.659 87.540 C 317.491 87.792,323.743 94.581,327.000 98.769 C 327.880 99.900,329.275 101.641,330.100 102.637 C 330.925 103.634,331.600 104.617,331.600 104.823 C 331.600 105.029,332.206 105.873,332.947 106.699 C 333.688 107.524,334.682 108.965,335.155 109.900 C 335.629 110.835,336.172 111.600,336.363 111.600 C 336.553 111.600,337.022 112.275,337.404 113.100 C 337.787 113.925,338.572 115.226,339.150 115.991 C 340.228 117.419,341.668 120.038,344.136 125.058 C 344.909 126.631,345.721 128.028,345.940 128.163 C 346.160 128.299,346.644 129.352,347.018 130.505 C 347.391 131.657,348.199 133.500,348.812 134.600 C 349.426 135.700,350.143 137.407,350.405 138.393 C 350.667 139.380,351.306 141.025,351.825 142.049 C 352.344 143.074,353.073 145.147,353.445 146.656 C 353.816 148.165,354.568 150.297,355.115 151.394 C 357.054 155.284,356.343 157.724,352.734 159.568 C 351.340 160.280,349.914 161.120,349.565 161.435 C 349.215 161.750,348.009 162.500,346.884 163.104 C 345.759 163.707,343.705 164.809,342.319 165.553 C 340.934 166.297,339.293 167.331,338.673 167.850 C 335.450 170.549,331.915 170.331,328.126 167.200 C 325.215 164.795,321.103 161.888,317.600 159.760 C 316.610 159.159,315.440 158.357,315.000 157.978 C 314.560 157.598,313.289 156.832,312.175 156.275 C 311.061 155.718,309.930 154.998,309.662 154.674 C 309.393 154.351,308.594 153.858,307.887 153.579 C 307.179 153.300,306.012 152.639,305.293 152.111 C 304.575 151.582,303.135 150.779,302.093 150.327 C 301.052 149.874,299.840 149.194,299.400 148.815 C 298.960 148.436,297.560 147.715,296.289 147.212 C 295.019 146.710,293.579 145.988,293.089 145.609 C 292.600 145.229,291.120 144.518,289.800 144.029 C 288.480 143.539,286.860 142.809,286.200 142.406 C 285.540 142.003,283.842 141.295,282.426 140.834 C 281.010 140.372,279.444 139.728,278.946 139.401 C 278.448 139.075,276.547 138.371,274.720 137.837 C 272.894 137.302,270.590 136.501,269.599 136.057 C 268.608 135.613,266.145 134.889,264.124 134.448 C 262.103 134.007,259.898 133.361,259.224 133.013 C 258.550 132.664,256.154 132.102,253.899 131.763 C 251.645 131.424,247.820 130.710,245.400 130.175 C 239.255 128.817,234.156 128.401,223.343 128.376 C 214.293 128.355,213.961 128.326,213.027 127.477 C 211.898 126.451,212.342 123.588,213.893 121.888 C 214.339 121.400,215.079 120.136,215.538 119.081 C 215.997 118.026,216.743 116.690,217.198 116.112 C 217.652 115.535,218.379 114.328,218.813 113.431 C 219.573 111.861,220.262 110.795,222.679 107.447 C 223.295 106.593,224.196 105.247,224.679 104.457 C 225.163 103.666,225.795 102.835,226.085 102.610 C 226.374 102.384,226.951 101.669,227.367 101.020 C 230.081 96.785,238.466 87.572,240.510 86.579 C 242.155 85.781,242.243 85.778,243.800 86.471 C 244.680 86.862,245.670 87.186,246.000 87.191 M362.186 86.300 C 362.022 86.685,361.802 87.495,361.698 88.100 C 361.399 89.844,360.800 89.378,360.800 87.400 C 360.800 85.836,360.911 85.600,361.643 85.600 C 362.293 85.600,362.417 85.760,362.186 86.300 M88.334 88.206 C 88.992 88.759,90.518 89.664,91.725 90.217 C 92.933 90.770,94.121 91.464,94.366 91.759 C 94.611 92.054,95.867 92.770,97.157 93.349 C 98.448 93.928,99.738 94.684,100.025 95.030 C 100.312 95.376,101.650 96.159,102.998 96.770 C 104.649 97.519,105.915 98.456,106.876 99.641 L 108.302 101.400 107.780 104.400 C 106.677 110.731,106.302 120.382,106.518 136.800 C 106.735 153.195,106.984 156.666,108.389 162.800 C 108.817 164.670,109.455 168.358,109.807 170.995 C 110.159 173.632,110.785 176.554,111.198 177.488 C 111.611 178.422,112.244 180.765,112.605 182.693 C 112.966 184.622,113.766 187.370,114.383 188.800 C 115.000 190.230,115.732 192.390,116.010 193.600 C 116.287 194.810,117.029 196.770,117.657 197.956 C 118.286 199.142,118.800 200.429,118.800 200.815 C 118.800 201.202,119.423 202.751,120.185 204.259 C 120.946 205.767,122.033 207.990,122.599 209.200 C 123.166 210.410,124.418 212.840,125.383 214.600 C 126.347 216.360,127.501 218.525,127.947 219.411 C 128.393 220.297,129.218 221.453,129.779 221.981 C 131.030 223.155,131.246 226.332,130.138 227.251 C 129.278 227.964,109.444 227.984,105.800 227.275 C 104.480 227.018,99.579 226.273,94.910 225.619 C 90.240 224.965,85.884 224.154,85.229 223.815 C 84.575 223.477,83.764 223.200,83.426 223.200 C 81.910 223.200,80.391 221.062,79.589 217.800 C 77.815 210.580,77.676 190.541,79.353 184.000 C 80.511 179.486,80.553 179.830,78.618 177.840 C 77.639 176.833,76.065 175.706,75.119 175.335 C 74.174 174.965,72.897 174.247,72.282 173.741 C 71.667 173.236,70.365 172.468,69.389 172.036 C 68.412 171.604,67.025 170.818,66.307 170.289 C 65.588 169.761,64.421 169.100,63.713 168.821 C 63.006 168.542,62.208 168.050,61.940 167.728 C 61.672 167.405,60.341 166.637,58.981 166.021 C 57.621 165.404,56.378 164.687,56.218 164.428 C 56.057 164.169,54.914 163.510,53.677 162.962 C 52.440 162.415,51.092 161.660,50.683 161.284 C 50.273 160.908,49.007 160.150,47.869 159.600 C 46.185 158.786,45.620 158.236,44.830 156.644 L 43.861 154.687 44.885 152.844 C 45.449 151.830,46.211 149.650,46.579 148.000 C 46.947 146.350,47.589 144.419,48.005 143.709 C 48.421 142.999,49.134 141.216,49.588 139.746 C 50.042 138.276,50.774 136.490,51.214 135.777 C 51.655 135.064,52.365 133.466,52.791 132.225 C 53.218 130.984,53.927 129.465,54.365 128.849 C 54.804 128.232,55.538 126.726,55.997 125.500 C 56.455 124.275,57.121 123.031,57.477 122.736 C 57.832 122.441,58.618 121.096,59.224 119.747 C 59.829 118.398,60.525 117.170,60.770 117.019 C 61.015 116.867,61.648 115.890,62.176 114.847 C 62.705 113.803,63.446 112.694,63.823 112.381 C 64.201 112.067,64.845 111.089,65.256 110.206 C 65.667 109.323,66.626 107.790,67.389 106.800 C 68.151 105.810,69.365 104.230,70.087 103.289 C 81.511 88.404,85.072 85.461,88.334 88.206 M368.510 95.043 C 368.644 95.177,368.602 95.582,368.418 95.943 C 368.233 96.304,367.896 97.050,367.668 97.600 C 367.298 98.494,367.251 98.398,367.227 96.700 C 367.202 94.919,367.719 94.252,368.510 95.043 M29.570 103.100 L 29.539 105.000 29.000 103.600 C 28.282 101.735,28.282 101.200,29.000 101.200 C 29.453 101.200,29.593 101.664,29.570 103.100 M26.400 109.200 C 26.400 110.080,26.220 110.800,26.000 110.800 C 25.780 110.800,25.600 110.080,25.600 109.200 C 25.600 108.320,25.780 107.600,26.000 107.600 C 26.220 107.600,26.400 108.320,26.400 109.200 M23.600 115.200 C 23.600 116.300,23.420 117.200,23.200 117.200 C 22.759 117.200,22.641 113.893,23.067 113.467 C 23.544 112.989,23.600 113.172,23.600 115.200 M381.600 118.118 C 379.449 119.194,380.399 122.800,382.833 122.800 C 384.314 122.800,385.200 121.834,385.200 120.220 C 385.200 118.232,383.433 117.201,381.600 118.118 M20.400 121.600 C 20.400 122.700,20.220 123.600,20.000 123.600 C 19.559 123.600,19.441 120.293,19.867 119.867 C 20.344 119.389,20.400 119.572,20.400 121.600 M386.945 133.500 C 386.758 134.105,386.614 135.635,386.627 136.900 C 386.640 138.165,386.504 139.200,386.325 139.200 C 386.146 139.200,386.000 137.670,386.000 135.800 C 386.000 132.943,386.103 132.400,386.643 132.400 C 387.161 132.400,387.220 132.614,386.945 133.500 M390.530 141.863 C 390.675 142.008,390.583 142.379,390.326 142.689 C 390.070 142.998,389.737 144.454,389.587 145.925 L 389.314 148.600 389.257 145.100 C 389.202 141.726,389.538 140.872,390.530 141.863 M204.961 168.406 C 209.661 168.863,213.388 170.379,218.843 174.053 C 222.336 176.405,227.627 182.442,228.591 185.175 C 228.901 186.052,229.525 187.272,229.978 187.885 C 231.850 190.418,232.765 199.166,231.853 205.800 C 231.261 210.103,227.941 218.400,226.812 218.400 C 226.621 218.400,226.052 219.069,225.547 219.886 C 224.596 221.424,220.950 225.200,220.415 225.200 C 220.248 225.200,219.462 225.813,218.667 226.563 C 217.872 227.312,216.362 228.246,215.311 228.637 C 214.260 229.029,212.972 229.675,212.448 230.073 C 208.658 232.955,192.032 232.871,187.930 229.950 C 187.338 229.528,186.116 228.923,185.216 228.606 C 181.133 227.165,172.892 218.627,171.340 214.231 C 171.029 213.350,170.330 211.719,169.786 210.608 C 167.549 206.036,167.648 194.278,169.964 189.425 C 170.600 188.091,171.489 186.145,171.938 185.100 C 172.387 184.055,172.923 183.200,173.129 183.200 C 173.335 183.200,173.739 182.630,174.028 181.933 C 174.766 180.150,178.983 175.758,181.167 174.498 C 182.175 173.916,183.131 173.230,183.291 172.972 C 183.450 172.715,184.170 172.273,184.891 171.990 C 185.611 171.707,187.495 170.866,189.077 170.121 C 193.090 168.232,197.866 167.716,204.961 168.406 M0.000 200.000 L 0.000 231.200 0.938 231.200 C 3.876 231.200,4.793 224.980,3.975 210.600 C 3.412 200.695,3.412 199.494,3.977 188.604 C 4.315 182.085,4.316 179.134,3.984 177.204 C 3.737 175.772,3.438 173.610,3.320 172.400 C 3.079 169.934,2.329 168.800,0.938 168.800 L 0.000 168.800 0.000 200.000 M299.561 174.564 C 313.810 176.125,318.891 177.680,320.060 180.838 C 321.790 185.513,322.218 211.785,320.655 217.320 C 319.615 221.002,320.634 223.436,323.787 224.802 C 324.674 225.186,326.363 226.153,327.540 226.950 C 328.717 227.748,329.918 228.400,330.210 228.400 C 330.501 228.400,331.277 228.853,331.935 229.407 C 332.594 229.961,334.121 230.851,335.329 231.386 C 336.538 231.920,337.656 232.567,337.815 232.824 C 337.973 233.081,338.935 233.658,339.952 234.108 C 340.968 234.557,342.675 235.527,343.745 236.263 C 344.815 236.998,345.867 237.600,346.083 237.600 C 346.299 237.600,347.030 238.005,347.707 238.500 C 348.384 238.995,350.031 239.951,351.367 240.624 C 352.993 241.443,354.181 242.396,354.961 243.506 L 356.126 245.164 355.222 247.482 C 354.725 248.757,353.819 251.420,353.209 253.400 C 352.598 255.380,351.628 257.990,351.053 259.200 C 350.478 260.410,350.009 261.670,350.010 262.000 C 350.011 262.330,349.395 263.860,348.641 265.400 C 342.715 277.506,339.874 282.934,338.800 284.203 C 338.470 284.593,337.750 285.672,337.200 286.602 C 335.185 290.008,333.776 292.156,332.766 293.364 C 332.198 294.044,331.394 295.185,330.980 295.900 C 330.566 296.615,330.089 297.200,329.919 297.200 C 329.749 297.200,329.132 297.965,328.547 298.900 C 327.963 299.835,326.862 301.320,326.100 302.200 C 315.807 314.096,315.746 314.132,311.009 311.020 C 309.484 310.019,308.018 309.200,307.749 309.200 C 307.481 309.200,306.742 308.763,306.107 308.229 C 305.472 307.695,303.952 306.815,302.728 306.273 C 301.504 305.732,300.368 305.072,300.204 304.807 C 300.040 304.541,298.784 303.821,297.412 303.206 C 293.367 301.391,292.999 300.484,293.545 293.677 C 295.392 270.629,294.835 245.724,292.224 234.600 C 291.707 232.400,290.974 228.710,290.595 226.400 C 290.216 224.090,289.504 221.120,289.012 219.800 C 288.520 218.480,287.801 215.960,287.413 214.200 C 287.025 212.440,286.388 210.370,285.998 209.600 C 285.609 208.830,284.894 206.850,284.410 205.200 C 283.926 203.550,283.258 201.774,282.925 201.254 C 282.593 200.733,281.898 199.064,281.381 197.544 C 280.864 196.025,280.068 194.258,279.612 193.617 C 279.156 192.977,278.510 191.676,278.176 190.726 C 277.842 189.777,277.137 188.345,276.609 187.545 C 276.081 186.745,275.359 185.395,275.006 184.545 C 274.394 183.074,273.758 182.012,271.125 178.066 C 267.781 173.052,276.243 172.010,299.561 174.564 M398.115 212.660 C 396.265 213.410,395.796 215.534,395.892 222.728 C 396.013 231.785,396.723 234.400,399.062 234.400 L 400.000 234.400 400.000 223.400 C 400.000 211.626,400.044 211.877,398.115 212.660 M68.667 231.402 C 69.459 231.733,70.791 232.588,71.626 233.302 C 74.020 235.348,75.802 236.617,82.311 240.910 C 83.570 241.740,85.115 242.730,85.744 243.110 C 86.373 243.489,87.453 244.198,88.144 244.685 C 88.835 245.171,90.300 246.047,91.400 246.630 C 92.500 247.214,93.670 247.925,94.000 248.211 C 94.632 248.759,98.827 251.040,102.200 252.670 C 103.300 253.202,104.650 253.909,105.200 254.242 C 105.750 254.575,107.010 255.205,108.000 255.643 C 108.990 256.080,111.210 257.149,112.932 258.019 C 114.655 258.888,116.325 259.600,116.644 259.600 C 116.962 259.600,118.277 260.132,119.566 260.783 C 120.855 261.433,122.784 262.177,123.854 262.435 C 124.925 262.694,126.689 263.341,127.775 263.874 C 128.861 264.406,131.219 265.185,133.016 265.604 C 134.813 266.023,137.211 266.731,138.346 267.179 C 139.480 267.626,142.342 268.340,144.704 268.766 C 147.067 269.192,150.440 269.911,152.200 270.363 C 157.653 271.764,177.365 273.193,183.284 272.616 C 187.802 272.176,188.915 274.392,186.189 278.400 C 185.666 279.170,184.874 280.624,184.430 281.631 C 183.987 282.638,183.283 283.898,182.867 284.431 C 182.451 284.964,181.700 286.210,181.198 287.200 C 180.697 288.190,179.772 289.626,179.143 290.391 C 178.515 291.156,178.000 291.989,178.000 292.242 C 178.000 292.495,177.700 292.949,177.334 293.251 C 176.967 293.553,176.036 294.790,175.264 296.000 C 173.895 298.147,173.007 299.320,169.862 303.134 C 162.825 311.670,158.368 315.567,157.413 314.020 C 157.291 313.823,156.248 313.359,155.095 312.989 C 153.101 312.349,147.570 309.882,145.000 308.486 C 144.340 308.127,142.675 307.269,141.299 306.578 C 139.924 305.887,138.484 305.040,138.099 304.694 C 137.715 304.349,136.659 303.647,135.754 303.133 C 134.210 302.257,130.374 299.672,127.200 297.369 C 126.430 296.810,125.247 295.819,124.570 295.166 C 122.548 293.215,119.959 293.132,117.344 294.935 C 116.214 295.714,114.596 296.641,113.750 296.995 C 112.903 297.349,111.846 297.981,111.400 298.400 C 110.955 298.818,109.782 299.520,108.795 299.959 C 107.808 300.398,106.403 301.200,105.673 301.741 C 104.943 302.283,103.773 302.954,103.073 303.233 C 102.373 303.511,101.270 304.113,100.622 304.570 C 99.254 305.534,95.944 307.453,92.800 309.104 C 91.590 309.739,89.893 310.745,89.029 311.340 C 84.988 314.120,82.373 312.362,73.400 300.830 C 72.520 299.699,71.170 297.994,70.400 297.040 C 69.630 296.086,68.681 294.787,68.291 294.153 C 67.902 293.519,66.960 292.100,66.199 291.000 C 65.438 289.900,64.442 288.460,63.987 287.800 C 62.607 285.798,60.510 282.325,59.278 280.000 C 55.386 272.660,53.259 268.391,52.801 267.002 C 52.513 266.131,51.943 264.875,51.534 264.210 C 51.124 263.544,50.414 261.740,49.955 260.200 C 49.497 258.660,48.794 256.860,48.393 256.200 C 47.993 255.540,47.299 253.525,46.851 251.721 C 46.404 249.918,45.671 247.724,45.224 246.846 L 44.409 245.250 45.710 243.525 C 46.426 242.576,47.802 241.400,48.769 240.911 C 49.735 240.422,51.173 239.575,51.963 239.029 C 52.753 238.483,54.030 237.775,54.800 237.455 C 55.570 237.135,56.686 236.490,57.281 236.022 C 57.876 235.555,59.173 234.813,60.164 234.375 C 61.156 233.936,62.086 233.384,62.232 233.148 C 63.157 231.651,66.859 230.647,68.667 231.402 M8.000 240.600 C 8.000 246.641,7.978 246.800,7.156 246.800 C 6.405 246.800,6.339 246.635,6.553 245.300 C 6.685 244.475,6.894 242.090,7.018 240.000 C 7.484 232.155,8.000 232.470,8.000 240.600 M393.629 237.854 C 391.674 240.339,392.866 247.600,395.229 247.600 C 397.188 247.600,398.339 244.321,397.788 240.311 C 397.332 236.996,395.265 235.775,393.629 237.854 M260.085 249.639 C 261.028 250.980,262.293 252.994,262.895 254.113 C 263.498 255.232,264.165 256.255,264.378 256.386 C 264.590 256.518,265.247 257.699,265.837 259.013 C 266.427 260.326,267.223 261.760,267.605 262.200 C 267.987 262.640,268.696 264.080,269.180 265.400 C 269.665 266.720,270.318 268.085,270.631 268.432 C 270.945 268.780,271.628 270.310,272.149 271.832 C 272.669 273.355,273.466 275.230,273.919 276.000 C 274.371 276.770,275.038 278.557,275.400 279.971 C 275.763 281.386,276.471 283.366,276.974 284.371 C 280.130 290.673,279.180 293.703,272.540 298.517 C 266.764 302.705,265.433 303.600,264.976 303.600 C 264.693 303.600,263.928 304.049,263.276 304.597 C 262.624 305.146,261.215 306.001,260.145 306.497 C 259.075 306.994,257.660 307.781,257.000 308.248 C 256.340 308.714,255.350 309.227,254.800 309.389 C 254.250 309.551,252.720 310.277,251.400 311.002 C 250.080 311.727,248.190 312.537,247.200 312.802 C 244.849 313.431,243.627 314.083,242.292 315.417 L 241.200 316.509 241.200 335.966 C 241.200 360.049,242.123 358.032,230.294 359.785 C 226.722 360.315,222.720 361.039,221.400 361.394 C 215.154 363.077,186.490 363.071,179.600 361.386 C 178.170 361.036,174.059 360.314,170.463 359.780 C 158.786 358.047,159.124 358.560,159.282 342.843 L 159.400 331.137 160.868 329.793 C 161.675 329.053,163.042 328.258,163.904 328.026 C 164.767 327.793,166.627 326.997,168.037 326.255 C 169.446 325.514,171.320 324.676,172.200 324.393 C 173.080 324.110,174.340 323.480,175.000 322.993 C 175.660 322.506,177.089 321.813,178.176 321.452 C 179.263 321.092,180.523 320.457,180.976 320.041 C 181.429 319.625,182.790 318.873,184.000 318.368 C 185.210 317.864,186.694 317.047,187.298 316.553 C 187.902 316.059,188.802 315.530,189.298 315.377 C 189.794 315.224,191.010 314.522,192.000 313.817 C 192.990 313.113,194.372 312.309,195.071 312.032 C 195.770 311.754,196.670 311.164,197.071 310.721 C 197.472 310.278,198.520 309.550,199.400 309.104 C 200.280 308.657,201.558 307.822,202.241 307.246 C 202.923 306.671,204.003 305.884,204.641 305.497 C 205.278 305.111,206.817 304.031,208.059 303.097 C 209.302 302.164,211.102 300.813,212.059 300.096 C 213.727 298.847,214.346 298.343,218.066 295.200 C 224.274 289.956,233.975 280.112,238.367 274.600 C 239.243 273.500,240.483 271.970,241.121 271.200 C 241.759 270.430,242.801 268.990,243.437 268.000 C 244.072 267.010,244.821 266.055,245.101 265.878 C 245.380 265.700,246.054 264.678,246.597 263.606 C 247.140 262.534,247.772 261.541,248.000 261.400 C 248.228 261.259,248.882 260.211,249.452 259.072 C 250.022 257.932,250.840 256.616,251.270 256.147 C 251.700 255.677,252.559 254.237,253.178 252.947 C 254.431 250.336,256.963 247.200,257.816 247.200 C 258.121 247.200,259.142 248.298,260.085 249.639 M387.178 261.427 C 386.699 262.003,386.562 264.413,386.873 266.760 C 386.943 267.287,386.775 267.797,386.500 267.893 C 386.124 268.024,386.000 267.166,386.000 264.433 C 386.000 260.997,386.046 260.800,386.849 260.800 C 387.574 260.800,387.622 260.891,387.178 261.427 M17.103 273.100 C 16.978 274.011,16.897 274.079,16.632 273.497 C 16.456 273.110,16.458 272.120,16.635 271.297 C 17.014 269.544,17.390 270.997,17.103 273.100 M380.497 280.695 C 380.602 281.303,380.822 282.115,380.986 282.500 C 381.217 283.040,381.093 283.200,380.443 283.200 C 379.697 283.200,379.600 282.968,379.600 281.176 C 379.600 279.074,380.167 278.769,380.497 280.695 M19.294 283.615 C 17.525 284.325,17.320 287.500,19.002 288.145 C 22.336 289.425,24.467 285.313,21.326 283.660 C 20.329 283.135,20.479 283.138,19.294 283.615 M377.373 287.397 C 377.734 289.320,377.723 289.383,377.021 289.529 C 376.531 289.631,376.400 289.272,376.400 287.829 C 376.400 285.670,376.999 285.404,377.373 287.397 M29.600 297.024 C 29.600 298.137,29.444 298.751,29.200 298.600 C 28.980 298.464,28.800 297.643,28.800 296.776 C 28.800 295.909,28.980 295.200,29.200 295.200 C 29.420 295.200,29.600 296.021,29.600 297.024 M32.642 305.091 C 32.188 305.545,31.108 304.793,31.500 304.295 C 31.714 304.023,32.044 303.260,32.233 302.600 C 32.567 301.429,32.579 301.442,32.713 303.142 C 32.788 304.100,32.757 304.977,32.642 305.091 M368.000 303.176 C 368.000 304.043,367.820 304.864,367.600 305.000 C 367.356 305.151,367.200 304.537,367.200 303.424 C 367.200 302.421,367.380 301.600,367.600 301.600 C 367.820 301.600,368.000 302.309,368.000 303.176 M39.200 312.371 C 39.200 313.530,39.383 313.989,39.900 314.124 C 40.285 314.225,39.906 314.328,39.057 314.354 C 37.732 314.393,37.557 314.301,37.814 313.700 C 37.978 313.315,38.198 312.505,38.302 311.900 C 38.585 310.253,39.200 310.575,39.200 312.371 M362.170 311.900 C 361.703 314.003,361.544 314.400,361.173 314.400 C 360.968 314.400,360.800 313.590,360.800 312.600 C 360.800 311.061,360.917 310.800,361.608 310.800 C 362.281 310.800,362.375 310.982,362.170 311.900 M353.200 325.213 C 353.200 326.930,352.570 327.521,351.300 326.996 C 350.825 326.800,350.761 326.647,351.100 326.520 C 351.375 326.417,351.600 325.718,351.600 324.967 C 351.600 323.867,351.756 323.600,352.400 323.600 C 353.068 323.600,353.200 323.867,353.200 325.213 M51.600 328.000 L 51.600 329.600 53.200 329.600 L 54.800 329.600 54.800 331.400 C 54.800 333.494,54.463 333.658,53.530 332.017 C 53.106 331.273,52.369 330.712,51.530 330.496 C 49.848 330.063,49.176 326.400,50.778 326.400 C 51.470 326.400,51.600 326.652,51.600 328.000 M327.134 352.258 C 326.913 353.421,323.600 353.576,323.600 352.423 C 323.600 351.749,323.854 351.600,325.000 351.600 C 325.822 351.600,326.400 351.402,326.400 351.120 C 326.400 350.773,326.521 350.761,326.838 351.078 C 327.078 351.318,327.212 351.849,327.134 352.258 M89.200 361.155 C 89.200 361.350,88.705 361.594,88.100 361.698 C 87.495 361.802,86.685 362.022,86.300 362.186 C 85.760 362.417,85.600 362.293,85.600 361.643 C 85.600 360.911,85.836 360.800,87.400 360.800 C 88.390 360.800,89.200 360.960,89.200 361.155 M314.400 361.173 C 314.400 361.544,314.003 361.703,311.900 362.170 C 310.982 362.375,310.800 362.281,310.800 361.608 C 310.800 360.917,311.061 360.800,312.600 360.800 C 313.590 360.800,314.400 360.968,314.400 361.173 M97.600 367.668 C 97.050 367.896,96.304 368.233,95.943 368.418 C 95.214 368.790,94.800 368.542,94.800 367.733 C 94.800 367.360,95.370 367.208,96.700 367.227 C 98.398 367.251,98.494 367.298,97.600 367.668 M305.000 367.600 C 304.864 367.820,304.043 368.000,303.176 368.000 C 302.309 368.000,301.600 367.820,301.600 367.600 C 301.600 367.380,302.421 367.200,303.424 367.200 C 304.537 367.200,305.151 367.356,305.000 367.600 M289.529 377.021 C 289.383 377.723,289.320 377.734,287.397 377.373 C 285.404 376.999,285.670 376.400,287.829 376.400 C 289.272 376.400,289.631 376.531,289.529 377.021 M283.200 380.443 C 283.200 381.093,283.040 381.217,282.500 380.986 C 282.115 380.822,281.303 380.602,280.695 380.497 C 278.769 380.167,279.074 379.600,281.176 379.600 C 282.968 379.600,283.200 379.697,283.200 380.443 M118.382 381.021 C 117.005 382.681,118.112 385.200,120.220 385.200 C 122.577 385.200,123.747 382.581,122.069 381.062 C 121.146 380.227,119.060 380.204,118.382 381.021 M139.200 386.325 C 139.200 386.504,138.165 386.640,136.900 386.627 C 135.635 386.614,134.105 386.758,133.500 386.945 C 132.614 387.220,132.400 387.161,132.400 386.643 C 132.400 386.103,132.943 386.000,135.800 386.000 C 137.670 386.000,139.200 386.146,139.200 386.325 M267.893 386.500 C 267.797 386.775,267.287 386.943,266.760 386.873 C 264.413 386.562,262.003 386.699,261.427 387.178 C 260.891 387.622,260.800 387.574,260.800 386.849 C 260.800 386.046,260.997 386.000,264.433 386.000 C 267.166 386.000,268.024 386.124,267.893 386.500 M145.925 389.587 C 144.454 389.737,142.998 390.070,142.689 390.326 C 142.076 390.835,141.600 390.575,141.600 389.733 C 141.600 389.325,142.422 389.213,145.100 389.257 L 148.600 389.314 145.925 389.587 M237.762 393.731 C 235.271 395.874,237.356 397.772,242.200 397.772 C 245.797 397.772,247.065 397.277,247.456 395.720 C 247.946 393.766,246.207 392.800,242.200 392.800 C 239.263 392.800,238.709 392.916,237.762 393.731 M217.200 395.857 C 214.966 396.230,214.493 396.422,213.469 397.371 C 210.757 399.884,211.195 400.000,223.400 400.000 L 234.400 400.000 234.400 399.062 C 234.400 397.843,233.390 396.972,231.400 396.475 C 229.692 396.049,218.870 395.578,217.200 395.857 " stroke="none" fill="#ffffff" fill-rule="evenodd"></path><path id="path3" d="M195.340 169.622 C 193.987 169.798,192.187 170.291,191.340 170.717 C 190.493 171.142,188.810 171.807,187.600 172.194 C 186.390 172.581,184.950 173.290,184.400 173.768 C 183.850 174.247,182.896 174.890,182.280 175.197 C 180.953 175.860,174.800 182.167,174.800 182.865 C 174.800 183.131,174.399 183.775,173.909 184.297 C 173.419 184.818,172.506 186.630,171.880 188.322 C 171.254 190.015,170.457 192.120,170.109 193.000 C 169.182 195.347,169.217 205.115,170.161 207.600 C 170.538 208.590,171.286 210.649,171.825 212.177 C 172.364 213.704,173.128 215.324,173.524 215.777 C 173.920 216.229,174.736 217.373,175.339 218.317 C 177.478 221.671,183.331 226.701,186.384 227.808 C 187.163 228.091,188.795 228.784,190.010 229.349 C 194.965 231.652,205.988 231.602,210.968 229.254 C 212.306 228.623,214.003 227.874,214.740 227.589 C 215.477 227.303,216.786 226.480,217.649 225.759 C 218.512 225.038,219.535 224.348,219.922 224.225 C 220.310 224.102,220.924 223.497,221.288 222.882 C 221.652 222.266,222.408 221.517,222.968 221.217 C 223.528 220.917,224.091 220.345,224.217 219.945 C 224.344 219.545,225.038 218.512,225.759 217.649 C 226.480 216.786,227.303 215.477,227.589 214.740 C 227.874 214.003,228.620 212.313,229.246 210.984 C 231.609 205.972,231.683 194.506,229.383 189.967 C 228.852 188.918,228.175 187.371,227.880 186.529 C 226.799 183.445,221.373 177.107,218.200 175.221 C 217.320 174.698,216.229 173.941,215.777 173.538 C 215.324 173.134,213.636 172.356,212.025 171.809 C 210.415 171.261,208.890 170.640,208.636 170.430 C 207.488 169.477,199.960 169.020,195.340 169.622 " stroke="none" fill="#263238" fill-rule="evenodd"></path></g></svg>