<svg id="svg" version="1.1" xmlns="http://www.w3.org/2000/svg" xmlns:xlink="http://www.w3.org/1999/xlink" width="400" height="225" viewBox="0, 0, 400,225"><g id="svgg"><path id="path0" d="M157.849 29.542 C 157.738 31.215,157.574 33.400,157.485 34.398 C 157.396 35.395,157.358 36.247,157.401 36.290 C 157.491 36.380,163.036 36.818,164.208 36.827 L 165.000 36.833 165.000 36.033 L 165.000 35.234 162.300 35.028 C 159.116 34.786,159.442 34.979,159.588 33.429 L 159.706 32.167 160.228 32.169 C 160.515 32.171,161.609 32.243,162.659 32.330 C 163.709 32.417,164.580 32.472,164.596 32.452 C 164.611 32.433,164.675 32.068,164.736 31.641 L 164.849 30.865 164.216 30.773 C 163.868 30.722,162.740 30.632,161.708 30.572 L 159.833 30.464 159.836 29.690 C 159.840 28.142,159.656 28.224,162.633 28.436 C 164.073 28.538,165.258 28.613,165.268 28.602 C 165.550 28.307,165.434 26.993,165.121 26.933 C 164.600 26.832,159.744 26.498,158.817 26.499 L 158.050 26.500 157.849 29.542 M140.431 27.809 C 138.605 28.143,137.084 28.499,137.050 28.599 C 137.017 28.699,137.297 30.461,137.671 32.515 C 138.046 34.569,138.432 36.681,138.528 37.208 C 138.739 38.367,138.357 38.335,142.714 37.555 L 146.177 36.935 146.067 36.176 C 146.007 35.758,145.929 35.385,145.895 35.347 C 145.860 35.308,144.724 35.477,143.369 35.722 C 140.129 36.307,140.401 36.359,140.184 35.111 C 140.083 34.531,140.000 33.948,140.000 33.815 C 140.000 33.638,140.577 33.472,142.208 33.180 C 145.024 32.677,144.863 32.751,144.733 32.022 C 144.552 31.014,144.589 31.024,142.417 31.434 C 139.511 31.983,139.567 31.990,139.439 31.060 C 139.258 29.738,139.266 29.720,140.042 29.601 C 140.431 29.541,141.595 29.333,142.628 29.139 L 144.506 28.785 144.407 28.184 C 144.261 27.302,144.200 27.165,143.964 27.184 C 143.846 27.194,142.256 27.475,140.431 27.809 M172.854 28.495 C 171.155 28.911,170.326 30.801,171.178 32.317 C 171.526 32.938,172.299 33.524,174.048 34.496 C 175.226 35.150,175.575 35.614,175.346 36.217 C 174.716 37.873,171.500 36.865,171.500 35.011 C 171.500 34.611,171.412 34.569,170.267 34.415 L 169.450 34.305 169.547 35.244 C 169.983 39.462,176.873 40.238,177.436 36.132 C 177.637 34.665,176.754 33.548,174.500 32.420 C 172.444 31.389,172.195 30.167,174.042 30.167 C 175.174 30.167,175.776 30.520,176.017 31.326 C 176.235 32.053,176.290 32.090,177.395 32.256 L 178.167 32.371 178.167 31.780 C 178.167 29.653,175.318 27.892,172.854 28.495 M125.760 31.992 C 125.308 32.146,124.913 32.345,124.883 32.433 C 124.839 32.567,127.926 41.482,128.064 41.620 C 128.126 41.682,134.389 39.478,134.545 39.340 C 134.650 39.247,134.279 38.074,134.076 37.858 C 134.046 37.825,133.002 38.155,131.757 38.590 C 130.512 39.025,129.457 39.346,129.414 39.303 C 129.371 39.260,128.740 37.554,128.012 35.512 C 126.461 31.164,126.771 31.648,125.760 31.992 M185.528 32.985 C 182.943 33.877,181.247 37.770,182.338 40.306 C 183.514 43.041,187.373 43.837,189.335 41.748 L 189.727 41.331 189.238 40.818 C 188.420 39.958,188.224 39.917,187.656 40.485 C 186.717 41.424,185.214 41.310,184.395 40.237 C 183.504 39.068,184.338 35.909,185.800 34.915 C 187.208 33.958,189.333 34.869,189.333 36.429 C 189.333 37.087,189.346 37.097,190.458 37.247 L 191.333 37.365 191.333 36.489 C 191.333 33.946,188.207 32.059,185.528 32.985 M116.750 35.982 C 112.502 37.088,111.883 42.573,115.694 45.334 C 118.654 47.478,123.167 44.952,122.580 41.480 L 122.465 40.801 121.711 40.914 C 120.523 41.092,120.467 41.136,120.567 41.814 C 120.844 43.698,118.844 44.999,117.205 44.000 C 116.083 43.316,114.866 40.888,115.057 39.713 C 115.329 38.035,117.457 37.155,118.645 38.230 C 119.019 38.569,120.477 37.291,120.157 36.905 C 119.529 36.148,117.854 35.694,116.750 35.982 M195.272 41.810 C 192.132 46.619,192.326 46.147,193.260 46.711 C 194.188 47.272,194.055 47.355,195.329 45.423 C 196.523 43.613,196.412 43.680,197.170 44.312 L 197.743 44.791 197.858 47.271 C 197.922 48.634,197.979 49.758,197.987 49.768 C 198.046 49.848,199.848 51.000,199.914 51.000 C 200.110 51.000,199.988 47.014,199.770 46.288 L 199.540 45.523 199.947 45.678 C 202.517 46.655,204.855 43.351,202.982 41.389 C 202.479 40.862,200.134 39.201,198.477 38.197 L 197.871 37.830 195.272 41.810 M201.425 42.405 C 201.793 42.967,201.394 43.937,200.726 44.104 C 200.243 44.226,198.718 43.536,197.733 42.750 L 197.282 42.391 197.981 41.361 L 198.680 40.332 199.922 41.171 C 200.606 41.632,201.282 42.187,201.425 42.405 M105.084 43.586 C 104.365 43.975,101.732 45.978,100.636 46.970 L 100.188 47.375 103.302 51.246 L 106.417 55.116 107.125 54.538 C 108.025 53.804,108.050 53.919,106.603 52.125 L 105.373 50.600 105.750 50.303 C 106.718 49.542,106.939 49.557,110.215 50.597 L 111.513 51.009 112.420 50.301 C 112.918 49.912,113.272 49.540,113.205 49.475 C 112.934 49.212,109.432 48.167,108.822 48.167 C 108.055 48.167,108.064 48.192,108.528 47.407 C 109.804 45.244,107.253 42.414,105.084 43.586 M106.614 45.696 C 107.379 46.415,107.168 47.014,105.708 48.259 L 104.417 49.361 103.946 48.805 C 103.687 48.500,103.331 48.050,103.153 47.806 L 102.831 47.362 104.092 46.348 C 105.479 45.232,105.982 45.102,106.614 45.696 M206.104 49.775 L 202.835 53.575 203.542 54.197 C 203.932 54.539,204.287 54.822,204.333 54.826 C 204.537 54.842,210.863 47.299,210.731 47.197 C 210.650 47.134,210.311 46.833,209.978 46.528 L 209.374 45.974 206.104 49.775 M211.616 54.680 C 207.597 58.213,207.795 57.948,208.552 58.774 L 209.104 59.377 211.886 56.932 C 213.415 55.587,214.667 54.534,214.667 54.591 C 214.667 54.649,213.767 55.995,212.668 57.582 C 210.229 61.102,210.339 60.820,211.090 61.652 L 211.704 62.332 215.102 60.572 C 216.971 59.603,218.500 58.848,218.500 58.893 C 218.500 58.937,217.281 60.041,215.792 61.345 C 212.608 64.132,212.845 63.781,213.631 64.548 L 214.266 65.168 217.925 61.970 C 219.937 60.211,221.583 58.717,221.583 58.649 C 221.583 58.581,221.171 58.043,220.667 57.454 L 219.750 56.382 216.610 57.949 C 214.883 58.811,213.528 59.419,213.599 59.300 C 213.670 59.181,214.542 57.861,215.538 56.367 L 217.348 53.652 216.404 52.576 C 215.884 51.984,215.408 51.500,215.346 51.500 C 215.284 51.500,213.605 52.931,211.616 54.680 M93.140 54.446 L 90.706 57.194 93.811 59.956 C 95.519 61.475,97.188 62.974,97.519 63.287 L 98.121 63.856 100.666 61.001 L 103.212 58.145 102.647 57.663 C 101.895 57.019,102.081 56.912,100.063 59.158 C 98.953 60.395,98.200 61.106,98.077 61.033 C 97.968 60.969,97.504 60.577,97.046 60.162 L 96.212 59.407 97.881 57.528 L 99.551 55.650 98.984 55.165 C 98.232 54.522,98.390 54.440,96.657 56.375 C 94.843 58.401,94.930 58.364,94.046 57.463 L 93.346 56.750 95.082 54.833 C 97.099 52.607,97.004 52.830,96.204 52.196 L 95.574 51.697 93.140 54.446 M86.583 63.644 C 81.978 65.742,84.054 72.673,89.378 72.974 C 92.920 73.174,95.359 69.302,93.459 66.496 C 92.949 65.744,92.838 65.738,92.042 66.419 L 91.351 67.011 91.759 67.612 C 92.748 69.071,91.722 71.167,90.018 71.167 C 88.793 71.167,86.551 69.721,85.995 68.573 C 85.268 67.072,86.222 65.421,87.817 65.418 L 88.663 65.417 88.982 64.474 L 89.301 63.530 88.942 63.434 C 88.261 63.251,87.248 63.342,86.583 63.644 M221.220 66.474 C 219.003 67.817,217.136 68.971,217.071 69.038 C 216.945 69.166,220.662 75.500,220.863 75.500 C 220.928 75.500,221.252 75.340,221.583 75.145 C 222.304 74.720,222.348 74.874,220.745 72.215 C 219.253 69.740,219.275 70.007,220.512 69.269 C 221.822 68.489,221.613 68.368,223.004 70.708 C 223.671 71.831,224.236 72.774,224.259 72.804 C 224.313 72.871,225.667 72.023,225.667 71.922 C 225.667 71.882,225.133 70.964,224.482 69.883 C 223.830 68.801,223.267 67.867,223.231 67.806 C 223.162 67.690,224.735 66.667,224.983 66.667 C 225.063 66.667,225.709 67.643,226.419 68.837 C 227.128 70.030,227.762 71.039,227.827 71.079 C 227.952 71.157,229.167 70.385,229.167 70.228 C 229.167 70.033,225.475 64.001,225.365 64.015 C 225.302 64.024,223.436 65.130,221.220 66.474 M171.083 64.385 C 169.324 65.195,169.835 66.107,172.500 66.913 C 178.049 68.590,180.962 71.388,181.341 75.403 C 181.898 81.315,179.966 85.091,174.833 88.125 C 169.714 91.151,168.140 93.846,169.758 96.818 C 171.306 99.662,177.022 101.961,178.418 100.301 C 179.514 98.998,178.708 97.555,176.626 97.091 C 170.840 95.800,171.335 93.366,178.104 89.817 C 188.664 84.280,191.125 77.194,185.071 69.761 C 182.147 66.172,174.002 63.042,171.083 64.385 M160.583 67.142 C 157.285 69.173,154.528 77.935,154.503 86.458 L 154.500 87.667 157.045 87.667 L 159.590 87.667 159.526 84.233 C 159.363 75.582,161.002 69.476,163.974 67.667 C 164.883 67.113,164.855 67.066,163.542 66.942 C 161.742 66.772,161.116 66.814,160.583 67.142 M254.333 76.297 C 253.646 76.632,250.206 78.314,246.689 80.036 C 243.172 81.758,240.275 83.167,240.252 83.167 C 240.229 83.167,237.894 84.300,235.063 85.686 C 232.233 87.071,228.942 88.675,227.750 89.250 C 226.558 89.824,223.645 91.241,221.275 92.397 C 218.905 93.554,216.951 94.500,216.932 94.500 C 216.913 94.500,217.060 93.319,217.259 91.875 C 217.457 90.431,217.675 88.732,217.743 88.099 L 217.865 86.948 217.141 87.488 C 216.743 87.785,215.883 88.413,215.231 88.884 L 214.046 89.740 213.938 91.745 C 213.878 92.848,213.783 94.286,213.727 94.942 L 213.624 96.133 210.520 97.640 C 208.813 98.469,205.317 100.173,202.750 101.427 C 200.183 102.680,196.733 104.362,195.083 105.164 C 191.276 107.014,181.007 112.014,176.333 114.292 C 160.965 121.786,153.739 125.303,151.083 126.584 C 149.892 127.158,146.629 128.748,143.833 130.116 C 141.037 131.484,136.313 133.786,133.333 135.231 L 127.917 137.859 125.583 141.879 C 124.300 144.090,123.221 145.970,123.187 146.057 C 123.152 146.143,128.927 143.288,136.020 139.711 C 143.113 136.135,155.517 129.890,163.583 125.833 C 171.650 121.776,181.625 116.751,185.750 114.666 C 196.693 109.135,212.935 101.000,213.036 101.000 C 213.147 101.000,212.454 104.969,212.016 106.850 C 211.564 108.786,210.715 111.409,210.227 112.375 L 209.828 113.167 211.074 113.167 L 212.319 113.167 212.730 112.458 C 213.668 110.840,214.597 107.557,215.588 102.361 C 215.891 100.772,216.186 99.425,216.244 99.367 C 216.302 99.309,225.476 94.670,236.629 89.059 C 247.783 83.448,256.932 78.786,256.961 78.699 C 256.990 78.612,256.835 78.138,256.616 77.645 C 256.398 77.153,256.123 76.506,256.006 76.208 C 255.750 75.557,255.868 75.551,254.333 76.297 M184.583 125.526 C 181.675 126.066,181.077 126.342,173.333 130.718 C 170.079 132.558,166.667 134.485,165.750 135.001 C 149.703 144.039,87.030 179.579,86.886 179.721 C 86.638 179.968,84.114 184.671,84.192 184.742 C 84.224 184.770,86.500 183.503,89.250 181.925 C 92.000 180.348,99.200 176.221,105.250 172.755 C 111.300 169.289,117.975 165.462,120.083 164.250 C 122.192 163.038,129.129 159.062,135.500 155.413 C 141.871 151.764,150.083 147.058,153.750 144.956 C 173.916 133.391,173.333 133.713,175.228 133.079 C 184.605 129.942,192.360 132.710,194.289 139.883 C 194.632 141.160,194.654 143.273,194.377 148.417 C 194.263 150.525,194.020 155.587,193.837 159.667 C 193.655 163.746,193.429 168.658,193.336 170.583 C 193.242 172.508,193.054 176.596,192.917 179.667 C 192.780 182.737,192.587 186.797,192.489 188.689 C 192.088 196.400,193.312 197.165,206.049 197.166 L 212.849 197.167 216.015 194.563 C 217.756 193.130,219.159 191.939,219.132 191.916 C 219.105 191.892,216.833 191.944,214.083 192.031 C 204.889 192.322,203.950 192.215,202.419 190.706 C 201.053 189.359,200.913 188.764,200.941 184.417 C 200.964 180.975,201.063 178.386,201.670 165.417 C 201.894 160.635,202.458 148.122,202.669 143.250 C 202.761 141.142,202.874 139.134,202.920 138.788 C 203.580 133.905,197.042 126.959,190.488 125.581 C 189.186 125.307,185.924 125.276,184.583 125.526 M115.045 175.042 C 114.956 175.156,114.149 176.675,113.252 178.417 C 112.355 180.158,111.370 182.038,111.064 182.593 L 110.507 183.603 111.258 183.968 C 111.671 184.169,112.072 184.333,112.150 184.333 C 112.228 184.333,113.032 182.909,113.937 181.168 C 114.843 179.428,115.603 178.063,115.628 178.136 C 115.653 178.208,115.296 179.822,114.836 181.721 C 114.376 183.620,114.000 185.233,114.000 185.304 C 114.000 185.437,115.397 186.167,115.652 186.167 C 115.731 186.167,116.897 184.929,118.243 183.417 C 119.588 181.904,120.728 180.667,120.775 180.667 C 120.822 180.667,120.414 181.510,119.868 182.542 C 118.228 185.638,117.458 187.180,117.522 187.238 C 117.819 187.502,119.066 187.997,119.163 187.889 C 119.231 187.812,120.020 186.325,120.916 184.583 C 121.813 182.842,122.798 180.959,123.106 180.401 C 123.816 179.113,123.883 179.279,122.343 178.505 L 121.020 177.839 118.737 180.341 C 117.482 181.718,116.430 182.819,116.400 182.789 C 116.358 182.747,117.071 179.452,117.749 176.553 C 117.877 176.005,115.382 174.609,115.045 175.042 M127.066 181.641 C 123.271 183.421,122.964 189.231,126.572 191.007 C 130.279 192.832,133.819 190.399,133.867 185.993 C 133.903 182.719,130.040 180.246,127.066 181.641 M179.064 182.559 C 177.028 183.076,175.849 184.371,176.051 185.872 C 176.284 187.609,177.650 188.333,180.697 188.333 C 182.634 188.333,183.319 189.117,182.355 190.231 C 181.506 191.214,180.024 191.255,179.136 190.321 L 178.491 189.643 177.662 189.918 C 176.761 190.218,176.717 190.294,177.068 190.967 C 178.944 194.556,185.710 192.267,184.592 188.421 C 184.157 186.925,183.138 186.336,180.982 186.334 C 179.156 186.333,178.341 186.166,178.059 185.737 C 177.273 184.536,180.117 183.544,181.139 184.663 L 181.592 185.160 182.463 184.881 C 183.441 184.569,183.490 184.448,182.958 183.659 C 182.209 182.547,180.744 182.134,179.064 182.559 M130.583 183.480 C 132.236 184.434,132.234 187.350,130.579 189.054 C 128.808 190.877,125.766 189.318,126.082 186.750 C 126.440 183.850,128.557 182.312,130.583 183.480 M137.590 184.023 C 137.465 184.377,135.667 193.014,135.667 193.263 C 135.667 193.488,136.630 193.831,137.269 193.832 C 137.556 193.833,137.641 193.702,137.728 193.125 C 137.787 192.735,138.234 190.563,138.721 188.298 C 139.362 185.321,139.553 184.159,139.409 184.103 C 138.771 183.859,137.666 183.810,137.590 184.023 M171.632 184.166 C 170.602 184.294,170.652 183.987,171.069 187.626 C 171.270 189.391,171.382 190.779,171.316 190.709 C 171.251 190.640,170.175 189.271,168.925 187.667 L 166.653 184.750 165.785 184.807 C 164.600 184.884,164.637 184.541,165.237 189.874 C 165.850 195.322,165.713 194.904,166.839 194.749 L 167.699 194.631 167.600 193.940 C 167.367 192.306,166.983 188.637,167.031 188.502 C 167.060 188.421,168.096 189.664,169.333 191.264 L 171.583 194.173 172.582 194.074 C 173.132 194.019,173.598 193.958,173.618 193.938 C 173.685 193.871,172.580 184.191,172.498 184.129 C 172.453 184.096,172.064 184.113,171.632 184.166 M142.487 184.875 C 142.414 185.103,141.576 194.604,141.623 194.663 C 141.658 194.707,142.114 194.744,142.635 194.746 L 143.583 194.750 143.775 192.833 C 143.880 191.779,143.974 190.870,143.983 190.814 C 144.020 190.589,145.375 190.981,145.737 191.321 C 145.949 191.520,146.558 192.486,147.090 193.467 C 147.621 194.448,148.063 195.260,148.070 195.273 C 148.077 195.286,148.636 195.350,149.313 195.417 L 150.542 195.538 149.658 193.847 C 149.171 192.918,148.522 191.863,148.214 191.503 L 147.654 190.849 148.320 190.670 C 150.750 190.016,151.100 186.510,148.825 185.599 C 148.020 185.278,142.557 184.653,142.487 184.875 M156.158 185.792 C 156.066 186.044,155.922 186.438,155.837 186.667 C 155.081 188.708,152.830 195.385,152.880 195.436 C 152.916 195.472,153.396 195.454,153.947 195.396 L 154.948 195.291 155.319 194.141 L 155.689 192.990 157.708 193.037 L 159.727 193.083 160.155 194.124 L 160.583 195.165 161.625 195.166 C 162.270 195.166,162.667 195.097,162.667 194.984 C 162.667 194.824,159.530 187.619,158.737 185.958 L 158.438 185.333 157.382 185.333 C 156.381 185.333,156.316 185.357,156.158 185.792 M147.445 187.021 C 149.068 187.520,148.339 189.335,146.516 189.331 C 144.078 189.327,143.956 189.216,144.276 187.280 L 144.381 186.643 145.649 186.751 C 146.346 186.810,147.154 186.932,147.445 187.021 M158.161 189.382 C 159.020 191.446,159.053 191.333,157.583 191.333 C 156.896 191.333,156.333 191.277,156.333 191.208 C 156.332 190.998,157.389 187.666,157.440 187.718 C 157.466 187.744,157.791 188.493,158.161 189.382 " stroke="none" fill="#fcfafa" fill-rule="evenodd"></path><path id="path1" d="M151.333 9.678 C 147.346 9.878,142.648 10.429,138.083 11.232 C 137.258 11.377,136.283 11.564,135.917 11.648 C 135.550 11.731,134.837 11.883,134.333 11.984 C 132.628 12.327,129.214 13.169,128.167 13.506 C 127.938 13.580,127.300 13.765,126.750 13.917 C 126.200 14.070,125.635 14.254,125.495 14.326 C 125.354 14.398,124.979 14.509,124.661 14.572 C 124.343 14.635,123.933 14.753,123.750 14.836 C 123.567 14.918,122.817 15.181,122.083 15.420 C 121.350 15.658,120.600 15.920,120.417 16.000 C 120.233 16.080,119.896 16.198,119.667 16.262 C 119.438 16.327,118.875 16.545,118.417 16.747 C 117.958 16.949,117.321 17.213,117.000 17.334 C 116.679 17.455,116.345 17.616,116.258 17.693 C 116.171 17.770,115.994 17.833,115.865 17.833 C 115.737 17.833,115.170 18.048,114.607 18.311 C 114.044 18.574,113.175 18.968,112.676 19.186 C 111.084 19.883,106.136 22.415,104.583 23.327 C 103.758 23.812,102.858 24.330,102.583 24.479 C 102.308 24.628,102.058 24.806,102.028 24.875 C 101.997 24.944,101.902 25.000,101.817 25.000 C 101.654 25.000,98.145 27.153,98.000 27.341 C 97.954 27.401,97.579 27.660,97.167 27.917 C 96.754 28.173,96.379 28.431,96.333 28.489 C 96.287 28.547,95.837 28.865,95.333 29.196 C 94.829 29.527,93.992 30.124,93.472 30.524 C 92.953 30.923,92.321 31.400,92.068 31.583 C 91.815 31.767,91.334 32.142,91.000 32.417 C 90.666 32.692,90.082 33.167,89.704 33.473 C 87.148 35.542,83.885 38.477,81.598 40.764 C 79.310 43.052,76.376 46.314,74.307 48.871 C 74.001 49.249,73.525 49.832,73.250 50.166 C 72.975 50.501,72.600 50.981,72.417 51.234 C 72.233 51.487,71.757 52.119,71.357 52.639 C 70.958 53.158,70.360 53.996,70.030 54.500 C 69.699 55.004,69.381 55.454,69.322 55.500 C 69.264 55.546,69.007 55.921,68.750 56.333 C 68.493 56.746,68.235 57.121,68.175 57.167 C 67.986 57.311,65.833 60.820,65.833 60.983 C 65.833 61.069,65.777 61.164,65.708 61.194 C 65.640 61.225,65.462 61.475,65.313 61.750 C 65.164 62.025,64.645 62.925,64.160 63.750 C 63.248 65.302,60.716 70.250,60.020 71.843 C 59.801 72.342,59.408 73.211,59.145 73.774 C 58.882 74.337,58.667 74.903,58.667 75.032 C 58.667 75.161,58.604 75.338,58.527 75.425 C 58.450 75.512,58.288 75.846,58.167 76.167 C 58.047 76.487,57.783 77.125,57.580 77.583 C 57.378 78.042,57.160 78.604,57.096 78.833 C 57.032 79.063,56.913 79.400,56.833 79.583 C 56.753 79.767,56.492 80.517,56.253 81.250 C 56.014 81.983,55.751 82.733,55.669 82.917 C 55.587 83.100,55.468 83.510,55.405 83.828 C 55.342 84.146,55.232 84.521,55.159 84.661 C 55.087 84.802,54.903 85.367,54.751 85.917 C 54.598 86.467,54.413 87.104,54.339 87.333 C 54.003 88.380,53.160 91.794,52.817 93.500 C 52.716 94.004,52.565 94.717,52.481 95.083 C 52.332 95.738,51.933 97.942,51.666 99.583 C 51.490 100.667,51.022 104.361,50.831 106.167 C 50.270 111.493,50.270 120.987,50.832 126.333 C 51.021 128.130,51.489 131.827,51.666 132.917 C 51.933 134.558,52.332 136.762,52.481 137.417 C 52.565 137.783,52.716 138.496,52.817 139.000 C 53.160 140.706,54.003 144.120,54.339 145.167 C 54.413 145.396,54.598 146.033,54.751 146.583 C 54.903 147.133,55.087 147.698,55.159 147.839 C 55.232 147.979,55.342 148.354,55.405 148.672 C 55.468 148.990,55.587 149.400,55.669 149.583 C 55.751 149.767,56.014 150.517,56.253 151.250 C 56.492 151.983,56.753 152.733,56.833 152.917 C 56.913 153.100,57.032 153.438,57.096 153.667 C 57.160 153.896,57.378 154.458,57.580 154.917 C 57.783 155.375,58.047 156.012,58.167 156.333 C 58.288 156.654,58.450 156.988,58.527 157.075 C 58.604 157.162,58.667 157.339,58.667 157.468 C 58.667 157.597,58.882 158.163,59.145 158.726 C 59.408 159.289,59.801 160.158,60.020 160.657 C 60.716 162.250,63.248 167.198,64.160 168.750 C 64.645 169.575,65.164 170.475,65.313 170.750 C 65.462 171.025,65.640 171.275,65.708 171.306 C 65.777 171.336,65.833 171.431,65.833 171.517 C 65.833 171.680,67.986 175.189,68.175 175.333 C 68.235 175.379,68.493 175.754,68.750 176.167 C 69.007 176.579,69.264 176.954,69.322 177.000 C 69.381 177.046,69.699 177.496,70.030 178.000 C 70.360 178.504,70.958 179.342,71.357 179.861 C 71.757 180.381,72.233 181.013,72.417 181.266 C 72.600 181.519,72.975 181.999,73.250 182.334 C 73.525 182.668,74.001 183.251,74.307 183.629 C 76.376 186.186,79.310 189.448,81.598 191.736 C 83.885 194.023,87.148 196.958,89.704 199.027 C 90.082 199.333,90.666 199.808,91.000 200.083 C 91.334 200.358,91.815 200.733,92.068 200.917 C 92.321 201.100,92.953 201.577,93.472 201.976 C 93.992 202.376,94.829 202.973,95.333 203.304 C 95.837 203.635,96.287 203.953,96.333 204.011 C 96.379 204.069,96.754 204.327,97.167 204.583 C 97.579 204.840,97.954 205.099,98.000 205.159 C 98.145 205.347,101.654 207.500,101.817 207.500 C 101.902 207.500,101.997 207.556,102.028 207.625 C 102.058 207.694,102.308 207.872,102.583 208.021 C 102.858 208.170,103.758 208.688,104.583 209.173 C 106.136 210.085,111.084 212.617,112.676 213.314 C 113.175 213.532,114.044 213.926,114.607 214.189 C 115.170 214.452,115.737 214.667,115.865 214.667 C 115.994 214.667,116.171 214.730,116.258 214.807 C 116.345 214.884,116.679 215.045,117.000 215.166 C 117.321 215.287,117.958 215.551,118.417 215.753 C 118.875 215.955,119.438 216.173,119.667 216.238 C 119.896 216.302,120.233 216.420,120.417 216.500 C 120.600 216.580,121.350 216.842,122.083 217.080 C 122.817 217.319,123.567 217.582,123.750 217.664 C 123.933 217.747,124.343 217.865,124.661 217.928 C 124.979 217.991,125.354 218.102,125.495 218.174 C 125.635 218.246,126.200 218.430,126.750 218.583 C 127.300 218.735,127.938 218.920,128.167 218.994 C 129.214 219.331,132.628 220.173,134.333 220.516 C 134.837 220.617,135.550 220.769,135.917 220.852 C 136.572 221.001,138.776 221.400,140.417 221.667 C 141.500 221.843,145.195 222.312,147.000 222.502 C 152.327 223.064,161.821 223.063,167.167 222.501 C 168.963 222.313,172.661 221.844,173.750 221.667 C 175.391 221.400,177.595 221.001,178.250 220.852 C 178.617 220.769,179.329 220.617,179.833 220.516 C 181.539 220.173,184.953 219.331,186.000 218.994 C 186.229 218.920,186.867 218.735,187.417 218.583 C 187.967 218.430,188.532 218.246,188.672 218.174 C 188.813 218.102,189.188 217.991,189.505 217.928 C 189.823 217.865,190.233 217.747,190.417 217.664 C 190.600 217.582,191.350 217.319,192.083 217.080 C 192.817 216.842,193.567 216.580,193.750 216.500 C 193.933 216.420,194.271 216.302,194.500 216.238 C 194.729 216.173,195.292 215.955,195.750 215.753 C 196.208 215.551,196.846 215.287,197.167 215.166 C 197.487 215.045,197.821 214.884,197.908 214.807 C 197.995 214.730,198.172 214.667,198.301 214.667 C 198.430 214.667,198.996 214.452,199.560 214.189 C 200.123 213.926,200.992 213.532,201.491 213.314 C 203.083 212.617,208.031 210.085,209.583 209.173 C 210.408 208.688,211.308 208.170,211.583 208.021 C 211.858 207.872,212.108 207.694,212.139 207.625 C 212.169 207.556,212.264 207.500,212.350 207.500 C 212.513 207.500,216.022 205.347,216.167 205.159 C 216.213 205.099,216.588 204.840,217.000 204.583 C 217.412 204.327,217.787 204.069,217.833 204.011 C 217.879 203.953,218.329 203.635,218.833 203.304 C 219.338 202.973,220.175 202.376,220.694 201.976 C 221.214 201.577,221.846 201.100,222.099 200.917 C 222.352 200.733,222.833 200.358,223.167 200.083 C 223.501 199.808,224.084 199.333,224.463 199.027 C 227.019 196.958,230.282 194.023,232.569 191.736 C 234.856 189.448,237.791 186.186,239.860 183.629 C 240.166 183.251,240.642 182.668,240.917 182.334 C 241.192 181.999,241.567 181.519,241.750 181.266 C 241.933 181.013,242.410 180.381,242.809 179.861 C 243.209 179.342,243.806 178.504,244.137 178.000 C 244.468 177.496,244.786 177.046,244.844 177.000 C 244.903 176.954,245.160 176.579,245.417 176.167 C 245.673 175.754,245.932 175.379,245.992 175.333 C 246.181 175.189,248.333 171.680,248.333 171.517 C 248.333 171.431,248.390 171.336,248.458 171.306 C 248.527 171.275,248.705 171.025,248.854 170.750 C 249.003 170.475,249.521 169.575,250.006 168.750 C 250.919 167.198,253.450 162.250,254.147 160.657 C 254.365 160.158,254.759 159.289,255.022 158.726 C 255.285 158.163,255.500 157.597,255.500 157.468 C 255.500 157.339,255.563 157.162,255.640 157.075 C 255.717 156.988,255.879 156.654,255.999 156.333 C 256.120 156.012,256.384 155.375,256.586 154.917 C 256.789 154.458,257.007 153.896,257.071 153.667 C 257.135 153.438,257.253 153.100,257.333 152.917 C 257.414 152.733,257.675 151.983,257.914 151.250 C 258.153 150.517,258.416 149.767,258.498 149.583 C 258.580 149.400,258.699 148.990,258.761 148.672 C 258.824 148.354,258.935 147.979,259.007 147.839 C 259.080 147.698,259.264 147.133,259.416 146.583 C 259.569 146.033,259.754 145.396,259.827 145.167 C 260.164 144.120,261.007 140.706,261.349 139.000 C 261.451 138.496,261.602 137.783,261.685 137.417 C 261.835 136.762,262.234 134.558,262.500 132.917 C 262.676 131.833,263.145 128.139,263.335 126.333 C 263.897 121.007,263.897 111.513,263.335 106.167 C 263.146 104.370,262.677 100.673,262.500 99.583 C 262.234 97.942,261.835 95.738,261.685 95.083 C 261.602 94.717,261.451 94.004,261.349 93.500 C 261.007 91.794,260.164 88.380,259.827 87.333 C 259.754 87.104,259.569 86.467,259.416 85.917 C 259.264 85.367,259.075 84.795,258.998 84.646 C 258.920 84.496,258.804 84.084,258.740 83.729 C 258.676 83.374,258.571 83.008,258.507 82.917 C 258.443 82.825,258.177 82.075,257.915 81.250 C 257.653 80.425,257.377 79.679,257.303 79.592 C 257.228 79.505,257.167 79.298,257.167 79.133 C 257.167 78.968,257.119 78.833,257.061 78.833 C 256.921 78.833,216.456 99.175,216.279 99.335 C 216.203 99.403,215.893 100.762,215.589 102.354 C 214.597 107.558,213.668 110.839,212.730 112.458 L 212.319 113.167 211.074 113.167 L 209.828 113.167 210.227 112.375 C 210.715 111.409,211.564 108.786,212.016 106.850 C 212.454 104.969,213.147 101.000,213.036 101.000 C 212.935 101.000,196.693 109.135,185.750 114.666 C 181.625 116.751,171.650 121.776,163.583 125.833 C 155.517 129.890,143.113 136.135,136.020 139.711 C 128.927 143.288,123.152 146.143,123.187 146.057 C 123.221 145.970,124.300 144.090,125.583 141.879 L 127.917 137.859 133.333 135.231 C 136.313 133.786,141.037 131.484,143.833 130.116 C 146.629 128.748,149.892 127.158,151.083 126.584 C 152.275 126.009,154.731 124.818,156.542 123.936 C 162.905 120.838,169.863 117.447,176.333 114.292 C 181.007 112.014,191.276 107.014,195.083 105.164 C 196.733 104.362,200.183 102.680,202.750 101.427 C 205.317 100.173,208.813 98.469,210.520 97.640 L 213.624 96.133 213.727 94.942 C 213.783 94.286,213.878 92.848,213.938 91.745 L 214.046 89.740 215.231 88.884 C 215.883 88.413,216.743 87.785,217.141 87.488 L 217.865 86.948 217.743 88.099 C 217.675 88.732,217.457 90.431,217.259 91.875 C 217.060 93.319,216.913 94.500,216.932 94.500 C 216.951 94.500,218.905 93.554,221.275 92.397 C 223.645 91.241,226.558 89.824,227.750 89.250 C 228.942 88.675,232.233 87.071,235.063 85.686 C 237.894 84.300,240.228 83.167,240.251 83.167 C 240.274 83.167,243.113 81.784,246.561 80.093 C 250.009 78.403,253.508 76.702,254.336 76.314 C 255.365 75.832,255.788 75.554,255.671 75.438 C 255.577 75.344,255.500 75.161,255.500 75.032 C 255.500 74.903,255.285 74.337,255.022 73.774 C 254.759 73.211,254.365 72.342,254.147 71.843 C 253.450 70.250,250.919 65.302,250.006 63.750 C 249.521 62.925,249.003 62.025,248.854 61.750 C 248.705 61.475,248.527 61.225,248.458 61.194 C 248.390 61.164,248.333 61.069,248.333 60.983 C 248.333 60.820,246.181 57.311,245.992 57.167 C 245.932 57.121,245.673 56.746,245.417 56.333 C 245.160 55.921,244.903 55.546,244.844 55.500 C 244.786 55.454,244.468 55.004,244.137 54.500 C 243.806 53.996,243.209 53.158,242.809 52.639 C 242.410 52.119,241.933 51.487,241.750 51.234 C 241.567 50.981,241.192 50.501,240.917 50.166 C 240.642 49.832,240.166 49.249,239.860 48.871 C 237.791 46.314,234.856 43.052,232.569 40.764 C 230.282 38.477,227.019 35.542,224.463 33.473 C 224.084 33.167,223.501 32.692,223.167 32.417 C 222.833 32.142,222.352 31.767,222.099 31.583 C 221.846 31.400,221.214 30.923,220.694 30.524 C 220.175 30.124,219.338 29.527,218.833 29.196 C 218.329 28.865,217.879 28.547,217.833 28.489 C 217.787 28.431,217.412 28.173,217.000 27.917 C 216.588 27.660,216.213 27.401,216.167 27.341 C 216.022 27.153,212.513 25.000,212.350 25.000 C 212.264 25.000,212.169 24.944,212.139 24.875 C 212.108 24.806,211.858 24.628,211.583 24.479 C 211.308 24.330,210.408 23.812,209.583 23.327 C 208.031 22.415,203.083 19.883,201.491 19.186 C 200.992 18.968,200.123 18.574,199.560 18.311 C 198.996 18.048,198.430 17.833,198.301 17.833 C 198.172 17.833,197.995 17.770,197.908 17.693 C 197.821 17.616,197.487 17.455,197.167 17.334 C 196.846 17.213,196.208 16.949,195.750 16.747 C 195.292 16.545,194.729 16.327,194.500 16.262 C 194.271 16.198,193.933 16.080,193.750 16.000 C 193.567 15.920,192.817 15.658,192.083 15.420 C 191.350 15.181,190.600 14.918,190.417 14.836 C 190.233 14.753,189.823 14.635,189.505 14.572 C 189.188 14.509,188.813 14.398,188.672 14.326 C 188.532 14.254,187.967 14.070,187.417 13.917 C 186.867 13.765,186.229 13.580,186.000 13.506 C 184.953 13.169,181.539 12.327,179.833 11.984 C 179.329 11.883,178.617 11.731,178.250 11.648 C 177.883 11.564,176.908 11.377,176.083 11.232 C 167.686 9.755,159.731 9.256,151.333 9.678 M162.167 26.680 C 165.761 26.932,165.514 26.847,165.390 27.794 C 165.333 28.228,165.278 28.592,165.268 28.602 C 165.258 28.613,164.073 28.538,162.633 28.436 C 159.656 28.224,159.840 28.142,159.836 29.690 L 159.833 30.464 161.708 30.572 C 162.740 30.632,163.868 30.722,164.216 30.773 L 164.849 30.865 164.736 31.641 C 164.675 32.068,164.611 32.433,164.596 32.452 C 164.580 32.472,163.709 32.417,162.659 32.330 C 161.609 32.243,160.515 32.171,160.228 32.169 L 159.706 32.167 159.588 33.429 C 159.442 34.979,159.116 34.786,162.300 35.028 L 165.000 35.234 165.000 36.033 L 165.000 36.833 164.208 36.827 C 163.036 36.818,157.491 36.380,157.401 36.290 C 157.358 36.247,157.396 35.395,157.485 34.398 C 157.574 33.400,157.738 31.215,157.849 29.542 L 158.050 26.500 158.817 26.499 C 159.238 26.499,160.746 26.580,162.167 26.680 M144.242 27.375 C 144.278 27.490,144.352 27.854,144.407 28.184 L 144.506 28.785 142.628 29.139 C 141.595 29.333,140.431 29.541,140.042 29.601 C 139.266 29.720,139.258 29.738,139.439 31.060 C 139.567 31.990,139.511 31.983,142.417 31.434 C 144.589 31.024,144.552 31.014,144.733 32.022 C 144.863 32.751,145.024 32.677,142.208 33.180 C 140.577 33.472,140.000 33.638,140.000 33.815 C 140.000 33.948,140.083 34.531,140.184 35.111 C 140.401 36.359,140.129 36.307,143.369 35.722 C 144.724 35.477,145.860 35.308,145.895 35.347 C 145.929 35.385,146.007 35.758,146.067 36.176 L 146.177 36.935 142.714 37.555 C 138.357 38.335,138.739 38.367,138.528 37.208 C 138.432 36.681,138.046 34.569,137.671 32.515 C 137.297 30.461,137.017 28.699,137.050 28.599 C 137.084 28.499,138.605 28.143,140.431 27.809 C 144.357 27.090,144.160 27.113,144.242 27.375 M175.925 28.853 C 177.316 29.370,178.167 30.481,178.167 31.780 L 178.167 32.371 177.395 32.256 C 176.290 32.090,176.235 32.053,176.017 31.326 C 175.776 30.520,175.174 30.167,174.042 30.167 C 172.195 30.167,172.444 31.389,174.500 32.420 C 176.754 33.548,177.637 34.665,177.436 36.132 C 176.873 40.238,169.983 39.462,169.547 35.244 L 169.450 34.305 170.267 34.415 C 171.412 34.569,171.500 34.611,171.500 35.011 C 171.500 36.865,174.716 37.873,175.346 36.217 C 175.575 35.614,175.226 35.150,174.048 34.496 C 171.549 33.107,170.833 32.343,170.834 31.061 C 170.835 28.785,173.101 27.802,175.925 28.853 M128.012 35.512 C 128.740 37.554,129.371 39.260,129.414 39.303 C 129.457 39.346,130.512 39.025,131.757 38.590 C 133.002 38.155,134.046 37.825,134.076 37.858 C 134.279 38.074,134.650 39.247,134.545 39.340 C 134.389 39.478,128.126 41.682,128.064 41.620 C 127.926 41.482,124.839 32.567,124.883 32.433 C 124.934 32.280,126.526 31.664,126.635 31.755 C 126.664 31.779,127.283 33.469,128.012 35.512 M188.173 32.934 C 190.137 33.517,191.333 34.863,191.333 36.489 L 191.333 37.365 190.458 37.247 C 189.346 37.097,189.333 37.087,189.333 36.429 C 189.333 34.869,187.208 33.958,185.800 34.915 C 184.338 35.909,183.504 39.068,184.395 40.237 C 185.214 41.310,186.717 41.424,187.656 40.485 C 188.224 39.917,188.420 39.958,189.238 40.818 L 189.727 41.331 189.335 41.748 C 186.649 44.607,181.791 42.228,182.037 38.174 C 182.258 34.537,185.177 32.044,188.173 32.934 M119.438 36.346 C 120.409 36.946,120.425 37.069,119.634 37.807 C 118.992 38.406,118.888 38.450,118.645 38.230 C 117.457 37.155,115.329 38.035,115.057 39.713 C 114.866 40.888,116.083 43.316,117.205 44.000 C 118.844 44.999,120.844 43.698,120.567 41.814 C 120.467 41.136,120.523 41.092,121.711 40.914 L 122.465 40.801 122.580 41.480 C 123.167 44.952,118.654 47.478,115.694 45.334 C 113.670 43.868,112.580 40.730,113.406 38.747 C 114.360 36.458,117.558 35.185,119.438 36.346 M200.750 39.681 C 202.999 41.188,203.528 41.759,203.618 42.782 C 203.799 44.835,201.825 46.392,199.947 45.678 L 199.540 45.523 199.770 46.288 C 199.988 47.014,200.110 51.000,199.914 51.000 C 199.848 51.000,198.046 49.848,197.987 49.768 C 197.979 49.758,197.922 48.634,197.858 47.271 L 197.743 44.791 197.170 44.312 C 196.412 43.680,196.523 43.613,195.329 45.423 C 194.055 47.355,194.188 47.272,193.260 46.711 C 192.326 46.147,192.132 46.619,195.272 41.810 L 197.871 37.830 198.477 38.197 C 198.811 38.399,199.833 39.066,200.750 39.681 M197.981 41.361 L 197.282 42.391 197.733 42.750 C 199.581 44.223,200.988 44.468,201.436 43.395 C 201.769 42.599,201.539 42.261,199.922 41.171 L 198.680 40.332 197.981 41.361 M107.743 43.900 C 108.898 44.781,109.222 46.230,108.528 47.407 C 108.064 48.192,108.055 48.167,108.822 48.167 C 109.432 48.167,112.934 49.212,113.205 49.475 C 113.272 49.540,112.918 49.912,112.420 50.301 L 111.513 51.009 110.215 50.597 C 106.939 49.557,106.718 49.542,105.750 50.303 L 105.373 50.600 106.603 52.125 C 108.050 53.919,108.025 53.804,107.125 54.538 L 106.417 55.116 103.302 51.246 L 100.188 47.375 100.636 46.970 C 101.732 45.978,104.365 43.975,105.084 43.586 C 105.809 43.194,107.002 43.335,107.743 43.900 M104.092 46.348 L 102.831 47.362 103.153 47.806 C 103.331 48.050,103.687 48.500,103.946 48.805 L 104.417 49.361 105.708 48.259 C 107.168 47.014,107.379 46.415,106.614 45.696 C 105.982 45.102,105.479 45.232,104.092 46.348 M210.731 47.197 C 210.863 47.299,204.537 54.842,204.333 54.826 C 204.287 54.822,203.932 54.539,203.542 54.197 L 202.835 53.575 206.104 49.775 L 209.374 45.974 209.978 46.528 C 210.311 46.833,210.650 47.134,210.731 47.197 M216.404 52.576 L 217.348 53.652 215.538 56.367 C 214.542 57.861,213.670 59.181,213.599 59.300 C 213.528 59.419,214.883 58.811,216.610 57.949 L 219.750 56.382 220.667 57.454 C 221.171 58.043,221.583 58.581,221.583 58.649 C 221.583 58.717,219.937 60.211,217.925 61.970 L 214.266 65.168 213.631 64.548 C 212.845 63.781,212.608 64.132,215.792 61.345 C 217.281 60.041,218.500 58.937,218.500 58.893 C 218.500 58.848,216.971 59.603,215.102 60.572 L 211.704 62.332 211.090 61.652 C 210.339 60.820,210.229 61.102,212.668 57.582 C 213.767 55.995,214.667 54.649,214.667 54.591 C 214.667 54.534,213.415 55.587,211.886 56.932 L 209.104 59.377 208.552 58.774 C 208.248 58.443,208.000 58.101,208.000 58.015 C 208.000 57.848,215.157 51.500,215.346 51.500 C 215.408 51.500,215.884 51.984,216.404 52.576 M96.826 52.806 C 96.822 52.867,96.037 53.779,95.082 54.833 L 93.346 56.750 94.046 57.463 C 94.930 58.364,94.843 58.401,96.657 56.375 C 98.390 54.440,98.232 54.522,98.984 55.165 L 99.551 55.650 97.881 57.528 L 96.212 59.407 97.046 60.162 C 97.504 60.577,97.968 60.969,98.077 61.033 C 98.200 61.106,98.953 60.395,100.063 59.158 C 102.081 56.912,101.895 57.019,102.647 57.663 L 103.212 58.145 100.666 61.001 L 98.121 63.856 97.519 63.287 C 97.188 62.974,95.519 61.475,93.811 59.956 L 90.706 57.194 93.140 54.446 L 95.574 51.697 96.204 52.196 C 96.550 52.470,96.830 52.745,96.826 52.806 M88.942 63.434 L 89.301 63.530 88.982 64.474 L 88.663 65.417 87.817 65.418 C 86.222 65.421,85.268 67.072,85.995 68.573 C 86.551 69.721,88.793 71.167,90.018 71.167 C 91.722 71.167,92.748 69.071,91.759 67.612 L 91.351 67.011 92.042 66.419 C 92.838 65.738,92.949 65.744,93.459 66.496 C 94.561 68.124,94.241 70.220,92.647 71.814 C 89.833 74.628,84.018 71.988,84.004 67.889 C 83.994 65.064,86.521 62.785,88.942 63.434 M227.324 67.067 C 229.462 70.625,229.324 70.214,228.555 70.737 C 227.788 71.258,227.938 71.392,226.419 68.837 C 225.709 67.643,225.063 66.667,224.983 66.667 C 224.735 66.667,223.162 67.690,223.231 67.806 C 223.267 67.867,223.830 68.801,224.482 69.883 C 225.133 70.964,225.667 71.882,225.667 71.922 C 225.667 72.023,224.313 72.871,224.259 72.804 C 224.236 72.774,223.671 71.831,223.004 70.708 C 221.613 68.368,221.822 68.489,220.512 69.269 C 219.275 70.007,219.253 69.740,220.745 72.215 C 222.348 74.874,222.304 74.720,221.583 75.145 C 221.252 75.340,220.928 75.500,220.863 75.500 C 220.662 75.500,216.945 69.166,217.071 69.038 C 217.234 68.871,225.222 64.034,225.365 64.015 C 225.429 64.007,226.310 65.380,227.324 67.067 M176.667 64.751 C 182.130 66.108,186.030 69.578,187.774 74.636 C 189.718 80.274,186.415 85.459,178.104 89.817 C 171.335 93.366,170.840 95.800,176.626 97.091 C 178.708 97.555,179.514 98.998,178.418 100.301 C 177.022 101.961,171.306 99.662,169.758 96.818 C 168.140 93.846,169.714 91.151,174.833 88.125 C 179.966 85.091,181.898 81.315,181.341 75.403 C 180.962 71.388,178.049 68.590,172.500 66.913 C 170.550 66.323,170.260 66.159,170.196 65.610 C 170.024 64.125,172.708 63.769,176.667 64.751 M163.542 66.942 C 164.855 67.066,164.883 67.113,163.974 67.667 C 161.002 69.476,159.363 75.582,159.526 84.233 L 159.590 87.667 157.045 87.667 L 154.500 87.667 154.503 86.458 C 154.524 79.237,156.676 71.114,159.322 68.269 C 160.672 66.817,161.029 66.705,163.542 66.942 M190.488 125.581 C 197.042 126.959,203.580 133.905,202.920 138.788 C 202.874 139.134,202.761 141.142,202.669 143.250 C 202.458 148.122,201.894 160.635,201.670 165.417 C 200.574 188.817,200.577 188.890,202.419 190.706 C 203.950 192.215,204.889 192.322,214.083 192.031 C 216.833 191.944,219.105 191.892,219.132 191.916 C 219.159 191.939,217.756 193.130,216.015 194.563 L 212.849 197.167 206.049 197.166 C 193.312 197.165,192.088 196.400,192.489 188.689 C 192.587 186.797,192.780 182.737,192.917 179.667 C 193.054 176.596,193.242 172.508,193.336 170.583 C 193.429 168.658,193.655 163.746,193.837 159.667 C 194.020 155.587,194.263 150.525,194.377 148.417 C 194.654 143.273,194.632 141.160,194.289 139.883 C 192.360 132.710,184.605 129.942,175.228 133.079 C 173.333 133.713,173.916 133.391,153.750 144.956 C 150.083 147.058,141.871 151.764,135.500 155.413 C 129.129 159.062,122.192 163.038,120.083 164.250 C 117.975 165.462,111.300 169.289,105.250 172.755 C 99.200 176.221,92.000 180.348,89.250 181.925 C 86.500 183.503,84.224 184.770,84.192 184.742 C 84.114 184.671,86.638 179.968,86.886 179.721 C 87.030 179.579,149.703 144.039,165.750 135.001 C 166.667 134.485,170.079 132.558,173.333 130.718 C 176.588 128.879,179.626 127.186,180.085 126.955 C 182.885 125.547,187.456 124.943,190.488 125.581 M116.605 175.512 C 117.651 176.090,117.821 176.244,117.749 176.553 C 117.071 179.452,116.358 182.747,116.400 182.789 C 116.430 182.819,117.482 181.718,118.737 180.341 L 121.020 177.839 122.343 178.505 C 123.883 179.279,123.816 179.113,123.106 180.401 C 122.798 180.959,121.813 182.842,120.916 184.583 C 120.020 186.325,119.231 187.812,119.163 187.889 C 119.066 187.997,117.819 187.502,117.522 187.238 C 117.458 187.180,118.228 185.638,119.868 182.542 C 120.414 181.510,120.822 180.667,120.775 180.667 C 120.728 180.667,119.588 181.904,118.243 183.417 C 116.897 184.929,115.731 186.167,115.652 186.167 C 115.397 186.167,114.000 185.437,114.000 185.304 C 114.000 185.233,114.376 183.620,114.836 181.721 C 115.296 179.822,115.653 178.208,115.628 178.136 C 115.603 178.063,114.843 179.428,113.937 181.168 C 113.032 182.909,112.228 184.333,112.150 184.333 C 112.072 184.333,111.671 184.169,111.258 183.968 L 110.507 183.603 111.064 182.593 C 111.370 182.038,112.355 180.158,113.252 178.417 C 114.854 175.307,115.123 174.833,115.292 174.833 C 115.338 174.833,115.929 175.139,116.605 175.512 M131.232 181.836 C 134.054 183.184,134.715 186.554,132.765 189.644 C 130.392 193.402,124.000 191.475,124.000 187.001 C 124.000 182.794,127.703 180.150,131.232 181.836 M182.057 182.795 C 182.585 183.103,183.333 184.050,183.333 184.410 C 183.333 184.516,182.942 184.728,182.463 184.881 L 181.592 185.160 181.139 184.663 C 180.117 183.544,177.273 184.536,178.059 185.737 C 178.341 186.166,179.156 186.333,180.982 186.334 C 183.138 186.336,184.157 186.925,184.592 188.421 C 185.710 192.267,178.944 194.556,177.068 190.967 C 176.717 190.294,176.761 190.218,177.662 189.918 L 178.491 189.643 179.136 190.321 C 180.024 191.255,181.506 191.214,182.355 190.231 C 183.319 189.117,182.634 188.333,180.697 188.333 C 177.650 188.333,176.284 187.609,176.051 185.872 C 175.728 183.465,179.711 181.424,182.057 182.795 M128.399 183.175 C 126.724 183.678,125.525 186.710,126.365 188.324 C 127.951 191.371,131.833 189.557,131.833 185.768 C 131.833 183.958,130.115 182.660,128.399 183.175 M139.409 184.103 C 139.553 184.159,139.362 185.321,138.721 188.298 C 138.234 190.563,137.787 192.735,137.728 193.125 C 137.641 193.702,137.556 193.833,137.269 193.832 C 136.630 193.831,135.667 193.488,135.667 193.263 C 135.667 193.014,137.465 184.377,137.590 184.023 C 137.666 183.810,138.771 183.859,139.409 184.103 M173.116 189.046 C 173.412 191.716,173.638 193.918,173.618 193.938 C 173.598 193.958,173.132 194.019,172.582 194.074 L 171.583 194.173 169.333 191.264 C 168.096 189.664,167.060 188.421,167.031 188.502 C 166.983 188.637,167.367 192.306,167.600 193.940 L 167.699 194.631 166.839 194.749 C 165.713 194.904,165.850 195.322,165.237 189.874 C 164.637 184.541,164.600 184.884,165.785 184.807 L 166.653 184.750 168.925 187.667 C 170.175 189.271,171.251 190.640,171.316 190.709 C 171.382 190.779,171.270 189.391,171.069 187.626 C 170.867 185.861,170.734 184.382,170.774 184.340 C 170.872 184.238,172.394 184.052,172.498 184.129 C 172.542 184.163,172.821 186.375,173.116 189.046 M145.805 185.080 C 149.286 185.448,150.129 185.934,150.296 187.669 C 150.443 189.196,149.721 190.293,148.320 190.670 L 147.654 190.849 148.214 191.503 C 148.522 191.863,149.171 192.918,149.658 193.847 L 150.542 195.538 149.313 195.417 C 148.636 195.350,148.077 195.286,148.070 195.273 C 148.063 195.260,147.621 194.448,147.090 193.467 C 146.558 192.486,145.949 191.520,145.737 191.321 C 145.375 190.981,144.020 190.589,143.983 190.814 C 143.974 190.870,143.880 191.779,143.775 192.833 L 143.583 194.750 142.635 194.746 C 142.114 194.744,141.658 194.707,141.623 194.663 C 141.576 194.604,142.414 185.103,142.487 184.875 C 142.517 184.780,143.595 184.847,145.805 185.080 M158.737 185.958 C 159.530 187.619,162.667 194.824,162.667 194.984 C 162.667 195.097,162.270 195.166,161.625 195.166 L 160.583 195.165 160.155 194.124 L 159.727 193.083 157.708 193.037 L 155.689 192.990 155.319 194.141 L 154.948 195.291 153.947 195.396 C 153.396 195.454,152.916 195.472,152.880 195.436 C 152.830 195.385,155.081 188.708,155.837 186.667 C 155.922 186.438,156.066 186.044,156.158 185.792 C 156.316 185.357,156.381 185.333,157.382 185.333 L 158.438 185.333 158.737 185.958 M144.276 187.280 C 144.024 188.804,144.106 189.113,144.792 189.226 C 147.364 189.652,148.630 189.068,148.146 187.680 C 147.939 187.086,147.452 186.904,145.649 186.751 L 144.381 186.643 144.276 187.280 M156.862 189.376 C 156.571 190.315,156.332 191.140,156.333 191.208 C 156.333 191.277,156.896 191.333,157.583 191.333 C 158.310 191.333,158.833 191.263,158.833 191.166 C 158.833 191.010,157.546 187.824,157.440 187.718 C 157.413 187.691,157.153 188.438,156.862 189.376 " stroke="none" fill="#fc0404" fill-rule="evenodd"></path></g></svg>